<?xml version="1.0" encoding="UTF-8" standalone="no"?><!DOCTYPE svg PUBLIC "-//W3C//DTD SVG 1.1//EN" "http://www.w3.org/Graphics/SVG/1.1/DTD/svg11.dtd"><svg width="100%" height="100%" viewBox="0 0 3541 2113" version="1.1" xmlns="http://www.w3.org/2000/svg" xmlns:xlink="http://www.w3.org/1999/xlink" xml:space="preserve" xmlns:serif="http://www.serif.com/" style="fill-rule:evenodd;clip-rule:evenodd;stroke-linecap:round;stroke-linejoin:round;stroke-miterlimit:1.5;"><rect id="Artboard1" x="0" y="0" width="3540.44" height="2112.17" style="fill:none;"/><g id="Type1-HV"><rect x="126.686" y="1565.41" width="1181.1" height="236.22" style="fill:none;stroke:#000;stroke-width:4.07px;"/><rect x="126.686" y="1092.97" width="1181.1" height="236.22" style="fill:none;stroke:#000;stroke-width:4.07px;"/><rect x="126.686" y="620.527" width="236.178" height="236.178" style="fill:none;stroke:#000;stroke-width:4.07px;"/><rect x="599.149" y="620.527" width="236.178" height="236.178" style="fill:none;stroke:#000;stroke-width:4.07px;"/><rect x="1071.61" y="620.527" width="236.178" height="236.178" style="fill:none;stroke:#000;stroke-width:4.07px;"/><path d="M515.358,1720.53l-8.203,0l-0,-31.934l-36.231,0l0,31.934l-8.203,0l0,-70.02l8.203,0l0,30.713l36.231,0l-0,-30.713l8.203,0l-0,70.02Z" style="fill-rule:nonzero;"/><path d="M587.916,1720.53l-9.082,0l-7.422,-19.629l-29.687,0l-6.983,19.629l-9.13,0l26.855,-70.02l8.496,0l26.953,70.02Zm-19.189,-27.002l-10.986,-29.834c-0.359,-0.976 -0.717,-2.539 -1.075,-4.687l-0.195,-0c-0.326,1.985 -0.7,3.548 -1.123,4.687l-10.889,29.834l24.268,0Z" style="fill-rule:nonzero;"/><path d="M648.414,1720.53l-9.765,0l-11.719,-19.629c-1.074,-1.823 -2.116,-3.377 -3.125,-4.663c-1.009,-1.286 -2.043,-2.336 -3.101,-3.149c-1.058,-0.814 -2.197,-1.408 -3.418,-1.783c-1.22,-0.374 -2.596,-0.561 -4.126,-0.561l-6.738,-0l0,29.785l-8.203,0l0,-70.02l20.898,0c3.06,0 5.884,0.383 8.472,1.148c2.588,0.765 4.834,1.929 6.738,3.491c1.905,1.563 3.394,3.508 4.468,5.835c1.074,2.328 1.612,5.054 1.612,8.179c-0,2.441 -0.367,4.679 -1.099,6.714c-0.732,2.034 -1.774,3.849 -3.125,5.444c-1.351,1.595 -2.979,2.954 -4.883,4.077c-1.904,1.123 -4.044,1.994 -6.421,2.612l0,0.196c1.172,0.521 2.189,1.115 3.052,1.782c0.863,0.667 1.685,1.457 2.466,2.368c0.781,0.912 1.554,1.945 2.319,3.101c0.765,1.155 1.62,2.498 2.564,4.028l13.134,21.045Zm-41.992,-62.598l0,25.391l11.133,-0c2.051,-0 3.947,-0.309 5.688,-0.928c1.742,-0.618 3.248,-1.505 4.517,-2.661c1.27,-1.155 2.262,-2.572 2.979,-4.248c0.716,-1.676 1.074,-3.556 1.074,-5.64c-0,-3.743 -1.213,-6.665 -3.638,-8.764c-2.425,-2.1 -5.933,-3.15 -10.522,-3.15l-11.231,0Z" style="fill-rule:nonzero;"/><path d="M658.034,1720.53l-0,-70.02l19.335,0c24.675,0 37.012,11.377 37.012,34.131c0,10.808 -3.426,19.491 -10.278,26.05c-6.852,6.559 -16.024,9.839 -27.515,9.839l-18.554,0Zm8.203,-62.598l-0,55.176l10.449,0c9.18,0 16.325,-2.458 21.435,-7.373c5.111,-4.915 7.666,-11.881 7.666,-20.898c0,-17.937 -9.537,-26.905 -28.613,-26.905l-10.937,0Z" style="fill-rule:nonzero;"/><path d="M808.717,1650.51l-19.775,70.02l-9.619,0l-14.405,-51.172c-0.618,-2.181 -0.993,-4.557 -1.123,-7.129l-0.195,0c-0.195,2.409 -0.619,4.753 -1.27,7.031l-14.502,51.27l-9.521,0l-20.508,-70.02l9.033,0l14.893,53.711c0.618,2.247 1.009,4.59 1.172,7.032l0.244,-0c0.163,-1.726 0.667,-4.069 1.514,-7.032l15.478,-53.711l7.861,0l14.844,54.102c0.521,1.856 0.912,4.036 1.172,6.543l0.195,0c0.131,-1.693 0.57,-3.939 1.319,-6.738l14.306,-53.907l8.887,0Z" style="fill-rule:nonzero;"/><path d="M869.41,1720.53l-9.082,0l-7.421,-19.629l-29.688,0l-6.982,19.629l-9.131,0l26.855,-70.02l8.496,0l26.953,70.02Zm-19.189,-27.002l-10.986,-29.834c-0.358,-0.976 -0.716,-2.539 -1.075,-4.687l-0.195,-0c-0.325,1.985 -0.7,3.548 -1.123,4.687l-10.889,29.834l24.268,0Z" style="fill-rule:nonzero;"/><path d="M929.909,1720.53l-9.766,0l-11.719,-19.629c-1.074,-1.823 -2.116,-3.377 -3.125,-4.663c-1.009,-1.286 -2.043,-2.336 -3.1,-3.149c-1.058,-0.814 -2.198,-1.408 -3.418,-1.783c-1.221,-0.374 -2.596,-0.561 -4.126,-0.561l-6.739,-0l0,29.785l-8.203,0l0,-70.02l20.899,0c3.06,0 5.883,0.383 8.471,1.148c2.588,0.765 4.834,1.929 6.739,3.491c1.904,1.563 3.393,3.508 4.467,5.835c1.075,2.328 1.612,5.054 1.612,8.179c-0,2.441 -0.367,4.679 -1.099,6.714c-0.732,2.034 -1.774,3.849 -3.125,5.444c-1.351,1.595 -2.978,2.954 -4.883,4.077c-1.904,1.123 -4.044,1.994 -6.421,2.612l0,0.196c1.172,0.521 2.189,1.115 3.052,1.782c0.863,0.667 1.685,1.457 2.466,2.368c0.781,0.912 1.554,1.945 2.319,3.101c0.765,1.155 1.62,2.498 2.564,4.028l13.135,21.045Zm-41.993,-62.598l0,25.391l11.133,-0c2.051,-0 3.947,-0.309 5.689,-0.928c1.741,-0.618 3.247,-1.505 4.516,-2.661c1.27,-1.155 2.263,-2.572 2.979,-4.248c0.716,-1.676 1.074,-3.556 1.074,-5.64c-0,-3.743 -1.213,-6.665 -3.638,-8.764c-2.425,-2.1 -5.932,-3.15 -10.522,-3.15l-11.231,0Z" style="fill-rule:nonzero;"/><path d="M976.637,1720.53l-37.109,0l-0,-70.02l35.547,0l-0,7.422l-27.344,0l-0,23.291l25.293,0l-0,7.373l-25.293,0l-0,24.512l28.906,0l0,7.422Z" style="fill-rule:nonzero;"/><path d="M494.191,1248.09l-8.203,0l-0,-31.934l-36.231,0l0,31.934l-8.203,0l0,-70.019l8.203,-0l0,30.712l36.231,0l-0,-30.712l8.203,-0l-0,70.019Z" style="fill-rule:nonzero;"/><path d="M558.058,1178.07l-23.096,44.14l0,25.879l-8.203,0l0,-25.684l-22.51,-44.335l9.327,-0l15.673,31.64c0.196,0.391 0.765,1.823 1.709,4.297l0.147,0c0.325,-1.107 0.944,-2.539 1.855,-4.297l16.407,-31.64l8.691,-0Z" style="fill-rule:nonzero;"/><path d="M576.027,1221.62l-0,26.465l-8.203,0l-0,-70.019l19.238,-0c7.487,-0 13.289,1.822 17.407,5.468c4.118,3.646 6.177,8.789 6.177,15.43c-0,6.641 -2.287,12.077 -6.861,16.309c-4.573,4.231 -10.75,6.347 -18.53,6.347l-9.228,0Zm-0,-36.133l-0,28.711l8.593,0c5.664,0 9.986,-1.294 12.964,-3.881c2.979,-2.588 4.468,-6.242 4.468,-10.962c0,-9.245 -5.469,-13.868 -16.406,-13.868l-9.619,0Z" style="fill-rule:nonzero;"/><path d="M660.939,1248.09l-37.11,0l0,-70.019l35.547,-0l0,7.421l-27.343,0l-0,23.291l25.293,0l-0,7.373l-25.293,0l-0,24.512l28.906,0l-0,7.422Z" style="fill-rule:nonzero;"/><path d="M724.611,1248.09l-9.766,0l-11.719,-19.629c-1.074,-1.823 -2.116,-3.377 -3.125,-4.663c-1.009,-1.286 -2.042,-2.336 -3.1,-3.149c-1.058,-0.814 -2.198,-1.408 -3.418,-1.783c-1.221,-0.374 -2.596,-0.561 -4.126,-0.561l-6.739,-0l0,29.785l-8.203,0l0,-70.019l20.899,-0c3.06,-0 5.884,0.382 8.471,1.147c2.588,0.765 4.834,1.929 6.739,3.491c1.904,1.563 3.393,3.508 4.468,5.835c1.074,2.328 1.611,5.054 1.611,8.179c-0,2.441 -0.366,4.679 -1.099,6.714c-0.732,2.034 -1.774,3.849 -3.125,5.444c-1.351,1.595 -2.978,2.954 -4.883,4.077c-1.904,1.123 -4.044,1.994 -6.42,2.613l-0,0.195c1.171,0.521 2.189,1.115 3.051,1.782c0.863,0.667 1.685,1.457 2.466,2.368c0.781,0.912 1.554,1.945 2.319,3.101c0.765,1.155 1.62,2.498 2.564,4.028l13.135,21.045Zm-41.993,-62.598l0,25.391l11.133,0c2.051,0 3.947,-0.309 5.689,-0.928c1.741,-0.618 3.247,-1.505 4.516,-2.661c1.27,-1.155 2.263,-2.571 2.979,-4.248c0.716,-1.676 1.074,-3.556 1.074,-5.64c0,-3.743 -1.212,-6.665 -3.638,-8.764c-2.425,-2.1 -5.932,-3.15 -10.522,-3.15l-11.231,0Z" style="fill-rule:nonzero;"/><path d="M786.281,1178.07l-25.928,70.019l-9.033,0l-25.391,-70.019l9.131,-0l19.385,55.517c0.618,1.79 1.09,3.858 1.416,6.201l0.195,0c0.26,-1.953 0.798,-4.052 1.611,-6.299l19.776,-55.419l8.838,-0Z" style="fill-rule:nonzero;"/><rect x="796.339" y="1178.07" width="8.203" height="70.02" style="fill-rule:nonzero;"/><path d="M819.679,1245.26l0,-9.668c1.107,0.977 2.433,1.856 3.98,2.637c1.546,0.781 3.173,1.44 4.882,1.977c1.709,0.537 3.426,0.952 5.152,1.245c1.725,0.293 3.32,0.44 4.785,0.44c5.045,-0 8.813,-0.936 11.304,-2.808c2.49,-1.871 3.735,-4.565 3.735,-8.081c-0,-1.888 -0.415,-3.532 -1.245,-4.931c-0.83,-1.4 -1.978,-2.678 -3.443,-3.833c-1.464,-1.156 -3.198,-2.263 -5.2,-3.321c-2.002,-1.058 -4.158,-2.173 -6.47,-3.344c-2.441,-1.237 -4.72,-2.491 -6.835,-3.76c-2.116,-1.27 -3.956,-2.67 -5.518,-4.199c-1.563,-1.53 -2.791,-3.264 -3.687,-5.201c-0.895,-1.936 -1.342,-4.207 -1.342,-6.811c-0,-3.19 0.7,-5.965 2.099,-8.325c1.4,-2.36 3.239,-4.305 5.518,-5.835c2.279,-1.53 4.875,-2.67 7.788,-3.418c2.913,-0.749 5.884,-1.123 8.911,-1.123c6.901,-0 11.93,0.83 15.088,2.49l-0,9.228c-4.134,-2.864 -9.44,-4.296 -15.918,-4.296c-1.79,-0 -3.581,0.187 -5.371,0.561c-1.79,0.374 -3.386,0.985 -4.785,1.831c-1.4,0.846 -2.539,1.937 -3.418,3.272c-0.879,1.334 -1.319,2.962 -1.319,4.882c0,1.791 0.334,3.337 1.001,4.639c0.668,1.302 1.652,2.49 2.955,3.565c1.302,1.074 2.889,2.115 4.76,3.125c1.872,1.009 4.029,2.115 6.47,3.32c2.506,1.237 4.883,2.539 7.129,3.906c2.246,1.367 4.215,2.881 5.908,4.541c1.693,1.66 3.036,3.499 4.028,5.518c0.993,2.018 1.49,4.329 1.49,6.933c-0,3.451 -0.676,6.372 -2.027,8.765c-1.351,2.393 -3.174,4.337 -5.468,5.835c-2.295,1.497 -4.94,2.58 -7.935,3.247c-2.995,0.667 -6.152,1.001 -9.473,1.001c-1.106,-0 -2.474,-0.09 -4.101,-0.269c-1.628,-0.179 -3.288,-0.439 -4.981,-0.781c-1.692,-0.342 -3.296,-0.765 -4.809,-1.269c-1.514,-0.505 -2.727,-1.066 -3.638,-1.685Z" style="fill-rule:nonzero;"/><path d="M904.298,1249.26c-9.928,-0 -17.879,-3.272 -23.852,-9.815c-5.974,-6.542 -8.96,-15.055 -8.96,-25.537c-0,-11.263 3.043,-20.247 9.131,-26.953c6.087,-6.705 14.371,-10.058 24.853,-10.058c9.668,-0 17.456,3.255 23.364,9.765c5.908,6.511 8.863,15.023 8.863,25.537c-0,11.426 -3.028,20.459 -9.082,27.1c-6.055,6.641 -14.161,9.961 -24.317,9.961Zm0.586,-64.941c-7.357,-0 -13.33,2.653 -17.92,7.959c-4.59,5.306 -6.885,12.272 -6.885,20.898c0,8.626 2.238,15.568 6.714,20.825c4.476,5.257 10.311,7.886 17.505,7.886c7.682,-0 13.737,-2.507 18.164,-7.52c4.427,-5.013 6.641,-12.028 6.641,-21.045c-0,-9.244 -2.149,-16.39 -6.445,-21.435c-4.297,-5.046 -10.222,-7.568 -17.774,-7.568Z" style="fill-rule:nonzero;"/><path d="M1001.66,1248.09l-9.765,0l-11.719,-19.629c-1.074,-1.823 -2.116,-3.377 -3.125,-4.663c-1.009,-1.286 -2.043,-2.336 -3.101,-3.149c-1.057,-0.814 -2.197,-1.408 -3.417,-1.783c-1.221,-0.374 -2.597,-0.561 -4.126,-0.561l-6.739,-0l0,29.785l-8.203,0l0,-70.019l20.899,-0c3.059,-0 5.883,0.382 8.471,1.147c2.588,0.765 4.834,1.929 6.739,3.491c1.904,1.563 3.393,3.508 4.467,5.835c1.075,2.328 1.612,5.054 1.612,8.179c-0,2.441 -0.367,4.679 -1.099,6.714c-0.732,2.034 -1.774,3.849 -3.125,5.444c-1.351,1.595 -2.979,2.954 -4.883,4.077c-1.904,1.123 -4.044,1.994 -6.421,2.613l0,0.195c1.172,0.521 2.189,1.115 3.052,1.782c0.863,0.667 1.685,1.457 2.466,2.368c0.781,0.912 1.554,1.945 2.319,3.101c0.765,1.155 1.62,2.498 2.564,4.028l13.134,21.045Zm-41.992,-62.598l0,25.391l11.133,0c2.051,0 3.947,-0.309 5.689,-0.928c1.741,-0.618 3.247,-1.505 4.516,-2.661c1.27,-1.155 2.263,-2.571 2.979,-4.248c0.716,-1.676 1.074,-3.556 1.074,-5.64c-0,-3.743 -1.213,-6.665 -3.638,-8.764c-2.425,-2.1 -5.932,-3.15 -10.522,-3.15l-11.231,0Z" style="fill-rule:nonzero;"/><path d="M203.101,705.608l-25.928,70.02l-9.033,-0l-25.391,-70.02l9.131,0l19.385,55.518c0.618,1.79 1.09,3.857 1.416,6.201l0.195,0c0.26,-1.953 0.797,-4.053 1.611,-6.299l19.776,-55.42l8.838,0Z" style="fill-rule:nonzero;"/><path d="M284.546,775.628l-8.154,-0l-0,-46.973c-0,-3.711 0.227,-8.252 0.683,-13.623l-0.195,0c-0.781,3.158 -1.481,5.42 -2.1,6.787l-23.926,53.809l-4.003,-0l-23.877,-53.418c-0.684,-1.563 -1.384,-3.955 -2.1,-7.178l-0.195,0c0.26,2.8 0.39,7.373 0.39,13.721l0,46.875l-7.91,-0l0,-70.02l10.84,0l21.484,48.828c1.661,3.744 2.735,6.543 3.223,8.399l0.293,-0c1.4,-3.841 2.523,-6.706 3.369,-8.594l21.924,-48.633l10.254,0l-0,70.02Z" style="fill-rule:nonzero;"/><path d="M329.126,775.628l-8.008,-0l0,-60.498c-0.618,0.618 -1.522,1.326 -2.71,2.124c-1.188,0.797 -2.523,1.587 -4.004,2.368c-1.481,0.781 -3.043,1.514 -4.687,2.197c-1.644,0.684 -3.247,1.221 -4.81,1.612l0,-8.106c1.758,-0.488 3.622,-1.147 5.591,-1.977c1.969,-0.831 3.906,-1.758 5.811,-2.784c1.904,-1.025 3.702,-2.099 5.395,-3.222c1.693,-1.123 3.158,-2.222 4.395,-3.296l3.027,-0l-0,71.582Z" style="fill-rule:nonzero;"/><path d="M675.563,705.608l-25.928,70.02l-9.033,-0l-25.391,-70.02l9.131,0l19.385,55.518c0.618,1.79 1.09,3.857 1.416,6.201l0.195,0c0.261,-1.953 0.798,-4.053 1.612,-6.299l19.775,-55.42l8.838,0Z" style="fill-rule:nonzero;"/><path d="M757.008,775.628l-8.154,-0l-0,-46.973c-0,-3.711 0.228,-8.252 0.683,-13.623l-0.195,0c-0.781,3.158 -1.481,5.42 -2.1,6.787l-23.925,53.809l-4.004,-0l-23.877,-53.418c-0.684,-1.563 -1.384,-3.955 -2.1,-7.178l-0.195,0c0.26,2.8 0.391,7.373 0.391,13.721l-0,46.875l-7.911,-0l0,-70.02l10.84,0l21.485,48.828c1.66,3.744 2.734,6.543 3.222,8.399l0.293,-0c1.4,-3.841 2.523,-6.706 3.369,-8.594l21.924,-48.633l10.254,0l0,70.02Z" style="fill-rule:nonzero;"/><path d="M803.932,723.968c-0,-2.149 -0.334,-4.021 -1.001,-5.616c-0.667,-1.595 -1.579,-2.921 -2.734,-3.979c-1.156,-1.058 -2.515,-1.847 -4.078,-2.368c-1.562,-0.521 -3.255,-0.781 -5.078,-0.781c-1.562,-0 -3.092,0.211 -4.59,0.634c-1.497,0.423 -2.954,1.009 -4.37,1.758c-1.416,0.749 -2.783,1.644 -4.101,2.686c-1.319,1.041 -2.547,2.197 -3.687,3.466l0,-8.593c2.246,-2.181 4.761,-3.85 7.544,-5.005c2.783,-1.156 6.177,-1.734 10.181,-1.734c2.864,0 5.517,0.415 7.959,1.246c2.441,0.83 4.557,2.042 6.348,3.637c1.79,1.595 3.198,3.565 4.223,5.908c1.026,2.344 1.538,5.03 1.538,8.057c0,2.767 -0.317,5.273 -0.952,7.52c-0.635,2.246 -1.595,4.362 -2.881,6.347c-1.286,1.986 -2.905,3.89 -4.858,5.713c-1.953,1.823 -4.248,3.679 -6.885,5.567c-3.288,2.343 -5.998,4.345 -8.13,6.005c-2.132,1.661 -3.825,3.215 -5.078,4.663c-1.253,1.449 -2.132,2.898 -2.637,4.346c-0.504,1.449 -0.756,3.117 -0.756,5.005l34.863,0l-0,7.178l-43.213,-0l-0,-3.467c-0,-2.995 0.325,-5.632 0.976,-7.91c0.652,-2.279 1.726,-4.444 3.223,-6.494c1.498,-2.051 3.459,-4.102 5.884,-6.153c2.425,-2.05 5.395,-4.362 8.911,-6.933c2.539,-1.823 4.663,-3.565 6.372,-5.225c1.709,-1.66 3.084,-3.32 4.126,-4.98c1.042,-1.66 1.782,-3.345 2.222,-5.054c0.439,-1.709 0.659,-3.524 0.659,-5.444Z" style="fill-rule:nonzero;"/><path d="M1146.68,705.608l-25.927,70.02l-9.034,-0l-25.39,-70.02l9.131,0l19.384,55.518c0.619,1.79 1.091,3.857 1.416,6.201l0.196,0c0.26,-1.953 0.797,-4.053 1.611,-6.299l19.775,-55.42l8.838,0Z" style="fill-rule:nonzero;"/><path d="M1228.13,775.628l-8.155,-0l0,-46.973c0,-3.711 0.228,-8.252 0.684,-13.623l-0.195,0c-0.782,3.158 -1.482,5.42 -2.1,6.787l-23.926,53.809l-4.004,-0l-23.877,-53.418c-0.683,-1.563 -1.383,-3.955 -2.099,-7.178l-0.196,0c0.261,2.8 0.391,7.373 0.391,13.721l0,46.875l-7.91,-0l-0,-70.02l10.84,0l21.484,48.828c1.66,3.744 2.734,6.543 3.223,8.399l0.293,-0c1.399,-3.841 2.523,-6.706 3.369,-8.594l21.924,-48.633l10.254,0l-0,70.02Z" style="fill-rule:nonzero;"/><path d="M1286.96,775.628l-8.007,-0l-0,-28.516c-0,-10.612 -3.874,-15.918 -11.621,-15.918c-4.004,0 -7.316,1.506 -9.937,4.517c-2.62,3.011 -3.931,6.811 -3.931,11.401l0,28.516l-8.007,-0l-0,-50l8.007,-0l0,8.301l0.196,-0c3.776,-6.316 9.245,-9.473 16.406,-9.473c5.469,-0 9.652,1.766 12.549,5.298c2.897,3.532 4.345,8.634 4.345,15.307l0,30.567Z" style="fill-rule:nonzero;"/><path d="M904.445,776.702c-1.497,0 -2.775,-0.537 -3.833,-1.611c-1.058,-1.075 -1.587,-2.36 -1.587,-3.858c0,-1.497 0.529,-2.791 1.587,-3.882c1.058,-1.09 2.336,-1.635 3.833,-1.635c1.53,-0 2.832,0.545 3.907,1.635c1.074,1.091 1.611,2.385 1.611,3.882c-0,1.498 -0.537,2.783 -1.611,3.858c-1.075,1.074 -2.377,1.611 -3.907,1.611Z" style="fill-rule:nonzero;"/><path d="M953.518,776.702c-1.498,0 -2.775,-0.537 -3.833,-1.611c-1.058,-1.075 -1.587,-2.36 -1.587,-3.858c-0,-1.497 0.529,-2.791 1.587,-3.882c1.058,-1.09 2.335,-1.635 3.833,-1.635c1.53,-0 2.832,0.545 3.906,1.635c1.074,1.091 1.611,2.385 1.611,3.882c0,1.498 -0.537,2.783 -1.611,3.858c-1.074,1.074 -2.376,1.611 -3.906,1.611Z" style="fill-rule:nonzero;"/><path d="M1002.59,776.702c-1.498,0 -2.775,-0.537 -3.833,-1.611c-1.058,-1.075 -1.587,-2.36 -1.587,-3.858c-0,-1.497 0.529,-2.791 1.587,-3.882c1.058,-1.09 2.335,-1.635 3.833,-1.635c1.53,-0 2.832,0.545 3.906,1.635c1.074,1.091 1.611,2.385 1.611,3.882c0,1.498 -0.537,2.783 -1.611,3.858c-1.074,1.074 -2.376,1.611 -3.906,1.611Z" style="fill-rule:nonzero;"/><g id="arrows"><path d="M616.186,1396.22l12.5,-37.5l12.5,37.5l-25,0Z"/><path d="M628.686,1535.88l-0,-147.165" style="fill:none;stroke:#000;stroke-width:8.33px;"/><path d="M793.29,1498.38l12.5,37.5l12.5,-37.5l-25,0Z"/><path d="M805.79,1505.88l-0,-147.165" style="fill:none;stroke:#000;stroke-width:8.33px;"/></g><g id="arrows1" serif:id="arrows"><path d="M143.714,923.775l12.5,-37.5l12.5,37.5l-25,0Z"/><path d="M156.214,1063.44l-0,-147.166" style="fill:none;stroke:#000;stroke-width:8.33px;"/><path d="M320.818,1025.94l12.5,37.5l12.5,-37.5l-25,-0Z"/><path d="M333.318,1033.44l0,-147.166" style="fill:none;stroke:#000;stroke-width:8.33px;"/></g><g id="arrows2" serif:id="arrows"><path d="M616.186,923.775l12.5,-37.5l12.5,37.5l-25,0Z"/><path d="M628.686,1063.44l-0,-147.166" style="fill:none;stroke:#000;stroke-width:8.33px;"/><path d="M793.29,1025.94l12.5,37.5l12.5,-37.5l-25,-0Z"/><path d="M805.79,1033.44l-0,-147.166" style="fill:none;stroke:#000;stroke-width:8.33px;"/></g><g id="arrows3" serif:id="arrows"><path d="M1088.65,923.775l12.5,-37.5l12.5,37.5l-25,0Z"/><path d="M1101.15,1063.44l-0,-147.166" style="fill:none;stroke:#000;stroke-width:8.33px;"/><path d="M1265.75,1025.94l12.5,37.5l12.5,-37.5l-25,-0Z"/><path d="M1278.25,1033.44l-0,-147.166" style="fill:none;stroke:#000;stroke-width:8.33px;"/></g><path d="M624,1976.85l-20.215,0l0,62.598l-8.203,-0l0,-62.598l-20.166,0l0,-7.422l48.584,0l0,7.422Z" style="fill-rule:nonzero;"/><path d="M668.19,1989.45l-22.998,58.008c-4.102,10.351 -9.864,15.527 -17.285,15.527c-2.084,0 -3.825,-0.211 -5.225,-0.635l-0,-7.177c1.725,0.586 3.304,0.879 4.736,0.879c4.037,-0 7.064,-2.409 9.082,-7.227l4.004,-9.473l-19.531,-49.902l8.887,-0l13.525,38.477c0.163,0.488 0.505,1.757 1.025,3.808l0.293,0c0.163,-0.781 0.489,-2.018 0.977,-3.711l14.209,-38.574l8.301,-0Z" style="fill-rule:nonzero;"/><path d="M684.987,2032.22l-0.196,0l0,30.225l-8.007,0l-0,-72.998l8.007,-0l0,8.789l0.196,0c3.938,-6.641 9.7,-9.961 17.285,-9.961c6.445,0 11.474,2.238 15.088,6.714c3.613,4.476 5.42,10.474 5.42,17.993c-0,8.366 -2.035,15.064 -6.104,20.093c-4.069,5.029 -9.635,7.544 -16.699,7.544c-6.478,-0 -11.475,-2.8 -14.99,-8.399Zm-0.196,-20.166l0,6.983c0,4.134 1.343,7.641 4.029,10.522c2.685,2.881 6.095,4.322 10.229,4.322c4.85,-0 8.651,-1.856 11.402,-5.567c2.75,-3.711 4.125,-8.87 4.125,-15.478c0,-5.567 -1.285,-9.929 -3.857,-13.086c-2.572,-3.158 -6.055,-4.737 -10.449,-4.737c-4.655,0 -8.399,1.62 -11.231,4.859c-2.832,3.239 -4.248,7.3 -4.248,12.182Z" style="fill-rule:nonzero;"/><path d="M775.758,2016.45l-35.303,-0c0.131,5.566 1.628,9.863 4.493,12.891c2.864,3.027 6.803,4.541 11.816,4.541c5.631,-0 10.807,-1.856 15.527,-5.567l0,7.52c-4.394,3.19 -10.205,4.785 -17.431,4.785c-7.064,-0 -12.614,-2.271 -16.651,-6.812c-4.036,-4.541 -6.054,-10.929 -6.054,-19.165c-0,-7.78 2.205,-14.119 6.616,-19.018c4.411,-4.899 9.888,-7.349 16.43,-7.349c6.543,0 11.605,2.116 15.186,6.348c3.581,4.232 5.371,10.107 5.371,17.627l0,4.199Zm-8.203,-6.787c-0.033,-4.623 -1.147,-8.22 -3.345,-10.791c-2.197,-2.572 -5.249,-3.858 -9.155,-3.858c-3.776,0 -6.982,1.351 -9.619,4.053c-2.637,2.702 -4.264,6.234 -4.883,10.596l27.002,-0Z" style="fill-rule:nonzero;"/><path d="M842.506,2039.45l-8.008,-0l0,-60.498c-0.618,0.618 -1.521,1.326 -2.71,2.124c-1.188,0.797 -2.522,1.587 -4.004,2.368c-1.481,0.781 -3.043,1.514 -4.687,2.197c-1.644,0.684 -3.247,1.221 -4.81,1.612l0,-8.106c1.758,-0.488 3.622,-1.147 5.591,-1.977c1.97,-0.83 3.906,-1.758 5.811,-2.784c1.904,-1.025 3.703,-2.099 5.395,-3.222c1.693,-1.123 3.158,-2.222 4.395,-3.296l3.027,-0l0,71.582Z" style="fill-rule:nonzero;"/><path d="M1396.37,594.979l0,1220.47c0,38.025 -30.872,68.897 -68.897,68.897l-1220.47,0c-38.025,0 -68.897,-30.872 -68.897,-68.897l-0,-1220.47c-0,-38.025 30.872,-68.897 68.897,-68.897l1220.47,-0c38.025,-0 68.897,30.872 68.897,68.897Z" style="fill:none;stroke:#000;stroke-width:4.17px;stroke-dasharray:8.33,16.67,0,0,0,0;"/></g><g id="Type2-HV"><rect x="1662.12" y="1565.41" width="1771.65" height="236.22" style="fill:none;stroke:#000;stroke-width:4.07px;"/><rect x="1662.12" y="620.527" width="1181.1" height="236.22" style="fill:none;stroke:#000;stroke-width:4.07px;"/><rect x="1662.12" y="148.086" width="236.178" height="236.178" style="fill:none;stroke:#000;stroke-width:4.07px;"/><rect x="2134.58" y="148.086" width="236.178" height="236.178" style="fill:none;stroke:#000;stroke-width:4.07px;"/><rect x="2607.04" y="148.086" width="236.178" height="236.178" style="fill:none;stroke:#000;stroke-width:4.07px;"/><path d="M2346.07,1720.53l-8.203,0l0,-31.934l-36.23,0l-0,31.934l-8.203,0l-0,-70.02l8.203,0l-0,30.713l36.23,0l0,-30.713l8.203,0l0,70.02Z" style="fill-rule:nonzero;"/><path d="M2418.62,1720.53l-9.082,0l-7.422,-19.629l-29.687,0l-6.983,19.629l-9.131,0l26.856,-70.02l8.496,0l26.953,70.02Zm-19.189,-27.002l-10.987,-29.834c-0.358,-0.976 -0.716,-2.539 -1.074,-4.687l-0.195,-0c-0.326,1.985 -0.7,3.548 -1.123,4.687l-10.889,29.834l24.268,0Z" style="fill-rule:nonzero;"/><path d="M2479.12,1720.53l-9.766,0l-11.718,-19.629c-1.075,-1.823 -2.116,-3.377 -3.125,-4.663c-1.009,-1.286 -2.043,-2.336 -3.101,-3.149c-1.058,-0.814 -2.197,-1.408 -3.418,-1.783c-1.221,-0.374 -2.596,-0.561 -4.126,-0.561l-6.738,-0l-0,29.785l-8.203,0l-0,-70.02l20.898,0c3.06,0 5.884,0.383 8.472,1.148c2.588,0.765 4.834,1.929 6.738,3.491c1.904,1.563 3.394,3.508 4.468,5.835c1.074,2.328 1.611,5.054 1.611,8.179c0,2.441 -0.366,4.679 -1.098,6.714c-0.733,2.034 -1.774,3.849 -3.125,5.444c-1.351,1.595 -2.979,2.954 -4.883,4.077c-1.905,1.123 -4.045,1.994 -6.421,2.612l-0,0.196c1.172,0.521 2.189,1.115 3.052,1.782c0.862,0.667 1.684,1.457 2.465,2.368c0.782,0.912 1.555,1.945 2.32,3.101c0.765,1.155 1.619,2.498 2.563,4.028l13.135,21.045Zm-41.992,-62.598l-0,25.391l11.133,-0c2.05,-0 3.947,-0.309 5.688,-0.928c1.742,-0.618 3.247,-1.505 4.517,-2.661c1.269,-1.155 2.262,-2.572 2.978,-4.248c0.716,-1.676 1.074,-3.556 1.074,-5.64c0,-3.743 -1.212,-6.665 -3.637,-8.764c-2.425,-2.1 -5.933,-3.15 -10.523,-3.15l-11.23,0Z" style="fill-rule:nonzero;"/><path d="M2488.74,1720.53l0,-70.02l19.336,0c24.675,0 37.012,11.377 37.012,34.131c-0,10.808 -3.426,19.491 -10.278,26.05c-6.853,6.559 -16.024,9.839 -27.515,9.839l-18.555,0Zm8.203,-62.598l0,55.176l10.45,0c9.179,0 16.324,-2.458 21.435,-7.373c5.111,-4.915 7.666,-11.881 7.666,-20.898c0,-17.937 -9.538,-26.905 -28.613,-26.905l-10.938,0Z" style="fill-rule:nonzero;"/><path d="M2639.43,1650.51l-19.776,70.02l-9.619,0l-14.404,-51.172c-0.619,-2.181 -0.993,-4.557 -1.123,-7.129l-0.195,0c-0.196,2.409 -0.619,4.753 -1.27,7.031l-14.502,51.27l-9.521,0l-20.508,-70.02l9.033,0l14.893,53.711c0.618,2.247 1.009,4.59 1.171,7.032l0.245,-0c0.162,-1.726 0.667,-4.069 1.513,-7.032l15.479,-53.711l7.861,0l14.844,54.102c0.521,1.856 0.911,4.036 1.172,6.543l0.195,0c0.13,-1.693 0.57,-3.939 1.318,-6.738l14.307,-53.907l8.887,0Z" style="fill-rule:nonzero;"/><path d="M2700.12,1720.53l-9.082,0l-7.422,-19.629l-29.687,0l-6.983,19.629l-9.131,0l26.856,-70.02l8.496,0l26.953,70.02Zm-19.189,-27.002l-10.987,-29.834c-0.358,-0.976 -0.716,-2.539 -1.074,-4.687l-0.195,-0c-0.326,1.985 -0.7,3.548 -1.123,4.687l-10.889,29.834l24.268,0Z" style="fill-rule:nonzero;"/><path d="M2760.62,1720.53l-9.765,0l-11.719,-19.629c-1.074,-1.823 -2.116,-3.377 -3.125,-4.663c-1.009,-1.286 -2.043,-2.336 -3.101,-3.149c-1.058,-0.814 -2.197,-1.408 -3.418,-1.783c-1.22,-0.374 -2.596,-0.561 -4.126,-0.561l-6.738,-0l-0,29.785l-8.203,0l-0,-70.02l20.898,0c3.06,0 5.884,0.383 8.472,1.148c2.588,0.765 4.834,1.929 6.738,3.491c1.905,1.563 3.394,3.508 4.468,5.835c1.074,2.328 1.611,5.054 1.611,8.179c0,2.441 -0.366,4.679 -1.098,6.714c-0.733,2.034 -1.774,3.849 -3.125,5.444c-1.351,1.595 -2.979,2.954 -4.883,4.077c-1.904,1.123 -4.045,1.994 -6.421,2.612l0,0.196c1.172,0.521 2.189,1.115 3.052,1.782c0.862,0.667 1.684,1.457 2.466,2.368c0.781,0.912 1.554,1.945 2.319,3.101c0.765,1.155 1.619,2.498 2.563,4.028l13.135,21.045Zm-41.992,-62.598l-0,25.391l11.133,-0c2.051,-0 3.947,-0.309 5.688,-0.928c1.742,-0.618 3.247,-1.505 4.517,-2.661c1.269,-1.155 2.262,-2.572 2.978,-4.248c0.717,-1.676 1.075,-3.556 1.075,-5.64c-0,-3.743 -1.213,-6.665 -3.638,-8.764c-2.425,-2.1 -5.933,-3.15 -10.523,-3.15l-11.23,0Z" style="fill-rule:nonzero;"/><path d="M2807.35,1720.53l-37.11,0l0,-70.02l35.547,0l0,7.422l-27.344,0l0,23.291l25.293,0l0,7.373l-25.293,0l0,24.512l28.907,0l-0,7.422Z" style="fill-rule:nonzero;"/><rect x="1662.12" y="1092.97" width="1771.65" height="236.22" style="fill:none;stroke:#000;stroke-width:4.07px;"/><path d="M2399.56,1248.09l-8.204,0l0,-31.934l-36.23,0l0,31.934l-8.203,0l-0,-70.019l8.203,-0l0,30.712l36.23,0l0,-30.712l8.204,-0l-0,70.019Z" style="fill-rule:nonzero;"/><path d="M2446.14,1249.26c-9.929,-0 -17.88,-3.272 -23.853,-9.815c-5.973,-6.542 -8.96,-15.055 -8.96,-25.537c0,-11.263 3.044,-20.247 9.131,-26.953c6.087,-6.705 14.372,-10.058 24.854,-10.058c9.667,-0 17.456,3.255 23.364,9.765c5.908,6.511 8.862,15.023 8.862,25.537c0,11.426 -3.027,20.459 -9.082,27.1c-6.055,6.641 -14.16,9.961 -24.316,9.961Zm0.586,-64.941c-7.357,-0 -13.331,2.653 -17.92,7.959c-4.59,5.306 -6.885,12.272 -6.885,20.898c-0,8.626 2.238,15.568 6.714,20.825c4.476,5.257 10.311,7.886 17.505,7.886c7.682,-0 13.737,-2.507 18.164,-7.52c4.427,-5.013 6.64,-12.028 6.64,-21.045c0,-9.244 -2.148,-16.39 -6.445,-21.435c-4.297,-5.046 -10.221,-7.568 -17.773,-7.568Z" style="fill-rule:nonzero;"/><path d="M2490.04,1245.26l0,-9.668c1.107,0.977 2.433,1.856 3.98,2.637c1.546,0.781 3.173,1.44 4.882,1.977c1.709,0.537 3.427,0.952 5.152,1.245c1.725,0.293 3.32,0.44 4.785,0.44c5.046,-0 8.813,-0.936 11.304,-2.808c2.49,-1.871 3.735,-4.565 3.735,-8.081c0,-1.888 -0.415,-3.532 -1.245,-4.931c-0.83,-1.4 -1.978,-2.678 -3.442,-3.833c-1.465,-1.156 -3.199,-2.263 -5.201,-3.321c-2.002,-1.058 -4.158,-2.173 -6.469,-3.344c-2.442,-1.237 -4.72,-2.491 -6.836,-3.76c-2.116,-1.27 -3.955,-2.67 -5.518,-4.199c-1.562,-1.53 -2.791,-3.264 -3.686,-5.201c-0.896,-1.936 -1.343,-4.207 -1.343,-6.811c-0,-3.19 0.7,-5.965 2.099,-8.325c1.4,-2.36 3.239,-4.305 5.518,-5.835c2.279,-1.53 4.875,-2.67 7.788,-3.418c2.913,-0.749 5.884,-1.123 8.911,-1.123c6.901,-0 11.931,0.83 15.088,2.49l0,9.228c-4.134,-2.864 -9.44,-4.296 -15.918,-4.296c-1.79,-0 -3.581,0.187 -5.371,0.561c-1.79,0.374 -3.385,0.985 -4.785,1.831c-1.4,0.846 -2.539,1.937 -3.418,3.272c-0.879,1.334 -1.318,2.962 -1.318,4.882c-0,1.791 0.333,3.337 1.001,4.639c0.667,1.302 1.652,2.49 2.954,3.565c1.302,1.074 2.889,2.115 4.76,3.125c1.872,1.009 4.029,2.115 6.47,3.32c2.507,1.237 4.883,2.539 7.129,3.906c2.246,1.367 4.215,2.881 5.908,4.541c1.693,1.66 3.036,3.499 4.029,5.518c0.992,2.018 1.489,4.329 1.489,6.933c-0,3.451 -0.676,6.372 -2.027,8.765c-1.351,2.393 -3.173,4.337 -5.468,5.835c-2.295,1.497 -4.94,2.58 -7.935,3.247c-2.995,0.667 -6.152,1.001 -9.473,1.001c-1.106,-0 -2.474,-0.09 -4.101,-0.269c-1.628,-0.179 -3.288,-0.439 -4.981,-0.781c-1.692,-0.342 -3.296,-0.765 -4.809,-1.269c-1.514,-0.505 -2.726,-1.066 -3.638,-1.685Z" style="fill-rule:nonzero;"/><path d="M2587.84,1185.49l-20.215,0l0,62.598l-8.203,0l-0,-62.598l-20.166,0l-0,-7.421l48.584,-0l-0,7.421Z" style="fill-rule:nonzero;"/><rect x="2596.68" y="1217.08" width="26.66" height="6.299" style="fill-rule:nonzero;"/><path d="M2667.04,1249.26c-9.928,-0 -17.879,-3.272 -23.852,-9.815c-5.974,-6.542 -8.96,-15.055 -8.96,-25.537c-0,-11.263 3.043,-20.247 9.13,-26.953c6.088,-6.705 14.372,-10.058 24.854,-10.058c9.668,-0 17.456,3.255 23.364,9.765c5.908,6.511 8.863,15.023 8.863,25.537c-0,11.426 -3.028,20.459 -9.083,27.1c-6.054,6.641 -14.16,9.961 -24.316,9.961Zm0.586,-64.941c-7.357,-0 -13.33,2.653 -17.92,7.959c-4.59,5.306 -6.885,12.272 -6.885,20.898c0,8.626 2.238,15.568 6.714,20.825c4.476,5.257 10.311,7.886 17.505,7.886c7.682,-0 13.737,-2.507 18.164,-7.52c4.427,-5.013 6.641,-12.028 6.641,-21.045c-0,-9.244 -2.149,-16.39 -6.446,-21.435c-4.296,-5.046 -10.221,-7.568 -17.773,-7.568Z" style="fill-rule:nonzero;"/><path d="M2710.93,1245.26l-0,-9.668c1.106,0.977 2.433,1.856 3.979,2.637c1.546,0.781 3.174,1.44 4.883,1.977c1.709,0.537 3.426,0.952 5.151,1.245c1.725,0.293 3.321,0.44 4.785,0.44c5.046,-0 8.814,-0.936 11.304,-2.808c2.49,-1.871 3.735,-4.565 3.735,-8.081c0,-1.888 -0.415,-3.532 -1.245,-4.931c-0.83,-1.4 -1.977,-2.678 -3.442,-3.833c-1.465,-1.156 -3.198,-2.263 -5.2,-3.321c-2.002,-1.058 -4.159,-2.173 -6.47,-3.344c-2.441,-1.237 -4.72,-2.491 -6.836,-3.76c-2.116,-1.27 -3.955,-2.67 -5.517,-4.199c-1.563,-1.53 -2.792,-3.264 -3.687,-5.201c-0.895,-1.936 -1.343,-4.207 -1.343,-6.811c0,-3.19 0.7,-5.965 2.1,-8.325c1.4,-2.36 3.239,-4.305 5.517,-5.835c2.279,-1.53 4.875,-2.67 7.788,-3.418c2.914,-0.749 5.884,-1.123 8.912,-1.123c6.901,-0 11.93,0.83 15.088,2.49l-0,9.228c-4.135,-2.864 -9.441,-4.296 -15.918,-4.296c-1.791,-0 -3.581,0.187 -5.372,0.561c-1.79,0.374 -3.385,0.985 -4.785,1.831c-1.399,0.846 -2.539,1.937 -3.418,3.272c-0.879,1.334 -1.318,2.962 -1.318,4.882c-0,1.791 0.334,3.337 1.001,4.639c0.667,1.302 1.652,2.49 2.954,3.565c1.302,1.074 2.889,2.115 4.761,3.125c1.872,1.009 4.028,2.115 6.47,3.32c2.506,1.237 4.882,2.539 7.128,3.906c2.247,1.367 4.216,2.881 5.909,4.541c1.692,1.66 3.035,3.499 4.028,5.518c0.993,2.018 1.489,4.329 1.489,6.933c0,3.451 -0.675,6.372 -2.026,8.765c-1.351,2.393 -3.174,4.337 -5.469,5.835c-2.295,1.497 -4.94,2.58 -7.934,3.247c-2.995,0.667 -6.153,1.001 -9.473,1.001c-1.107,-0 -2.474,-0.09 -4.102,-0.269c-1.627,-0.179 -3.287,-0.439 -4.98,-0.781c-1.693,-0.342 -3.296,-0.765 -4.81,-1.269c-1.513,-0.505 -2.726,-1.066 -3.637,-1.685Z" style="fill-rule:nonzero;"/><path d="M2029.62,775.649l-8.203,0l-0,-31.933l-36.231,-0l0,31.933l-8.203,0l0,-70.019l8.203,-0l0,30.712l36.231,0l-0,-30.712l8.203,-0l-0,70.019Z" style="fill-rule:nonzero;"/><path d="M2093.49,705.63l-23.096,44.14l0,25.879l-8.203,0l0,-25.683l-22.51,-44.336l9.327,-0l15.673,31.64c0.196,0.391 0.765,1.823 1.709,4.297l0.147,0c0.325,-1.107 0.944,-2.539 1.855,-4.297l16.407,-31.64l8.691,-0Z" style="fill-rule:nonzero;"/><path d="M2111.46,749.184l-0,26.465l-8.203,0l-0,-70.019l19.238,-0c7.487,-0 13.289,1.823 17.407,5.468c4.118,3.646 6.177,8.789 6.177,15.43c-0,6.641 -2.287,12.077 -6.86,16.309c-4.574,4.231 -10.751,6.347 -18.531,6.347l-9.228,0Zm-0,-36.133l-0,28.711l8.593,0c5.665,0 9.986,-1.294 12.964,-3.881c2.979,-2.588 4.468,-6.242 4.468,-10.962c0,-9.245 -5.469,-13.868 -16.406,-13.868l-9.619,0Z" style="fill-rule:nonzero;"/><path d="M2196.37,775.649l-37.11,0l0,-70.019l35.547,-0l0,7.421l-27.343,0l-0,23.291l25.293,0l-0,7.374l-25.293,-0l-0,24.511l28.906,0l-0,7.422Z" style="fill-rule:nonzero;"/><path d="M2260.04,775.649l-9.766,0l-11.719,-19.629c-1.074,-1.823 -2.116,-3.377 -3.125,-4.663c-1.009,-1.286 -2.042,-2.335 -3.1,-3.149c-1.058,-0.814 -2.197,-1.408 -3.418,-1.783c-1.221,-0.374 -2.596,-0.561 -4.126,-0.561l-6.738,-0l-0,29.785l-8.204,0l0,-70.019l20.899,-0c3.06,-0 5.884,0.382 8.472,1.147c2.587,0.765 4.834,1.929 6.738,3.491c1.904,1.563 3.393,3.508 4.468,5.835c1.074,2.328 1.611,5.054 1.611,8.179c-0,2.441 -0.366,4.679 -1.099,6.714c-0.732,2.034 -1.774,3.849 -3.125,5.444c-1.351,1.595 -2.978,2.954 -4.883,4.077c-1.904,1.123 -4.044,1.994 -6.42,2.613l-0,0.195c1.171,0.521 2.189,1.115 3.051,1.782c0.863,0.667 1.685,1.457 2.466,2.368c0.781,0.912 1.555,1.945 2.319,3.101c0.765,1.155 1.62,2.498 2.564,4.028l13.135,21.045Zm-41.992,-62.598l-0,25.391l11.132,0c2.051,0 3.947,-0.309 5.689,-0.928c1.741,-0.618 3.247,-1.505 4.516,-2.661c1.27,-1.155 2.263,-2.571 2.979,-4.248c0.716,-1.676 1.074,-3.556 1.074,-5.639c0,-3.744 -1.212,-6.666 -3.638,-8.765c-2.425,-2.1 -5.932,-3.15 -10.522,-3.15l-11.23,0Z" style="fill-rule:nonzero;"/><path d="M2321.71,705.63l-25.928,70.019l-9.033,0l-25.391,-70.019l9.131,-0l19.385,55.517c0.618,1.791 1.09,3.858 1.416,6.201l0.195,0c0.26,-1.953 0.798,-4.052 1.611,-6.298l19.776,-55.42l8.838,-0Z" style="fill-rule:nonzero;"/><rect x="2331.77" y="705.63" width="8.203" height="70.02" style="fill-rule:nonzero;"/><path d="M2355.11,772.817l0,-9.668c1.107,0.977 2.433,1.856 3.98,2.637c1.546,0.781 3.173,1.44 4.882,1.977c1.709,0.537 3.427,0.953 5.152,1.245c1.725,0.293 3.32,0.44 4.785,0.44c5.045,-0 8.813,-0.936 11.304,-2.808c2.49,-1.871 3.735,-4.565 3.735,-8.081c-0,-1.888 -0.415,-3.532 -1.245,-4.931c-0.83,-1.4 -1.978,-2.678 -3.443,-3.833c-1.464,-1.156 -3.198,-2.263 -5.2,-3.321c-2.002,-1.058 -4.158,-2.173 -6.469,-3.344c-2.442,-1.237 -4.72,-2.491 -6.836,-3.76c-2.116,-1.27 -3.955,-2.669 -5.518,-4.199c-1.562,-1.53 -2.791,-3.264 -3.686,-5.201c-0.896,-1.936 -1.343,-4.207 -1.343,-6.811c-0,-3.19 0.7,-5.965 2.099,-8.325c1.4,-2.36 3.239,-4.305 5.518,-5.835c2.279,-1.53 4.875,-2.67 7.788,-3.418c2.913,-0.749 5.884,-1.123 8.911,-1.123c6.901,-0 11.93,0.83 15.088,2.49l0,9.228c-4.134,-2.864 -9.44,-4.296 -15.918,-4.296c-1.79,-0 -3.581,0.187 -5.371,0.561c-1.79,0.374 -3.385,0.985 -4.785,1.831c-1.4,0.847 -2.539,1.937 -3.418,3.272c-0.879,1.334 -1.319,2.962 -1.319,4.882c0,1.791 0.334,3.337 1.001,4.639c0.668,1.302 1.652,2.49 2.955,3.565c1.302,1.074 2.889,2.115 4.76,3.125c1.872,1.009 4.029,2.115 6.47,3.32c2.507,1.237 4.883,2.539 7.129,3.906c2.246,1.367 4.215,2.881 5.908,4.541c1.693,1.66 3.036,3.5 4.028,5.518c0.993,2.018 1.49,4.329 1.49,6.933c-0,3.451 -0.676,6.372 -2.027,8.765c-1.351,2.393 -3.173,4.338 -5.468,5.835c-2.295,1.497 -4.94,2.58 -7.935,3.247c-2.995,0.667 -6.152,1.001 -9.473,1.001c-1.106,-0 -2.474,-0.09 -4.101,-0.269c-1.628,-0.179 -3.288,-0.439 -4.981,-0.781c-1.692,-0.342 -3.296,-0.765 -4.809,-1.269c-1.514,-0.505 -2.726,-1.066 -3.638,-1.685Z" style="fill-rule:nonzero;"/><path d="M2439.73,776.821c-9.928,-0 -17.879,-3.271 -23.852,-9.814c-5.974,-6.543 -8.96,-15.056 -8.96,-25.538c-0,-11.263 3.043,-20.247 9.131,-26.953c6.087,-6.705 14.371,-10.058 24.853,-10.058c9.668,-0 17.456,3.255 23.364,9.765c5.909,6.511 8.863,15.023 8.863,25.537c-0,11.426 -3.028,20.459 -9.082,27.1c-6.055,6.641 -14.161,9.961 -24.317,9.961Zm0.586,-64.941c-7.357,-0 -13.33,2.653 -17.92,7.959c-4.59,5.306 -6.885,12.272 -6.885,20.898c0,8.626 2.238,15.568 6.714,20.825c4.476,5.257 10.311,7.886 17.505,7.886c7.683,-0 13.737,-2.507 18.164,-7.52c4.427,-5.013 6.641,-12.028 6.641,-21.045c-0,-9.244 -2.149,-16.389 -6.445,-21.435c-4.297,-5.046 -10.222,-7.568 -17.774,-7.568Z" style="fill-rule:nonzero;"/><path d="M2537.1,775.649l-9.766,0l-11.719,-19.629c-1.074,-1.823 -2.116,-3.377 -3.125,-4.663c-1.009,-1.286 -2.043,-2.335 -3.1,-3.149c-1.058,-0.814 -2.198,-1.408 -3.418,-1.783c-1.221,-0.374 -2.596,-0.561 -4.126,-0.561l-6.739,-0l0,29.785l-8.203,0l0,-70.019l20.899,-0c3.06,-0 5.883,0.382 8.471,1.147c2.588,0.765 4.834,1.929 6.739,3.491c1.904,1.563 3.393,3.508 4.467,5.835c1.075,2.328 1.612,5.054 1.612,8.179c-0,2.441 -0.367,4.679 -1.099,6.714c-0.732,2.034 -1.774,3.849 -3.125,5.444c-1.351,1.595 -2.978,2.954 -4.883,4.077c-1.904,1.123 -4.044,1.994 -6.421,2.613l0,0.195c1.172,0.521 2.189,1.115 3.052,1.782c0.863,0.667 1.685,1.457 2.466,2.368c0.781,0.912 1.554,1.945 2.319,3.101c0.765,1.155 1.62,2.498 2.564,4.028l13.135,21.045Zm-41.993,-62.598l0,25.391l11.133,0c2.051,0 3.947,-0.309 5.689,-0.928c1.741,-0.618 3.247,-1.505 4.516,-2.661c1.27,-1.155 2.263,-2.571 2.979,-4.248c0.716,-1.676 1.074,-3.556 1.074,-5.639c-0,-3.744 -1.213,-6.666 -3.638,-8.765c-2.425,-2.1 -5.932,-3.15 -10.522,-3.15l-11.231,0Z" style="fill-rule:nonzero;"/><path d="M1738.53,233.167l-25.928,70.02l-9.033,-0l-25.391,-70.02l9.131,0l19.385,55.518c0.618,1.79 1.09,3.857 1.416,6.201l0.195,0c0.26,-1.953 0.798,-4.053 1.611,-6.299l19.776,-55.42l8.838,0Z" style="fill-rule:nonzero;"/><path d="M1819.98,303.187l-8.154,-0l-0,-46.973c-0,-3.711 0.228,-8.252 0.683,-13.623l-0.195,0c-0.781,3.158 -1.481,5.42 -2.1,6.787l-23.925,53.809l-4.004,-0l-23.877,-53.418c-0.684,-1.563 -1.384,-3.955 -2.1,-7.178l-0.195,0c0.26,2.8 0.39,7.373 0.39,13.721l0,46.875l-7.91,-0l0,-70.02l10.84,0l21.484,48.828c1.661,3.744 2.735,6.543 3.223,8.399l0.293,-0c1.4,-3.841 2.523,-6.706 3.369,-8.594l21.924,-48.633l10.254,0l-0,70.02Z" style="fill-rule:nonzero;"/><path d="M1864.56,303.187l-8.008,-0l0,-60.498c-0.618,0.618 -1.522,1.326 -2.71,2.124c-1.188,0.797 -2.523,1.587 -4.004,2.368c-1.481,0.781 -3.043,1.514 -4.687,2.197c-1.644,0.684 -3.247,1.221 -4.81,1.612l0,-8.106c1.758,-0.488 3.622,-1.147 5.591,-1.977c1.969,-0.83 3.906,-1.758 5.811,-2.784c1.904,-1.025 3.702,-2.099 5.395,-3.222c1.693,-1.123 3.158,-2.222 4.395,-3.296l3.027,-0l0,71.582Z" style="fill-rule:nonzero;"/><path d="M2211,233.167l-25.928,70.02l-9.033,-0l-25.391,-70.02l9.131,0l19.385,55.518c0.618,1.79 1.09,3.857 1.416,6.201l0.195,0c0.261,-1.953 0.798,-4.053 1.612,-6.299l19.775,-55.42l8.838,0Z" style="fill-rule:nonzero;"/><path d="M2292.44,303.187l-8.154,-0l-0,-46.973c-0,-3.711 0.228,-8.252 0.683,-13.623l-0.195,0c-0.781,3.158 -1.481,5.42 -2.099,6.787l-23.926,53.809l-4.004,-0l-23.877,-53.418c-0.684,-1.563 -1.384,-3.955 -2.1,-7.178l-0.195,0c0.26,2.8 0.391,7.373 0.391,13.721l-0,46.875l-7.911,-0l0,-70.02l10.84,0l21.485,48.828c1.66,3.744 2.734,6.543 3.222,8.399l0.293,-0c1.4,-3.841 2.523,-6.706 3.369,-8.594l21.924,-48.633l10.254,0l0,70.02Z" style="fill-rule:nonzero;"/><path d="M2339.37,251.527c0,-2.149 -0.334,-4.02 -1.001,-5.616c-0.667,-1.595 -1.579,-2.921 -2.734,-3.979c-1.156,-1.058 -2.515,-1.847 -4.077,-2.368c-1.563,-0.521 -3.256,-0.781 -5.079,-0.781c-1.562,-0 -3.092,0.211 -4.589,0.634c-1.498,0.424 -2.955,1.009 -4.371,1.758c-1.416,0.749 -2.783,1.644 -4.101,2.686c-1.318,1.041 -2.547,2.197 -3.687,3.466l0,-8.593c2.246,-2.181 4.761,-3.85 7.544,-5.005c2.783,-1.156 6.177,-1.734 10.181,-1.734c2.865,0 5.518,0.415 7.959,1.246c2.441,0.83 4.557,2.042 6.348,3.637c1.79,1.595 3.198,3.565 4.223,5.908c1.026,2.344 1.538,5.03 1.538,8.057c0,2.767 -0.317,5.274 -0.952,7.52c-0.635,2.246 -1.595,4.362 -2.881,6.347c-1.285,1.986 -2.905,3.89 -4.858,5.713c-1.953,1.823 -4.248,3.679 -6.885,5.567c-3.288,2.343 -5.998,4.345 -8.13,6.005c-2.132,1.661 -3.825,3.215 -5.078,4.664c-1.253,1.448 -2.132,2.897 -2.637,4.345c-0.504,1.449 -0.756,3.117 -0.756,5.005l34.863,0l-0,7.178l-43.213,-0l-0,-3.467c-0,-2.995 0.325,-5.631 0.977,-7.91c0.651,-2.279 1.725,-4.443 3.222,-6.494c1.498,-2.051 3.459,-4.102 5.884,-6.153c2.425,-2.05 5.395,-4.362 8.911,-6.933c2.539,-1.823 4.663,-3.565 6.372,-5.225c1.709,-1.66 3.084,-3.32 4.126,-4.98c1.042,-1.66 1.782,-3.345 2.222,-5.054c0.439,-1.709 0.659,-3.524 0.659,-5.444Z" style="fill-rule:nonzero;"/><path d="M2682.12,233.167l-25.927,70.02l-9.034,-0l-25.39,-70.02l9.131,0l19.384,55.518c0.619,1.79 1.091,3.857 1.416,6.201l0.196,0c0.26,-1.953 0.797,-4.053 1.611,-6.299l19.775,-55.42l8.838,0Z" style="fill-rule:nonzero;"/><path d="M2763.56,303.187l-8.155,-0l0,-46.973c0,-3.711 0.228,-8.252 0.684,-13.623l-0.195,0c-0.782,3.158 -1.481,5.42 -2.1,6.787l-23.926,53.809l-4.004,-0l-23.877,-53.418c-0.683,-1.563 -1.383,-3.955 -2.099,-7.178l-0.196,0c0.261,2.8 0.391,7.373 0.391,13.721l0,46.875l-7.91,-0l-0,-70.02l10.84,0l21.484,48.828c1.66,3.744 2.735,6.543 3.223,8.399l0.293,-0c1.4,-3.841 2.523,-6.706 3.369,-8.594l21.924,-48.633l10.254,0l-0,70.02Z" style="fill-rule:nonzero;"/><path d="M2822.4,303.187l-8.008,-0l-0,-28.516c-0,-10.612 -3.874,-15.918 -11.621,-15.918c-4.004,0 -7.316,1.506 -9.937,4.517c-2.62,3.011 -3.931,6.811 -3.931,11.401l0,28.516l-8.007,-0l-0,-50l8.007,-0l0,8.301l0.196,-0c3.776,-6.315 9.245,-9.473 16.406,-9.473c5.469,-0 9.652,1.766 12.549,5.298c2.897,3.532 4.346,8.634 4.346,15.307l-0,30.567Z" style="fill-rule:nonzero;"/><path d="M2439.88,304.261c-1.497,0 -2.775,-0.537 -3.833,-1.611c-1.058,-1.074 -1.587,-2.36 -1.587,-3.858c0,-1.497 0.529,-2.791 1.587,-3.882c1.058,-1.09 2.336,-1.635 3.833,-1.635c1.53,-0 2.832,0.545 3.907,1.635c1.074,1.091 1.611,2.385 1.611,3.882c-0,1.498 -0.537,2.784 -1.611,3.858c-1.075,1.074 -2.377,1.611 -3.907,1.611Z" style="fill-rule:nonzero;"/><path d="M2488.95,304.261c-1.498,0 -2.775,-0.537 -3.833,-1.611c-1.058,-1.074 -1.587,-2.36 -1.587,-3.858c-0,-1.497 0.529,-2.791 1.587,-3.882c1.058,-1.09 2.335,-1.635 3.833,-1.635c1.53,-0 2.832,0.545 3.906,1.635c1.074,1.091 1.611,2.385 1.611,3.882c0,1.498 -0.537,2.784 -1.611,3.858c-1.074,1.074 -2.376,1.611 -3.906,1.611Z" style="fill-rule:nonzero;"/><path d="M2538.02,304.261c-1.497,0 -2.775,-0.537 -3.833,-1.611c-1.058,-1.074 -1.587,-2.36 -1.587,-3.858c-0,-1.497 0.529,-2.791 1.587,-3.882c1.058,-1.09 2.336,-1.635 3.833,-1.635c1.53,-0 2.832,0.545 3.906,1.635c1.074,1.091 1.611,2.385 1.611,3.882c0,1.498 -0.537,2.784 -1.611,3.858c-1.074,1.074 -2.376,1.611 -3.906,1.611Z" style="fill-rule:nonzero;"/><g id="arrows4" serif:id="arrows"><path d="M2505.99,1396.22l12.5,-37.5l12.5,37.5l-25,0Z"/><path d="M2518.49,1535.88l-0,-147.165" style="fill:none;stroke:#000;stroke-width:8.33px;"/><path d="M2683.1,1498.38l12.5,37.5l12.5,-37.5l-25,0Z"/><path d="M2695.6,1505.88l0,-147.165" style="fill:none;stroke:#000;stroke-width:8.33px;"/></g><g id="arrows5" serif:id="arrows"><path d="M2151.62,923.775l12.5,-37.5l12.5,37.5l-25,0Z"/><path d="M2164.12,1063.44l-0,-147.166" style="fill:none;stroke:#000;stroke-width:8.33px;"/><path d="M2328.72,1025.94l12.5,37.5l12.5,-37.5l-25,-0Z"/><path d="M2341.22,1033.44l-0,-147.166" style="fill:none;stroke:#000;stroke-width:8.33px;"/></g><g id="arrows6" serif:id="arrows"><path d="M3155.56,923.775l12.5,-37.5l12.5,37.5l-25,0Z"/><path d="M3168.06,1063.44l-0,-147.166" style="fill:none;stroke:#000;stroke-width:8.33px;"/><path d="M3332.67,1025.94l12.5,37.5l12.5,-37.5l-25,-0Z"/><path d="M3345.17,1033.44l0,-147.166" style="fill:none;stroke:#000;stroke-width:8.33px;"/></g><g id="arrows7" serif:id="arrows"><path d="M1679.15,451.334l12.5,-37.5l12.5,37.5l-25,0Z"/><path d="M1691.65,591l0,-147.166" style="fill:none;stroke:#000;stroke-width:8.33px;"/><path d="M1856.25,553.5l12.5,37.5l12.5,-37.5l-25,-0Z"/><path d="M1868.75,561l0,-147.166" style="fill:none;stroke:#000;stroke-width:8.33px;"/></g><g id="arrows8" serif:id="arrows"><path d="M2151.62,451.334l12.5,-37.5l12.5,37.5l-25,0Z"/><path d="M2164.12,591l-0,-147.166" style="fill:none;stroke:#000;stroke-width:8.33px;"/><path d="M2328.72,553.5l12.5,37.5l12.5,-37.5l-25,-0Z"/><path d="M2341.22,561l-0,-147.166" style="fill:none;stroke:#000;stroke-width:8.33px;"/></g><g id="arrows9" serif:id="arrows"><path d="M2624.08,451.334l12.5,-37.5l12.5,37.5l-25,0Z"/><path d="M2636.58,591l-0,-147.166" style="fill:none;stroke:#000;stroke-width:8.33px;"/><path d="M2801.18,553.5l12.5,37.5l12.5,-37.5l-25,-0Z"/><path d="M2813.68,561l0,-147.166" style="fill:none;stroke:#000;stroke-width:8.33px;"/></g><rect x="3079.44" y="620.527" width="354.331" height="236.22" style="fill:none;stroke:#000;stroke-width:4.17px;"/><g transform="matrix(1,0,0,1,-607.133,-952.089)"><g transform="matrix(100,0,0,100,3711.4,1673.57)"><path d="M0.374,0.012c-0.099,-0 -0.179,-0.033 -0.239,-0.098c-0.059,-0.066 -0.089,-0.151 -0.089,-0.256c-0,-0.112 0.03,-0.202 0.091,-0.269c0.061,-0.067 0.144,-0.101 0.249,-0.101c0.096,0 0.174,0.033 0.233,0.098c0.059,0.065 0.089,0.15 0.089,0.255c0,0.114 -0.03,0.205 -0.091,0.271c-0.06,0.067 -0.141,0.1 -0.243,0.1Zm0.006,-0.65c-0.074,0 -0.133,0.027 -0.179,0.08c-0.046,0.053 -0.069,0.123 -0.069,0.209c-0,0.086 0.022,0.156 0.067,0.208c0.045,0.053 0.103,0.079 0.175,0.079c0.077,-0 0.137,-0.025 0.182,-0.075c0.044,-0.05 0.066,-0.12 0.066,-0.211c0,-0.092 -0.021,-0.164 -0.064,-0.214c-0.043,-0.05 -0.103,-0.076 -0.178,-0.076Z" style="fill-rule:nonzero;"/></g><g transform="matrix(100,0,0,100,3782.3,1673.57)"><path d="M0.506,-0.626l-0.202,0l-0,0.626l-0.082,-0l-0,-0.626l-0.202,0l0,-0.074l0.486,-0l-0,0.074Z" style="fill-rule:nonzero;"/></g><g transform="matrix(100,0,0,100,3834.69,1673.57)"><path d="M0.618,-0l-0.082,-0l0,-0.319l-0.362,-0l-0,0.319l-0.082,-0l-0,-0.7l0.082,-0l-0,0.307l0.362,-0l0,-0.307l0.082,-0l0,0.7Z" style="fill-rule:nonzero;"/></g><g transform="matrix(100,0,0,100,3905.68,1673.57)"><path d="M0.463,-0l-0.371,-0l-0,-0.7l0.355,-0l0,0.074l-0.273,0l-0,0.233l0.253,-0l-0,0.074l-0.253,-0l-0,0.245l0.289,-0l-0,0.074Z" style="fill-rule:nonzero;"/></g><g transform="matrix(100,0,0,100,3956.27,1673.57)"><path d="M0.594,-0l-0.098,-0l-0.117,-0.196c-0.011,-0.019 -0.021,-0.034 -0.031,-0.047c-0.01,-0.013 -0.021,-0.023 -0.031,-0.031c-0.011,-0.009 -0.022,-0.014 -0.035,-0.018c-0.012,-0.004 -0.025,-0.006 -0.041,-0.006l-0.067,0l-0,0.298l-0.082,0l-0,-0.7l0.209,-0c0.03,-0 0.059,0.004 0.084,0.011c0.026,0.008 0.049,0.02 0.068,0.035c0.019,0.016 0.034,0.035 0.045,0.059c0.01,0.023 0.016,0.05 0.016,0.081c-0,0.025 -0.004,0.047 -0.011,0.067c-0.008,0.021 -0.018,0.039 -0.032,0.055c-0.013,0.016 -0.029,0.029 -0.048,0.041c-0.019,0.011 -0.041,0.02 -0.065,0.026l0,0.002c0.012,0.005 0.022,0.011 0.031,0.018c0.009,0.006 0.017,0.014 0.025,0.023c0.007,0.009 0.015,0.02 0.023,0.031c0.007,0.012 0.016,0.025 0.025,0.041l0.132,0.21Zm-0.42,-0.626l-0,0.254l0.111,-0c0.021,-0 0.04,-0.003 0.057,-0.009c0.017,-0.007 0.033,-0.015 0.045,-0.027c0.013,-0.012 0.023,-0.026 0.03,-0.042c0.007,-0.017 0.011,-0.036 0.011,-0.057c-0,-0.037 -0.012,-0.066 -0.037,-0.087c-0.024,-0.021 -0.059,-0.032 -0.105,-0.032l-0.112,0Z" style="fill-rule:nonzero;"/></g><g transform="matrix(100,0,0,100,3748.92,1781.9)"><path d="M0.634,-0l-0.091,-0l-0.074,-0.196l-0.297,-0l-0.07,0.196l-0.091,-0l0.268,-0.7l0.085,-0l0.27,0.7Zm-0.192,-0.27l-0.11,-0.298c-0.004,-0.01 -0.007,-0.026 -0.011,-0.047l-0.002,-0c-0.003,0.02 -0.007,0.035 -0.011,0.047l-0.109,0.298l0.243,-0Z" style="fill-rule:nonzero;"/></g><g transform="matrix(100,0,0,100,3813.42,1781.9)"><path d="M0.174,-0.265l-0,0.265l-0.082,-0l-0,-0.7l0.192,-0c0.075,-0 0.133,0.018 0.174,0.054c0.041,0.037 0.062,0.088 0.062,0.155c0,0.066 -0.023,0.121 -0.069,0.163c-0.045,0.042 -0.107,0.063 -0.185,0.063l-0.092,0Zm-0,-0.361l-0,0.287l0.086,0c0.056,0 0.1,-0.013 0.129,-0.039c0.03,-0.026 0.045,-0.062 0.045,-0.109c0,-0.093 -0.055,-0.139 -0.164,-0.139l-0.096,0Z" style="fill-rule:nonzero;"/></g><g transform="matrix(100,0,0,100,3869.43,1781.9)"><path d="M0.174,-0.265l-0,0.265l-0.082,-0l-0,-0.7l0.192,-0c0.075,-0 0.133,0.018 0.174,0.054c0.041,0.037 0.062,0.088 0.062,0.155c0,0.066 -0.023,0.121 -0.069,0.163c-0.045,0.042 -0.107,0.063 -0.185,0.063l-0.092,0Zm-0,-0.361l-0,0.287l0.086,0c0.056,0 0.1,-0.013 0.129,-0.039c0.03,-0.026 0.045,-0.062 0.045,-0.109c0,-0.093 -0.055,-0.139 -0.164,-0.139l-0.096,0Z" style="fill-rule:nonzero;"/></g><g transform="matrix(100,0,0,100,3925.44,1781.9)"><path d="M0.059,-0.028l0,-0.097c0.011,0.01 0.024,0.019 0.04,0.026c0.015,0.008 0.032,0.015 0.049,0.02c0.017,0.006 0.034,0.01 0.051,0.013c0.017,0.003 0.033,0.004 0.048,0.004c0.051,-0 0.088,-0.009 0.113,-0.028c0.025,-0.019 0.037,-0.046 0.037,-0.081c0,-0.019 -0.004,-0.035 -0.012,-0.049c-0.008,-0.014 -0.02,-0.027 -0.034,-0.039c-0.015,-0.011 -0.032,-0.022 -0.052,-0.033c-0.02,-0.01 -0.042,-0.021 -0.065,-0.033c-0.025,-0.013 -0.047,-0.025 -0.068,-0.038c-0.022,-0.012 -0.04,-0.026 -0.056,-0.042c-0.015,-0.015 -0.028,-0.032 -0.037,-0.052c-0.008,-0.019 -0.013,-0.042 -0.013,-0.068c0,-0.032 0.007,-0.06 0.021,-0.083c0.014,-0.024 0.032,-0.043 0.055,-0.059c0.023,-0.015 0.049,-0.026 0.078,-0.034c0.029,-0.007 0.059,-0.011 0.089,-0.011c0.069,0 0.12,0.008 0.151,0.025l0,0.092c-0.041,-0.028 -0.094,-0.043 -0.159,-0.043c-0.018,0 -0.036,0.002 -0.054,0.006c-0.018,0.004 -0.034,0.01 -0.048,0.018c-0.014,0.009 -0.025,0.02 -0.034,0.033c-0.009,0.013 -0.013,0.03 -0.013,0.049c-0,0.018 0.003,0.033 0.01,0.046c0.007,0.013 0.017,0.025 0.03,0.036c0.013,0.011 0.028,0.021 0.047,0.031c0.019,0.01 0.04,0.021 0.065,0.033c0.025,0.013 0.049,0.026 0.071,0.039c0.023,0.014 0.042,0.029 0.059,0.046c0.017,0.016 0.031,0.035 0.041,0.055c0.009,0.02 0.014,0.043 0.014,0.069c0,0.035 -0.006,0.064 -0.02,0.088c-0.013,0.024 -0.032,0.043 -0.055,0.058c-0.023,0.015 -0.049,0.026 -0.079,0.033c-0.03,0.006 -0.061,0.01 -0.095,0.01c-0.011,-0 -0.024,-0.001 -0.041,-0.003c-0.016,-0.002 -0.033,-0.004 -0.049,-0.008c-0.017,-0.003 -0.033,-0.007 -0.049,-0.012c-0.015,-0.006 -0.027,-0.011 -0.036,-0.017Z" style="fill-rule:nonzero;"/></g></g><path d="M2454.71,1976.85l-20.215,0l0,62.598l-8.203,-0l0,-62.598l-20.166,0l-0,-7.422l48.584,0l-0,7.422Z" style="fill-rule:nonzero;"/><path d="M2498.9,1989.45l-22.998,58.008c-4.101,10.351 -9.863,15.527 -17.285,15.527c-2.083,0 -3.825,-0.211 -5.224,-0.635l-0,-7.177c1.725,0.586 3.304,0.879 4.736,0.879c4.036,-0 7.064,-2.409 9.082,-7.227l4.004,-9.473l-19.531,-49.902l8.886,-0l13.526,38.477c0.162,0.488 0.504,1.757 1.025,3.808l0.293,0c0.163,-0.781 0.488,-2.018 0.977,-3.711l14.209,-38.574l8.3,-0Z" style="fill-rule:nonzero;"/><path d="M2515.7,2032.22l-0.195,0l-0,30.225l-8.008,0l0,-72.998l8.008,-0l-0,8.789l0.195,0c3.939,-6.641 9.701,-9.961 17.285,-9.961c6.446,0 11.475,2.238 15.088,6.714c3.614,4.476 5.42,10.474 5.42,17.993c0,8.366 -2.034,15.064 -6.103,20.093c-4.069,5.029 -9.636,7.544 -16.699,7.544c-6.478,-0 -11.475,-2.8 -14.991,-8.399Zm-0.195,-20.166l-0,6.983c-0,4.134 1.343,7.641 4.028,10.522c2.686,2.881 6.096,4.322 10.23,4.322c4.85,-0 8.651,-1.856 11.401,-5.567c2.751,-3.711 4.126,-8.87 4.126,-15.478c0,-5.567 -1.286,-9.929 -3.857,-13.086c-2.572,-3.158 -6.055,-4.737 -10.449,-4.737c-4.655,0 -8.399,1.62 -11.231,4.859c-2.832,3.239 -4.248,7.3 -4.248,12.182Z" style="fill-rule:nonzero;"/><path d="M2606.47,2016.45l-35.303,-0c0.13,5.566 1.628,9.863 4.492,12.891c2.865,3.027 6.804,4.541 11.817,4.541c5.631,-0 10.807,-1.856 15.527,-5.567l-0,7.52c-4.395,3.19 -10.205,4.785 -17.432,4.785c-7.063,-0 -12.614,-2.271 -16.65,-6.812c-4.037,-4.541 -6.055,-10.929 -6.055,-19.165c0,-7.78 2.206,-14.119 6.616,-19.018c4.411,-4.899 9.888,-7.349 16.431,-7.349c6.543,0 11.605,2.116 15.186,6.348c3.58,4.232 5.371,10.107 5.371,17.627l-0,4.199Zm-8.203,-6.787c-0.033,-4.623 -1.148,-8.22 -3.345,-10.791c-2.197,-2.572 -5.249,-3.858 -9.155,-3.858c-3.776,0 -6.983,1.351 -9.619,4.053c-2.637,2.702 -4.265,6.234 -4.883,10.596l27.002,-0Z" style="fill-rule:nonzero;"/><path d="M2675.56,1987.79c-0,-2.149 -0.334,-4.02 -1.001,-5.615c-0.668,-1.595 -1.579,-2.922 -2.735,-3.98c-1.155,-1.058 -2.514,-1.847 -4.077,-2.368c-1.562,-0.521 -3.255,-0.781 -5.078,-0.781c-1.563,-0 -3.092,0.211 -4.59,0.634c-1.497,0.424 -2.954,1.01 -4.37,1.758c-1.416,0.749 -2.783,1.644 -4.102,2.686c-1.318,1.041 -2.547,2.197 -3.686,3.467l-0,-8.594c2.246,-2.181 4.761,-3.849 7.544,-5.005c2.783,-1.156 6.177,-1.733 10.181,-1.733c2.864,-0 5.517,0.415 7.959,1.245c2.441,0.83 4.557,2.042 6.347,3.637c1.791,1.595 3.198,3.565 4.224,5.909c1.025,2.343 1.538,5.029 1.538,8.056c-0,2.767 -0.318,5.274 -0.952,7.52c-0.635,2.246 -1.595,4.362 -2.881,6.347c-1.286,1.986 -2.905,3.89 -4.859,5.713c-1.953,1.823 -4.248,3.679 -6.884,5.567c-3.288,2.343 -5.998,4.345 -8.13,6.006c-2.132,1.66 -3.825,3.214 -5.078,4.663c-1.254,1.448 -2.132,2.897 -2.637,4.345c-0.505,1.449 -0.757,3.117 -0.757,5.005l34.863,0l0,7.178l-43.212,-0l-0,-3.467c-0,-2.995 0.325,-5.631 0.976,-7.91c0.651,-2.279 1.725,-4.443 3.223,-6.494c1.497,-2.051 3.458,-4.102 5.884,-6.152c2.425,-2.051 5.395,-4.362 8.911,-6.934c2.539,-1.823 4.663,-3.565 6.372,-5.225c1.709,-1.66 3.084,-3.32 4.126,-4.98c1.041,-1.66 1.782,-3.345 2.221,-5.054c0.44,-1.709 0.66,-3.524 0.66,-5.444Z" style="fill-rule:nonzero;"/><path d="M3492.83,146.503l0,1644.98c0,51.252 -41.61,92.862 -92.862,92.862l-1704.04,0c-51.252,0 -92.862,-41.61 -92.862,-92.862l0,-1644.98c0,-51.252 41.61,-92.862 92.862,-92.862l1704.04,-0c51.252,-0 92.862,41.61 92.862,92.862Z" style="fill:none;stroke:#000;stroke-width:4.17px;stroke-dasharray:8.33,16.67,0,0,0,0;"/></g></svg>