<?xml version="1.0" encoding="UTF-8" standalone="no"?><!DOCTYPE svg PUBLIC "-//W3C//DTD SVG 1.1//EN" "http://www.w3.org/Graphics/SVG/1.1/DTD/svg11.dtd"><svg width="100%" height="100%" viewBox="0 0 3522 1331" version="1.1" xmlns="http://www.w3.org/2000/svg" xmlns:xlink="http://www.w3.org/1999/xlink" xml:space="preserve" xmlns:serif="http://www.serif.com/" style="fill-rule:evenodd;clip-rule:evenodd;stroke-linecap:round;stroke-linejoin:round;stroke-miterlimit:1.5;"><rect id="Artboard1" x="0" y="0" width="3521.83" height="1330.57" style="fill:none;"/><g id="table"><rect x="41.703" y="37.132" width="2775.59" height="1240.16" style="fill:none;stroke:#000;stroke-width:4.07px;"/><path d="M1272.35,159.894l0,-9.668c1.107,0.977 2.433,1.856 3.98,2.637c1.546,0.781 3.173,1.44 4.882,1.977c1.709,0.538 3.427,0.953 5.152,1.246c1.725,0.293 3.32,0.439 4.785,0.439c5.046,0 8.813,-0.936 11.304,-2.808c2.49,-1.871 3.735,-4.565 3.735,-8.081c-0,-1.888 -0.415,-3.532 -1.245,-4.931c-0.83,-1.4 -1.978,-2.678 -3.443,-3.833c-1.464,-1.156 -3.198,-2.263 -5.2,-3.321c-2.002,-1.058 -4.158,-2.172 -6.469,-3.344c-2.442,-1.237 -4.72,-2.491 -6.836,-3.76c-2.116,-1.27 -3.955,-2.669 -5.518,-4.199c-1.562,-1.53 -2.791,-3.264 -3.686,-5.2c-0.896,-1.937 -1.343,-4.208 -1.343,-6.812c-0,-3.19 0.7,-5.965 2.099,-8.325c1.4,-2.36 3.239,-4.305 5.518,-5.835c2.279,-1.53 4.875,-2.669 7.788,-3.418c2.913,-0.749 5.884,-1.123 8.911,-1.123c6.901,-0 11.931,0.83 15.088,2.49l0,9.229c-4.134,-2.865 -9.44,-4.297 -15.918,-4.297c-1.79,-0 -3.581,0.187 -5.371,0.561c-1.79,0.375 -3.385,0.985 -4.785,1.831c-1.4,0.847 -2.539,1.937 -3.418,3.272c-0.879,1.334 -1.318,2.962 -1.318,4.883c-0,1.79 0.333,3.336 1,4.638c0.668,1.302 1.653,2.49 2.955,3.565c1.302,1.074 2.889,2.116 4.76,3.125c1.872,1.009 4.029,2.116 6.47,3.32c2.507,1.237 4.883,2.539 7.129,3.906c2.246,1.367 4.215,2.881 5.908,4.541c1.693,1.66 3.036,3.5 4.028,5.518c0.993,2.018 1.49,4.329 1.49,6.933c-0,3.451 -0.676,6.373 -2.027,8.765c-1.351,2.393 -3.173,4.338 -5.468,5.835c-2.295,1.497 -4.94,2.58 -7.935,3.247c-2.995,0.667 -6.152,1.001 -9.473,1.001c-1.106,0 -2.474,-0.089 -4.101,-0.268c-1.628,-0.18 -3.288,-0.44 -4.981,-0.782c-1.692,-0.342 -3.296,-0.765 -4.809,-1.269c-1.514,-0.505 -2.726,-1.066 -3.638,-1.685Z" style="fill-rule:nonzero;"/><path d="M1363.46,162.726l-8.007,0l-0,-7.812l-0.196,-0c-3.483,5.989 -8.61,8.984 -15.381,8.984c-4.98,0 -8.878,-1.318 -11.694,-3.955c-2.816,-2.637 -4.224,-6.136 -4.224,-10.498c0,-9.342 5.502,-14.779 16.504,-16.309l14.991,-2.099c-0,-8.496 -3.435,-12.744 -10.303,-12.744c-6.022,-0 -11.458,2.05 -16.309,6.152l0,-8.203c4.916,-3.125 10.58,-4.688 16.992,-4.688c11.752,0 17.627,6.218 17.627,18.653l0,32.519Zm-8.007,-25.293l-12.061,1.66c-3.711,0.521 -6.51,1.441 -8.398,2.759c-1.888,1.319 -2.832,3.654 -2.832,7.007c-0,2.441 0.87,4.435 2.612,5.981c1.741,1.547 4.061,2.32 6.958,2.32c3.971,-0 7.251,-1.392 9.839,-4.175c2.588,-2.783 3.882,-6.307 3.882,-10.571l-0,-4.981Z" style="fill-rule:nonzero;"/><path d="M1414.34,162.726l-8.008,0l0,-7.812l-0.195,-0c-3.483,5.989 -8.61,8.984 -15.381,8.984c-4.98,0 -8.878,-1.318 -11.694,-3.955c-2.816,-2.637 -4.224,-6.136 -4.224,-10.498c0,-9.342 5.502,-14.779 16.504,-16.309l14.99,-2.099c0,-8.496 -3.434,-12.744 -10.302,-12.744c-6.022,-0 -11.459,2.05 -16.309,6.152l0,-8.203c4.916,-3.125 10.58,-4.688 16.992,-4.688c11.752,0 17.627,6.218 17.627,18.653l0,32.519Zm-8.008,-25.293l-12.06,1.66c-3.711,0.521 -6.51,1.441 -8.399,2.759c-1.888,1.319 -2.832,3.654 -2.832,7.007c0,2.441 0.871,4.435 2.613,5.981c1.741,1.547 4.061,2.32 6.958,2.32c3.971,-0 7.251,-1.392 9.839,-4.175c2.588,-2.783 3.881,-6.307 3.881,-10.571l0,-4.981Z" style="fill-rule:nonzero;"/><path d="M1427.23,159.894l-0,-9.668c1.107,0.977 2.433,1.856 3.979,2.637c1.547,0.781 3.174,1.44 4.883,1.977c1.709,0.538 3.426,0.953 5.152,1.246c1.725,0.293 3.32,0.439 4.785,0.439c5.045,0 8.813,-0.936 11.303,-2.808c2.491,-1.871 3.736,-4.565 3.736,-8.081c-0,-1.888 -0.415,-3.532 -1.245,-4.931c-0.83,-1.4 -1.978,-2.678 -3.443,-3.833c-1.465,-1.156 -3.198,-2.263 -5.2,-3.321c-2.002,-1.058 -4.158,-2.172 -6.47,-3.344c-2.441,-1.237 -4.72,-2.491 -6.836,-3.76c-2.115,-1.27 -3.955,-2.669 -5.517,-4.199c-1.563,-1.53 -2.791,-3.264 -3.687,-5.2c-0.895,-1.937 -1.342,-4.208 -1.342,-6.812c-0,-3.19 0.699,-5.965 2.099,-8.325c1.4,-2.36 3.239,-4.305 5.518,-5.835c2.278,-1.53 4.874,-2.669 7.788,-3.418c2.913,-0.749 5.884,-1.123 8.911,-1.123c6.901,-0 11.93,0.83 15.088,2.49l-0,9.229c-4.134,-2.865 -9.44,-4.297 -15.918,-4.297c-1.79,-0 -3.581,0.187 -5.371,0.561c-1.791,0.375 -3.386,0.985 -4.785,1.831c-1.4,0.847 -2.539,1.937 -3.418,3.272c-0.879,1.334 -1.319,2.962 -1.319,4.883c0,1.79 0.334,3.336 1.001,4.638c0.668,1.302 1.652,2.49 2.954,3.565c1.302,1.074 2.889,2.116 4.761,3.125c1.872,1.009 4.028,2.116 6.47,3.32c2.506,1.237 4.883,2.539 7.129,3.906c2.246,1.367 4.215,2.881 5.908,4.541c1.693,1.66 3.035,3.5 4.028,5.518c0.993,2.018 1.49,4.329 1.49,6.933c-0,3.451 -0.676,6.373 -2.027,8.765c-1.351,2.393 -3.174,4.338 -5.469,5.835c-2.294,1.497 -4.939,2.58 -7.934,3.247c-2.995,0.667 -6.152,1.001 -9.473,1.001c-1.107,0 -2.474,-0.089 -4.101,-0.268c-1.628,-0.18 -3.288,-0.44 -4.981,-0.782c-1.693,-0.342 -3.296,-0.765 -4.809,-1.269c-1.514,-0.505 -2.727,-1.066 -3.638,-1.685Z" style="fill-rule:nonzero;"/><path d="M531.535,162.726l-36.328,0l-0,-70.019l8.203,-0l-0,62.597l28.125,0l-0,7.422Z" style="fill-rule:nonzero;"/><path d="M576.994,162.726l-8.008,0l0,-7.812l-0.195,-0c-3.483,5.989 -8.61,8.984 -15.381,8.984c-4.981,0 -8.879,-1.318 -11.694,-3.955c-2.816,-2.637 -4.224,-6.136 -4.224,-10.498c-0,-9.342 5.501,-14.779 16.504,-16.309l14.99,-2.099c0,-8.496 -3.434,-12.744 -10.303,-12.744c-6.022,-0 -11.458,2.05 -16.308,6.152l-0,-8.203c4.915,-3.125 10.579,-4.688 16.992,-4.688c11.751,0 17.627,6.218 17.627,18.653l-0,32.519Zm-8.008,-25.293l-12.061,1.66c-3.71,0.521 -6.51,1.441 -8.398,2.759c-1.888,1.319 -2.832,3.654 -2.832,7.007c0,2.441 0.871,4.435 2.612,5.981c1.742,1.547 4.061,2.32 6.958,2.32c3.972,-0 7.251,-1.392 9.839,-4.175c2.588,-2.783 3.882,-6.307 3.882,-10.571l0,-4.981Z" style="fill-rule:nonzero;"/><path d="M631.877,112.726l-22.998,58.008c-4.102,10.352 -9.864,15.527 -17.286,15.527c-2.083,0 -3.824,-0.211 -5.224,-0.634l-0,-7.178c1.725,0.586 3.304,0.879 4.736,0.879c4.037,-0 7.064,-2.409 9.082,-7.227l4.004,-9.472l-19.531,-49.903l8.887,0l13.525,38.477c0.163,0.488 0.505,1.758 1.025,3.808l0.293,0c0.163,-0.781 0.489,-2.018 0.977,-3.711l14.209,-38.574l8.301,0Z" style="fill-rule:nonzero;"/><path d="M680.656,139.728l-35.303,0c0.13,5.567 1.628,9.863 4.492,12.891c2.865,3.027 6.804,4.541 11.817,4.541c5.631,-0 10.807,-1.856 15.527,-5.567l0,7.52c-4.394,3.19 -10.205,4.785 -17.431,4.785c-7.064,0 -12.614,-2.27 -16.651,-6.811c-4.036,-4.541 -6.055,-10.93 -6.055,-19.165c0,-7.78 2.206,-14.12 6.617,-19.019c4.41,-4.899 9.887,-7.349 16.43,-7.349c6.543,0 11.605,2.116 15.186,6.348c3.581,4.232 5.371,10.107 5.371,17.627l-0,4.199Zm-8.203,-6.787c-0.033,-4.622 -1.148,-8.219 -3.345,-10.791c-2.197,-2.572 -5.249,-3.857 -9.155,-3.857c-3.776,-0 -6.983,1.351 -9.619,4.052c-2.637,2.702 -4.265,6.234 -4.883,10.596l27.002,0Z" style="fill-rule:nonzero;"/><path d="M718.84,120.832c-1.4,-1.075 -3.418,-1.612 -6.055,-1.612c-3.418,0 -6.275,1.612 -8.569,4.834c-2.295,3.223 -3.443,7.618 -3.443,13.184l0,25.488l-8.008,0l0,-50l8.008,0l0,10.303l0.195,-0c1.14,-3.516 2.881,-6.258 5.225,-8.228c2.344,-1.969 4.964,-2.954 7.861,-2.954c2.084,0 3.679,0.228 4.786,0.684l-0,8.301Z" style="fill-rule:nonzero;"/><path d="M509.025,339.892l0,-70.02l19.336,0c24.675,0 37.012,11.377 37.012,34.131c-0,10.807 -3.426,19.49 -10.279,26.05c-6.852,6.559 -16.023,9.839 -27.514,9.839l-18.555,-0Zm8.203,-62.598l0,55.176l10.449,-0c9.18,-0 16.325,-2.458 21.436,-7.373c5.111,-4.916 7.666,-11.882 7.666,-20.899c0,-17.936 -9.538,-26.904 -28.613,-26.904l-10.938,-0Z" style="fill-rule:nonzero;"/><path d="M613.859,339.892l-8.008,-0l0,-7.813l-0.195,0c-3.483,5.99 -8.61,8.984 -15.381,8.984c-4.98,0 -8.878,-1.318 -11.694,-3.955c-2.816,-2.636 -4.224,-6.136 -4.224,-10.498c0,-9.342 5.501,-14.778 16.504,-16.308l14.99,-2.1c0,-8.496 -3.434,-12.744 -10.302,-12.744c-6.023,-0 -11.459,2.051 -16.309,6.152l-0,-8.203c4.915,-3.125 10.579,-4.687 16.992,-4.687c11.751,-0 17.627,6.217 17.627,18.652l0,32.52Zm-8.008,-25.293l-12.06,1.66c-3.711,0.521 -6.511,1.44 -8.399,2.759c-1.888,1.318 -2.832,3.654 -2.832,7.006c0,2.442 0.871,4.436 2.613,5.982c1.741,1.546 4.06,2.319 6.958,2.319c3.971,0 7.251,-1.391 9.838,-4.175c2.588,-2.783 3.882,-6.307 3.882,-10.571l0,-4.98Z" style="fill-rule:nonzero;"/><path d="M652.14,339.403c-1.888,1.042 -4.378,1.563 -7.47,1.563c-8.757,-0 -13.135,-4.883 -13.135,-14.649l-0,-29.589l-8.594,-0l0,-6.836l8.594,-0l-0,-12.207l8.008,-2.588l-0,14.795l12.597,-0l0,6.836l-12.597,-0l-0,28.173c-0,3.353 0.569,5.746 1.709,7.178c1.139,1.432 3.027,2.149 5.664,2.149c2.018,-0 3.759,-0.554 5.224,-1.661l0,6.836Z" style="fill-rule:nonzero;"/><path d="M698.625,339.892l-8.008,-0l-0,-7.813l-0.195,0c-3.483,5.99 -8.61,8.984 -15.381,8.984c-4.981,0 -8.879,-1.318 -11.695,-3.955c-2.815,-2.636 -4.223,-6.136 -4.223,-10.498c-0,-9.342 5.501,-14.778 16.504,-16.308l14.99,-2.1c-0,-8.496 -3.434,-12.744 -10.303,-12.744c-6.022,-0 -11.458,2.051 -16.308,6.152l-0,-8.203c4.915,-3.125 10.579,-4.687 16.992,-4.687c11.751,-0 17.627,6.217 17.627,18.652l-0,32.52Zm-8.008,-25.293l-12.061,1.66c-3.711,0.521 -6.51,1.44 -8.398,2.759c-1.888,1.318 -2.832,3.654 -2.832,7.006c-0,2.442 0.871,4.436 2.612,5.982c1.742,1.546 4.061,2.319 6.958,2.319c3.972,0 7.251,-1.391 9.839,-4.175c2.588,-2.783 3.882,-6.307 3.882,-10.571l-0,-4.98Z" style="fill-rule:nonzero;"/><path d="M1728.41,100.129l-27.344,-0l-0,24.218l25.293,0l-0,7.373l-25.293,0l-0,31.006l-8.203,0l-0,-70.019l35.547,-0l-0,7.422Z" style="fill-rule:nonzero;"/><path d="M1772.99,162.726l-8.008,0l-0,-7.812l-0.195,-0c-3.483,5.989 -8.61,8.984 -15.381,8.984c-4.981,0 -8.879,-1.318 -11.695,-3.955c-2.815,-2.637 -4.223,-6.136 -4.223,-10.498c-0,-9.342 5.501,-14.779 16.504,-16.309l14.99,-2.099c-0,-8.496 -3.434,-12.744 -10.303,-12.744c-6.022,-0 -11.458,2.05 -16.308,6.152l-0,-8.203c4.915,-3.125 10.579,-4.688 16.992,-4.688c11.751,0 17.627,6.218 17.627,18.653l-0,32.519Zm-8.008,-25.293l-12.061,1.66c-3.711,0.521 -6.51,1.441 -8.398,2.759c-1.888,1.319 -2.832,3.654 -2.832,7.007c-0,2.441 0.871,4.435 2.612,5.981c1.742,1.547 4.061,2.32 6.958,2.32c3.972,-0 7.251,-1.392 9.839,-4.175c2.588,-2.783 3.882,-6.307 3.882,-10.571l-0,-4.981Z" style="fill-rule:nonzero;"/><path d="M1823.87,162.726l-8.008,0l-0,-7.812l-0.195,-0c-3.484,5.989 -8.61,8.984 -15.381,8.984c-4.981,0 -8.879,-1.318 -11.695,-3.955c-2.815,-2.637 -4.223,-6.136 -4.223,-10.498c-0,-9.342 5.501,-14.779 16.504,-16.309l14.99,-2.099c-0,-8.496 -3.434,-12.744 -10.303,-12.744c-6.022,-0 -11.458,2.05 -16.308,6.152l-0,-8.203c4.915,-3.125 10.579,-4.688 16.992,-4.688c11.751,0 17.627,6.218 17.627,18.653l-0,32.519Zm-8.008,-25.293l-12.061,1.66c-3.711,0.521 -6.51,1.441 -8.398,2.759c-1.888,1.319 -2.832,3.654 -2.832,7.007c-0,2.441 0.871,4.435 2.612,5.981c1.742,1.547 4.061,2.32 6.958,2.32c3.972,-0 7.251,-1.392 9.839,-4.175c2.588,-2.783 3.882,-6.307 3.882,-10.571l-0,-4.981Z" style="fill-rule:nonzero;"/><path d="M1836.76,159.894l0,-9.668c1.107,0.977 2.434,1.856 3.98,2.637c1.546,0.781 3.174,1.44 4.883,1.977c1.709,0.538 3.426,0.953 5.151,1.246c1.725,0.293 3.32,0.439 4.785,0.439c5.046,0 8.814,-0.936 11.304,-2.808c2.49,-1.871 3.735,-4.565 3.735,-8.081c0,-1.888 -0.415,-3.532 -1.245,-4.931c-0.83,-1.4 -1.977,-2.678 -3.442,-3.833c-1.465,-1.156 -3.199,-2.263 -5.2,-3.321c-2.002,-1.058 -4.159,-2.172 -6.47,-3.344c-2.442,-1.237 -4.72,-2.491 -6.836,-3.76c-2.116,-1.27 -3.955,-2.669 -5.518,-4.199c-1.562,-1.53 -2.791,-3.264 -3.686,-5.2c-0.895,-1.937 -1.343,-4.208 -1.343,-6.812c-0,-3.19 0.7,-5.965 2.1,-8.325c1.399,-2.36 3.239,-4.305 5.517,-5.835c2.279,-1.53 4.875,-2.669 7.788,-3.418c2.914,-0.749 5.884,-1.123 8.911,-1.123c6.901,-0 11.931,0.83 15.088,2.49l0,9.229c-4.134,-2.865 -9.44,-4.297 -15.918,-4.297c-1.79,-0 -3.58,0.187 -5.371,0.561c-1.79,0.375 -3.385,0.985 -4.785,1.831c-1.4,0.847 -2.539,1.937 -3.418,3.272c-0.879,1.334 -1.318,2.962 -1.318,4.883c-0,1.79 0.333,3.336 1.001,4.638c0.667,1.302 1.652,2.49 2.954,3.565c1.302,1.074 2.889,2.116 4.761,3.125c1.871,1.009 4.028,2.116 6.469,3.32c2.507,1.237 4.883,2.539 7.129,3.906c2.246,1.367 4.216,2.881 5.908,4.541c1.693,1.66 3.036,3.5 4.029,5.518c0.993,2.018 1.489,4.329 1.489,6.933c-0,3.451 -0.675,6.373 -2.026,8.765c-1.351,2.393 -3.174,4.338 -5.469,5.835c-2.295,1.497 -4.94,2.58 -7.935,3.247c-2.995,0.667 -6.152,1.001 -9.472,1.001c-1.107,0 -2.474,-0.089 -4.102,-0.268c-1.628,-0.18 -3.288,-0.44 -4.98,-0.782c-1.693,-0.342 -3.296,-0.765 -4.81,-1.269c-1.514,-0.505 -2.726,-1.066 -3.638,-1.685Z" style="fill-rule:nonzero;"/><path d="M2110.86,136.261l-0,26.465l-8.203,0l-0,-70.019l19.238,-0c7.487,-0 13.289,1.823 17.407,5.468c4.118,3.646 6.177,8.789 6.177,15.43c0,6.641 -2.287,12.077 -6.86,16.309c-4.574,4.231 -10.751,6.347 -18.531,6.347l-9.228,0Zm-0,-36.132l-0,28.71l8.594,0c5.664,0 9.985,-1.293 12.964,-3.881c2.978,-2.588 4.467,-6.242 4.467,-10.962c0,-9.245 -5.468,-13.867 -16.406,-13.867l-9.619,-0Z" style="fill-rule:nonzero;"/><path d="M2189.96,162.726l-8.007,0l-0,-7.812l-0.196,-0c-3.483,5.989 -8.61,8.984 -15.38,8.984c-4.981,0 -8.879,-1.318 -11.695,-3.955c-2.816,-2.637 -4.223,-6.136 -4.223,-10.498c-0,-9.342 5.501,-14.779 16.503,-16.309l14.991,-2.099c-0,-8.496 -3.435,-12.744 -10.303,-12.744c-6.022,-0 -11.458,2.05 -16.309,6.152l0,-8.203c4.916,-3.125 10.58,-4.688 16.993,-4.688c11.751,0 17.626,6.218 17.626,18.653l0,32.519Zm-8.007,-25.293l-12.061,1.66c-3.711,0.521 -6.51,1.441 -8.398,2.759c-1.888,1.319 -2.832,3.654 -2.832,7.007c-0,2.441 0.87,4.435 2.612,5.981c1.741,1.547 4.061,2.32 6.958,2.32c3.971,-0 7.251,-1.392 9.839,-4.175c2.588,-2.783 3.882,-6.307 3.882,-10.571l-0,-4.981Z" style="fill-rule:nonzero;"/><path d="M2240.84,162.726l-8.007,0l-0,-7.812l-0.196,-0c-3.483,5.989 -8.61,8.984 -15.381,8.984c-4.98,0 -8.878,-1.318 -11.694,-3.955c-2.816,-2.637 -4.224,-6.136 -4.224,-10.498c0,-9.342 5.502,-14.779 16.504,-16.309l14.991,-2.099c-0,-8.496 -3.435,-12.744 -10.303,-12.744c-6.022,-0 -11.458,2.05 -16.309,6.152l0,-8.203c4.916,-3.125 10.58,-4.688 16.992,-4.688c11.752,0 17.627,6.218 17.627,18.653l0,32.519Zm-8.007,-25.293l-12.061,1.66c-3.711,0.521 -6.51,1.441 -8.398,2.759c-1.888,1.319 -2.832,3.654 -2.832,7.007c-0,2.441 0.87,4.435 2.612,5.981c1.741,1.547 4.061,2.32 6.958,2.32c3.971,-0 7.251,-1.392 9.839,-4.175c2.588,-2.783 3.882,-6.307 3.882,-10.571l-0,-4.981Z" style="fill-rule:nonzero;"/><path d="M2253.73,159.894l0,-9.668c1.107,0.977 2.433,1.856 3.98,2.637c1.546,0.781 3.173,1.44 4.882,1.977c1.709,0.538 3.426,0.953 5.152,1.246c1.725,0.293 3.32,0.439 4.785,0.439c5.045,0 8.813,-0.936 11.304,-2.808c2.49,-1.871 3.735,-4.565 3.735,-8.081c-0,-1.888 -0.415,-3.532 -1.245,-4.931c-0.83,-1.4 -1.978,-2.678 -3.443,-3.833c-1.464,-1.156 -3.198,-2.263 -5.2,-3.321c-2.002,-1.058 -4.158,-2.172 -6.47,-3.344c-2.441,-1.237 -4.72,-2.491 -6.835,-3.76c-2.116,-1.27 -3.956,-2.669 -5.518,-4.199c-1.563,-1.53 -2.791,-3.264 -3.687,-5.2c-0.895,-1.937 -1.342,-4.208 -1.342,-6.812c-0,-3.19 0.7,-5.965 2.099,-8.325c1.4,-2.36 3.239,-4.305 5.518,-5.835c2.279,-1.53 4.875,-2.669 7.788,-3.418c2.913,-0.749 5.884,-1.123 8.911,-1.123c6.901,-0 11.93,0.83 15.088,2.49l-0,9.229c-4.134,-2.865 -9.44,-4.297 -15.918,-4.297c-1.79,-0 -3.581,0.187 -5.371,0.561c-1.79,0.375 -3.386,0.985 -4.785,1.831c-1.4,0.847 -2.539,1.937 -3.418,3.272c-0.879,1.334 -1.319,2.962 -1.319,4.883c0,1.79 0.334,3.336 1.001,4.638c0.668,1.302 1.652,2.49 2.955,3.565c1.302,1.074 2.888,2.116 4.76,3.125c1.872,1.009 4.029,2.116 6.47,3.32c2.506,1.237 4.883,2.539 7.129,3.906c2.246,1.367 4.215,2.881 5.908,4.541c1.693,1.66 3.036,3.5 4.028,5.518c0.993,2.018 1.49,4.329 1.49,6.933c-0,3.451 -0.676,6.373 -2.027,8.765c-1.351,2.393 -3.174,4.338 -5.468,5.835c-2.295,1.497 -4.94,2.58 -7.935,3.247c-2.995,0.667 -6.152,1.001 -9.473,1.001c-1.106,0 -2.474,-0.089 -4.101,-0.268c-1.628,-0.18 -3.288,-0.44 -4.981,-0.782c-1.692,-0.342 -3.296,-0.765 -4.809,-1.269c-1.514,-0.505 -2.727,-1.066 -3.638,-1.685Z" style="fill-rule:nonzero;"/><rect x="2529.03" y="92.707" width="8.203" height="70.02" style="fill-rule:nonzero;"/><path d="M2590.36,162.726l-8.008,0l0,-7.812l-0.195,-0c-3.483,5.989 -8.61,8.984 -15.381,8.984c-4.98,0 -8.879,-1.318 -11.694,-3.955c-2.816,-2.637 -4.224,-6.136 -4.224,-10.498c0,-9.342 5.501,-14.779 16.504,-16.309l14.99,-2.099c0,-8.496 -3.434,-12.744 -10.303,-12.744c-6.022,-0 -11.458,2.05 -16.308,6.152l-0,-8.203c4.915,-3.125 10.579,-4.688 16.992,-4.688c11.751,0 17.627,6.218 17.627,18.653l0,32.519Zm-8.008,-25.293l-12.06,1.66c-3.711,0.521 -6.511,1.441 -8.399,2.759c-1.888,1.319 -2.832,3.654 -2.832,7.007c0,2.441 0.871,4.435 2.613,5.981c1.741,1.547 4.06,2.32 6.958,2.32c3.971,-0 7.25,-1.392 9.838,-4.175c2.588,-2.783 3.882,-6.307 3.882,-10.571l0,-4.981Z" style="fill-rule:nonzero;"/><path d="M2641.24,162.726l-8.008,0l0,-7.812l-0.195,-0c-3.483,5.989 -8.61,8.984 -15.381,8.984c-4.981,0 -8.879,-1.318 -11.694,-3.955c-2.816,-2.637 -4.224,-6.136 -4.224,-10.498c-0,-9.342 5.501,-14.779 16.504,-16.309l14.99,-2.099c0,-8.496 -3.434,-12.744 -10.303,-12.744c-6.022,-0 -11.458,2.05 -16.308,6.152l-0,-8.203c4.915,-3.125 10.579,-4.688 16.992,-4.688c11.751,0 17.627,6.218 17.627,18.653l-0,32.519Zm-8.008,-25.293l-12.06,1.66c-3.711,0.521 -6.511,1.441 -8.399,2.759c-1.888,1.319 -2.832,3.654 -2.832,7.007c0,2.441 0.871,4.435 2.612,5.981c1.742,1.547 4.061,2.32 6.958,2.32c3.972,-0 7.251,-1.392 9.839,-4.175c2.588,-2.783 3.882,-6.307 3.882,-10.571l0,-4.981Z" style="fill-rule:nonzero;"/><path d="M2654.13,159.894l-0,-9.668c1.106,0.977 2.433,1.856 3.979,2.637c1.546,0.781 3.174,1.44 4.883,1.977c1.709,0.538 3.426,0.953 5.151,1.246c1.725,0.293 3.321,0.439 4.785,0.439c5.046,0 8.814,-0.936 11.304,-2.808c2.49,-1.871 3.735,-4.565 3.735,-8.081c0,-1.888 -0.415,-3.532 -1.245,-4.931c-0.83,-1.4 -1.977,-2.678 -3.442,-3.833c-1.465,-1.156 -3.198,-2.263 -5.2,-3.321c-2.002,-1.058 -4.159,-2.172 -6.47,-3.344c-2.441,-1.237 -4.72,-2.491 -6.836,-3.76c-2.116,-1.27 -3.955,-2.669 -5.517,-4.199c-1.563,-1.53 -2.792,-3.264 -3.687,-5.2c-0.895,-1.937 -1.343,-4.208 -1.343,-6.812c0,-3.19 0.7,-5.965 2.1,-8.325c1.4,-2.36 3.239,-4.305 5.517,-5.835c2.279,-1.53 4.875,-2.669 7.788,-3.418c2.914,-0.749 5.884,-1.123 8.912,-1.123c6.901,-0 11.93,0.83 15.088,2.49l-0,9.229c-4.135,-2.865 -9.441,-4.297 -15.918,-4.297c-1.791,-0 -3.581,0.187 -5.372,0.561c-1.79,0.375 -3.385,0.985 -4.785,1.831c-1.399,0.847 -2.539,1.937 -3.418,3.272c-0.879,1.334 -1.318,2.962 -1.318,4.883c-0,1.79 0.334,3.336 1.001,4.638c0.667,1.302 1.652,2.49 2.954,3.565c1.302,1.074 2.889,2.116 4.761,3.125c1.872,1.009 4.028,2.116 6.47,3.32c2.506,1.237 4.882,2.539 7.128,3.906c2.247,1.367 4.216,2.881 5.909,4.541c1.692,1.66 3.035,3.5 4.028,5.518c0.993,2.018 1.489,4.329 1.489,6.933c0,3.451 -0.675,6.373 -2.026,8.765c-1.351,2.393 -3.174,4.338 -5.469,5.835c-2.295,1.497 -4.94,2.58 -7.934,3.247c-2.995,0.667 -6.153,1.001 -9.473,1.001c-1.107,0 -2.474,-0.089 -4.102,-0.268c-1.627,-0.18 -3.287,-0.44 -4.98,-0.782c-1.693,-0.342 -3.296,-0.765 -4.81,-1.269c-1.513,-0.505 -2.726,-1.066 -3.637,-1.685Z" style="fill-rule:nonzero;"/><path d="M415.666,517.057l-9.082,-0l-7.422,-19.629l-29.688,0l-6.982,19.629l-9.131,-0l26.856,-70.02l8.496,0l26.953,70.02Zm-19.19,-27.002l-10.986,-29.834c-0.358,-0.977 -0.716,-2.539 -1.074,-4.688l-0.196,0c-0.325,1.986 -0.699,3.549 -1.123,4.688l-10.888,29.834l24.267,-0Z" style="fill-rule:nonzero;"/><path d="M433.097,509.83l-0.195,0l0,30.225l-8.008,-0l0,-72.998l8.008,-0l0,8.789l0.195,-0c3.939,-6.641 9.701,-9.961 17.286,-9.961c6.445,0 11.474,2.238 15.087,6.714c3.614,4.476 5.42,10.474 5.42,17.993c0,8.366 -2.034,15.064 -6.103,20.093c-4.069,5.029 -9.636,7.544 -16.699,7.544c-6.478,-0 -11.475,-2.8 -14.991,-8.399Zm-0.195,-20.166l0,6.983c0,4.134 1.343,7.641 4.028,10.522c2.686,2.881 6.096,4.322 10.23,4.322c4.85,-0 8.651,-1.856 11.401,-5.567c2.751,-3.711 4.126,-8.87 4.126,-15.478c0,-5.567 -1.286,-9.929 -3.857,-13.086c-2.572,-3.158 -6.055,-4.737 -10.449,-4.737c-4.655,0 -8.399,1.62 -11.231,4.859c-2.832,3.239 -4.248,7.3 -4.248,12.182Z" style="fill-rule:nonzero;"/><path d="M491.886,509.83l-0.195,0l0,30.225l-8.008,-0l0,-72.998l8.008,-0l0,8.789l0.195,-0c3.939,-6.641 9.701,-9.961 17.286,-9.961c6.445,0 11.474,2.238 15.087,6.714c3.614,4.476 5.42,10.474 5.42,17.993c0,8.366 -2.034,15.064 -6.103,20.093c-4.069,5.029 -9.636,7.544 -16.699,7.544c-6.478,-0 -11.475,-2.8 -14.991,-8.399Zm-0.195,-20.166l0,6.983c0,4.134 1.343,7.641 4.028,10.522c2.686,2.881 6.096,4.322 10.23,4.322c4.85,-0 8.651,-1.856 11.401,-5.567c2.751,-3.711 4.126,-8.87 4.126,-15.478c0,-5.567 -1.286,-9.929 -3.857,-13.086c-2.572,-3.158 -6.055,-4.737 -10.449,-4.737c-4.655,0 -8.399,1.62 -11.231,4.859c-2.832,3.239 -4.248,7.3 -4.248,12.182Z" style="fill-rule:nonzero;"/><rect x="542.472" y="443.033" width="8.008" height="74.023" style="fill-rule:nonzero;"/><path d="M570.793,454.362c-1.433,-0 -2.653,-0.489 -3.662,-1.465c-1.01,-0.977 -1.514,-2.214 -1.514,-3.711c-0,-1.498 0.504,-2.743 1.514,-3.736c1.009,-0.992 2.229,-1.489 3.662,-1.489c1.465,0 2.71,0.497 3.735,1.489c1.025,0.993 1.538,2.238 1.538,3.736c0,1.432 -0.513,2.653 -1.538,3.662c-1.025,1.009 -2.27,1.514 -3.735,1.514Zm3.906,62.695l-8.008,-0l0,-50l8.008,-0l-0,50Z" style="fill-rule:nonzero;"/><path d="M624.992,514.762c-3.841,2.311 -8.399,3.467 -13.672,3.467c-7.129,-0 -12.882,-2.32 -17.261,-6.958c-4.378,-4.639 -6.567,-10.653 -6.567,-18.042c-0,-8.236 2.36,-14.852 7.08,-19.849c4.72,-4.997 11.019,-7.495 18.896,-7.495c4.395,0 8.269,0.814 11.622,2.441l-0,8.204c-3.711,-2.605 -7.683,-3.907 -11.915,-3.907c-5.11,0 -9.301,1.831 -12.573,5.493c-3.271,3.663 -4.907,8.472 -4.907,14.429c0,5.86 1.538,10.482 4.614,13.867c3.076,3.386 7.202,5.079 12.378,5.079c4.362,-0 8.464,-1.449 12.305,-4.346l-0,7.617Z" style="fill-rule:nonzero;"/><path d="M672.892,517.057l-8.008,-0l0,-7.813l-0.195,0c-3.483,5.99 -8.61,8.985 -15.381,8.985c-4.98,-0 -8.878,-1.319 -11.694,-3.955c-2.816,-2.637 -4.224,-6.136 -4.224,-10.498c0,-9.343 5.502,-14.779 16.504,-16.309l14.99,-2.1c0,-8.496 -3.434,-12.744 -10.302,-12.744c-6.022,0 -11.459,2.051 -16.309,6.153l0,-8.203c4.916,-3.125 10.58,-4.688 16.992,-4.688c11.752,0 17.627,6.217 17.627,18.652l0,32.52Zm-8.008,-25.293l-12.06,1.66c-3.711,0.521 -6.51,1.441 -8.399,2.759c-1.888,1.318 -2.832,3.654 -2.832,7.007c0,2.441 0.871,4.435 2.613,5.981c1.741,1.546 4.061,2.32 6.958,2.32c3.971,-0 7.251,-1.392 9.839,-4.175c2.588,-2.783 3.881,-6.307 3.881,-10.572l0,-4.98Z" style="fill-rule:nonzero;"/><path d="M711.174,516.569c-1.888,1.041 -4.379,1.562 -7.471,1.562c-8.757,0 -13.135,-4.883 -13.135,-14.648l0,-29.59l-8.594,-0l0,-6.836l8.594,-0l0,-12.207l8.008,-2.588l-0,14.795l12.598,-0l-0,6.836l-12.598,-0l-0,28.174c-0,3.353 0.57,5.745 1.709,7.177c1.139,1.433 3.027,2.149 5.664,2.149c2.018,-0 3.76,-0.554 5.225,-1.66l-0,6.836Z" style="fill-rule:nonzero;"/><path d="M725.968,454.362c-1.432,-0 -2.653,-0.489 -3.662,-1.465c-1.009,-0.977 -1.513,-2.214 -1.513,-3.711c-0,-1.498 0.504,-2.743 1.513,-3.736c1.009,-0.992 2.23,-1.489 3.662,-1.489c1.465,0 2.71,0.497 3.736,1.489c1.025,0.993 1.538,2.238 1.538,3.736c-0,1.432 -0.513,2.653 -1.538,3.662c-1.026,1.009 -2.271,1.514 -3.736,1.514Zm3.907,62.695l-8.008,-0l-0,-50l8.008,-0l-0,50Z" style="fill-rule:nonzero;"/><path d="M766.984,518.229c-7.389,-0 -13.289,-2.336 -17.7,-7.007c-4.411,-4.671 -6.616,-10.864 -6.616,-18.579c-0,-8.399 2.295,-14.958 6.884,-19.678c4.59,-4.72 10.791,-7.08 18.604,-7.08c7.454,0 13.273,2.295 17.456,6.885c4.183,4.59 6.274,10.954 6.274,19.092c0,7.975 -2.254,14.363 -6.762,19.165c-4.509,4.801 -10.555,7.202 -18.14,7.202Zm0.586,-45.606c-5.143,0 -9.212,1.75 -12.207,5.249c-2.995,3.5 -4.492,8.326 -4.492,14.478c-0,5.924 1.513,10.596 4.541,14.014c3.027,3.418 7.08,5.127 12.158,5.127c5.176,-0 9.155,-1.677 11.938,-5.03c2.784,-3.353 4.175,-8.122 4.175,-14.306c0,-6.25 -1.391,-11.068 -4.175,-14.454c-2.783,-3.385 -6.762,-5.078 -11.938,-5.078Z" style="fill-rule:nonzero;"/><path d="M846.183,517.057l-8.008,-0l0,-28.516c0,-10.612 -3.873,-15.918 -11.621,-15.918c-4.004,0 -7.316,1.506 -9.936,4.517c-2.621,3.011 -3.931,6.811 -3.931,11.401l0,28.516l-8.008,-0l0,-50l8.008,-0l0,8.301l0.196,-0c3.776,-6.315 9.244,-9.473 16.406,-9.473c5.469,0 9.651,1.766 12.549,5.298c2.897,3.532 4.345,8.634 4.345,15.308l0,30.566Z" style="fill-rule:nonzero;"/><path d="M246.916,695.394c-9.929,0 -17.88,-3.271 -23.853,-9.814c-5.973,-6.543 -8.96,-15.056 -8.96,-25.537c0,-11.263 3.044,-20.248 9.131,-26.954c6.087,-6.705 14.372,-10.058 24.854,-10.058c9.668,-0 17.456,3.255 23.364,9.765c5.908,6.511 8.862,15.023 8.862,25.538c0,11.425 -3.027,20.459 -9.082,27.099c-6.055,6.641 -14.16,9.961 -24.316,9.961Zm0.586,-64.941c-7.357,-0 -13.33,2.653 -17.92,7.959c-4.59,5.306 -6.885,12.272 -6.885,20.898c-0,8.626 2.238,15.568 6.714,20.825c4.476,5.258 10.311,7.886 17.505,7.886c7.682,0 13.737,-2.506 18.164,-7.519c4.427,-5.013 6.64,-12.028 6.64,-21.045c0,-9.245 -2.148,-16.39 -6.445,-21.436c-4.297,-5.045 -10.221,-7.568 -17.773,-7.568Z" style="fill-rule:nonzero;"/><path d="M301.213,686.996l-0.196,-0l0,30.224l-8.008,0l0,-72.998l8.008,0l0,8.789l0.196,0c3.938,-6.64 9.7,-9.961 17.285,-9.961c6.445,0 11.474,2.238 15.088,6.714c3.613,4.476 5.42,10.474 5.42,17.993c-0,8.366 -2.035,15.064 -6.104,20.093c-4.069,5.03 -9.635,7.544 -16.699,7.544c-6.478,0 -11.475,-2.799 -14.99,-8.398Zm-0.196,-20.166l0,6.982c0,4.134 1.343,7.642 4.029,10.523c2.685,2.88 6.095,4.321 10.229,4.321c4.85,-0 8.651,-1.856 11.401,-5.567c2.751,-3.71 4.126,-8.87 4.126,-15.478c0,-5.566 -1.285,-9.928 -3.857,-13.086c-2.572,-3.158 -6.055,-4.736 -10.449,-4.736c-4.655,-0 -8.399,1.619 -11.231,4.858c-2.832,3.239 -4.248,7.3 -4.248,12.183Z" style="fill-rule:nonzero;"/><path d="M391.984,671.224l-35.303,0c0.131,5.567 1.628,9.864 4.493,12.891c2.864,3.027 6.803,4.541 11.816,4.541c5.631,-0 10.807,-1.856 15.527,-5.567l0,7.52c-4.394,3.19 -10.205,4.785 -17.431,4.785c-7.064,0 -12.614,-2.27 -16.651,-6.811c-4.036,-4.541 -6.054,-10.93 -6.054,-19.165c-0,-7.78 2.205,-14.12 6.616,-19.019c4.411,-4.899 9.887,-7.349 16.43,-7.349c6.543,0 11.605,2.116 15.186,6.348c3.581,4.232 5.371,10.107 5.371,17.627l0,4.199Zm-8.203,-6.787c-0.033,-4.622 -1.148,-8.219 -3.345,-10.791c-2.197,-2.572 -5.249,-3.857 -9.155,-3.857c-3.776,-0 -6.982,1.351 -9.619,4.052c-2.637,2.702 -4.265,6.234 -4.883,10.596l27.002,0Z" style="fill-rule:nonzero;"/><path d="M430.168,652.328c-1.4,-1.074 -3.418,-1.612 -6.055,-1.612c-3.418,0 -6.274,1.612 -8.569,4.834c-2.295,3.223 -3.443,7.618 -3.443,13.184l0,25.488l-8.008,0l0,-50l8.008,0l0,10.303l0.196,0c1.139,-3.516 2.88,-6.258 5.224,-8.228c2.344,-1.969 4.964,-2.954 7.862,-2.954c2.083,0 3.678,0.228 4.785,0.684l-0,8.301Z" style="fill-rule:nonzero;"/><path d="M474.65,694.222l-8.008,0l0,-7.812l-0.195,-0c-3.483,5.989 -8.61,8.984 -15.381,8.984c-4.98,0 -8.878,-1.318 -11.694,-3.955c-2.816,-2.637 -4.224,-6.136 -4.224,-10.498c0,-9.342 5.501,-14.779 16.504,-16.309l14.99,-2.099c0,-8.496 -3.434,-12.744 -10.302,-12.744c-6.023,-0 -11.459,2.05 -16.309,6.152l-0,-8.203c4.915,-3.125 10.579,-4.688 16.992,-4.688c11.751,0 17.627,6.218 17.627,18.653l0,32.519Zm-8.008,-25.293l-12.06,1.66c-3.711,0.521 -6.511,1.441 -8.399,2.759c-1.888,1.319 -2.832,3.654 -2.832,7.007c0,2.441 0.871,4.435 2.613,5.982c1.741,1.546 4.06,2.319 6.958,2.319c3.971,-0 7.251,-1.392 9.838,-4.175c2.588,-2.783 3.882,-6.307 3.882,-10.571l0,-4.981Z" style="fill-rule:nonzero;"/><path d="M512.931,693.734c-1.888,1.042 -4.378,1.562 -7.47,1.562c-8.757,0 -13.135,-4.882 -13.135,-14.648l-0,-29.59l-8.594,0l0,-6.836l8.594,0l-0,-12.207l8.008,-2.588l-0,14.795l12.597,0l0,6.836l-12.597,0l-0,28.174c-0,3.353 0.569,5.745 1.709,7.178c1.139,1.432 3.027,2.148 5.664,2.148c2.018,0 3.76,-0.553 5.224,-1.66l0,6.836Z" style="fill-rule:nonzero;"/><path d="M527.726,631.527c-1.432,-0 -2.653,-0.488 -3.662,-1.465c-1.009,-0.976 -1.514,-2.213 -1.514,-3.711c0,-1.497 0.505,-2.742 1.514,-3.735c1.009,-0.993 2.23,-1.489 3.662,-1.489c1.465,-0 2.71,0.496 3.736,1.489c1.025,0.993 1.538,2.238 1.538,3.735c-0,1.432 -0.513,2.653 -1.538,3.662c-1.026,1.009 -2.271,1.514 -3.736,1.514Zm3.907,62.695l-8.008,0l-0,-50l8.008,0l-0,50Z" style="fill-rule:nonzero;"/><path d="M589.347,694.222l-8.007,0l-0,-28.515c-0,-10.612 -3.874,-15.918 -11.622,-15.918c-4.003,-0 -7.316,1.505 -9.936,4.516c-2.621,3.011 -3.931,6.812 -3.931,11.402l0,28.515l-8.008,0l0,-50l8.008,0l0,8.301l0.196,0c3.776,-6.315 9.244,-9.473 16.406,-9.473c5.469,0 9.652,1.766 12.549,5.298c2.897,3.532 4.345,8.635 4.345,15.308l0,30.566Z" style="fill-rule:nonzero;"/><path d="M647.111,690.218c0,18.36 -8.789,27.539 -26.367,27.539c-6.185,0 -11.589,-1.171 -16.211,-3.515l-0,-8.008c5.631,3.125 11.003,4.687 16.113,4.687c12.305,0 18.457,-6.542 18.457,-19.628l0,-5.469l-0.195,-0c-3.809,6.38 -9.538,9.57 -17.188,9.57c-6.217,0 -11.222,-2.222 -15.014,-6.665c-3.793,-4.443 -5.689,-10.408 -5.689,-17.895c0,-8.496 2.043,-15.251 6.128,-20.264c4.086,-5.013 9.676,-7.52 16.773,-7.52c6.738,0 11.735,2.702 14.99,8.106l0.195,-0l0,-6.934l8.008,0l0,45.996Zm-8.008,-18.603l0,-7.373c0,-3.972 -1.343,-7.373 -4.028,-10.205c-2.686,-2.832 -6.03,-4.248 -10.034,-4.248c-4.948,-0 -8.822,1.798 -11.621,5.395c-2.8,3.597 -4.2,8.635 -4.2,15.112c0,5.567 1.343,10.018 4.029,13.355c2.685,3.337 6.242,5.005 10.669,5.005c4.492,-0 8.146,-1.595 10.962,-4.785c2.815,-3.19 4.223,-7.276 4.223,-12.256Z" style="fill-rule:nonzero;"/><path d="M688.517,691.39l0,-9.668c1.107,0.977 2.434,1.856 3.98,2.637c1.546,0.781 3.174,1.44 4.883,1.978c1.709,0.537 3.426,0.952 5.151,1.245c1.725,0.293 3.32,0.439 4.785,0.439c5.046,0 8.814,-0.936 11.304,-2.808c2.49,-1.871 3.735,-4.565 3.735,-8.081c0,-1.888 -0.415,-3.531 -1.245,-4.931c-0.83,-1.4 -1.977,-2.678 -3.442,-3.833c-1.465,-1.156 -3.199,-2.263 -5.201,-3.321c-2.001,-1.057 -4.158,-2.172 -6.469,-3.344c-2.442,-1.237 -4.72,-2.49 -6.836,-3.76c-2.116,-1.27 -3.955,-2.669 -5.518,-4.199c-1.562,-1.53 -2.791,-3.264 -3.686,-5.2c-0.895,-1.937 -1.343,-4.208 -1.343,-6.812c-0,-3.19 0.7,-5.965 2.1,-8.325c1.399,-2.36 3.238,-4.305 5.517,-5.835c2.279,-1.53 4.875,-2.669 7.788,-3.418c2.914,-0.749 5.884,-1.123 8.911,-1.123c6.901,-0 11.931,0.83 15.088,2.49l0,9.229c-4.134,-2.865 -9.44,-4.297 -15.918,-4.297c-1.79,-0 -3.58,0.187 -5.371,0.561c-1.79,0.375 -3.385,0.985 -4.785,1.831c-1.4,0.847 -2.539,1.937 -3.418,3.272c-0.879,1.334 -1.318,2.962 -1.318,4.883c-0,1.79 0.333,3.336 1.001,4.638c0.667,1.302 1.652,2.491 2.954,3.565c1.302,1.074 2.889,2.116 4.761,3.125c1.871,1.009 4.028,2.116 6.469,3.32c2.507,1.237 4.883,2.539 7.129,3.906c2.246,1.367 4.216,2.881 5.908,4.541c1.693,1.66 3.036,3.5 4.029,5.518c0.993,2.018 1.489,4.329 1.489,6.933c-0,3.451 -0.676,6.373 -2.026,8.765c-1.351,2.393 -3.174,4.338 -5.469,5.835c-2.295,1.498 -4.94,2.58 -7.935,3.247c-2.995,0.667 -6.152,1.001 -9.472,1.001c-1.107,0 -2.474,-0.089 -4.102,-0.268c-1.628,-0.179 -3.288,-0.44 -4.98,-0.782c-1.693,-0.341 -3.296,-0.765 -4.81,-1.269c-1.514,-0.505 -2.726,-1.066 -3.638,-1.685Z" style="fill-rule:nonzero;"/><path d="M780.705,644.222l-22.998,58.008c-4.102,10.352 -9.864,15.527 -17.285,15.527c-2.084,0 -3.825,-0.211 -5.225,-0.634l-0,-7.178c1.725,0.586 3.304,0.879 4.736,0.879c4.037,-0 7.064,-2.409 9.082,-7.227l4.004,-9.472l-19.531,-49.903l8.887,0l13.525,38.477c0.163,0.488 0.505,1.758 1.025,3.808l0.293,0c0.163,-0.781 0.489,-2.018 0.977,-3.711l14.209,-38.574l8.301,0Z" style="fill-rule:nonzero;"/><path d="M786.271,692.416l0,-8.594c4.362,3.223 9.164,4.834 14.404,4.834c7.032,-0 10.547,-2.344 10.547,-7.031c0,-1.335 -0.301,-2.466 -0.903,-3.394c-0.602,-0.928 -1.416,-1.75 -2.441,-2.466c-1.026,-0.716 -2.23,-1.359 -3.614,-1.928c-1.383,-0.57 -2.872,-1.164 -4.467,-1.783c-2.214,-0.879 -4.159,-1.766 -5.835,-2.661c-1.677,-0.895 -3.077,-1.904 -4.2,-3.027c-1.123,-1.123 -1.969,-2.401 -2.539,-3.833c-0.569,-1.432 -0.854,-3.109 -0.854,-5.029c-0,-2.344 0.537,-4.419 1.611,-6.226c1.074,-1.807 2.507,-3.32 4.297,-4.541c1.79,-1.221 3.833,-2.14 6.128,-2.759c2.295,-0.618 4.663,-0.928 7.104,-0.928c4.33,0 8.204,0.749 11.622,2.246l-0,8.106c-3.679,-2.409 -7.911,-3.613 -12.696,-3.613c-1.497,-0 -2.848,0.171 -4.052,0.512c-1.205,0.342 -2.238,0.822 -3.101,1.441c-0.863,0.618 -1.53,1.359 -2.002,2.221c-0.472,0.863 -0.708,1.815 -0.708,2.857c-0,1.302 0.236,2.393 0.708,3.271c0.472,0.879 1.164,1.661 2.075,2.344c0.912,0.684 2.018,1.302 3.32,1.856c1.303,0.553 2.784,1.155 4.444,1.806c2.213,0.847 4.199,1.717 5.957,2.613c1.758,0.895 3.255,1.904 4.492,3.027c1.237,1.123 2.189,2.417 2.857,3.882c0.667,1.465 1,3.206 1,5.224c0,2.474 -0.545,4.623 -1.635,6.446c-1.091,1.823 -2.547,3.336 -4.37,4.541c-1.823,1.204 -3.923,2.099 -6.299,2.685c-2.376,0.586 -4.867,0.879 -7.471,0.879c-5.143,0 -9.603,-0.993 -13.379,-2.978Z" style="fill-rule:nonzero;"/><path d="M854.924,693.734c-1.888,1.042 -4.379,1.562 -7.471,1.562c-8.757,0 -13.135,-4.882 -13.135,-14.648l0,-29.59l-8.594,0l0,-6.836l8.594,0l0,-12.207l8.008,-2.588l-0,14.795l12.598,0l-0,6.836l-12.598,0l-0,28.174c-0,3.353 0.57,5.745 1.709,7.178c1.139,1.432 3.027,2.148 5.664,2.148c2.018,0 3.76,-0.553 5.225,-1.66l-0,6.836Z" style="fill-rule:nonzero;"/><path d="M905.802,671.224l-35.302,0c0.13,5.567 1.627,9.864 4.492,12.891c2.864,3.027 6.803,4.541 11.816,4.541c5.632,-0 10.808,-1.856 15.528,-5.567l-0,7.52c-4.395,3.19 -10.205,4.785 -17.432,4.785c-7.064,0 -12.614,-2.27 -16.65,-6.811c-4.037,-4.541 -6.055,-10.93 -6.055,-19.165c-0,-7.78 2.205,-14.12 6.616,-19.019c4.411,-4.899 9.888,-7.349 16.431,-7.349c6.543,0 11.605,2.116 15.185,6.348c3.581,4.232 5.371,10.107 5.371,17.627l0,4.199Zm-8.203,-6.787c-0.032,-4.622 -1.147,-8.219 -3.344,-10.791c-2.198,-2.572 -5.249,-3.857 -9.156,-3.857c-3.776,-0 -6.982,1.351 -9.619,4.052c-2.637,2.702 -4.264,6.234 -4.883,10.596l27.002,0Z" style="fill-rule:nonzero;"/><path d="M988.908,694.222l-8.008,0l0,-28.711c0,-5.534 -0.854,-9.537 -2.563,-12.011c-1.709,-2.474 -4.582,-3.711 -8.619,-3.711c-3.418,-0 -6.323,1.562 -8.715,4.687c-2.393,3.125 -3.589,6.869 -3.589,11.231l-0,28.515l-8.008,0l-0,-29.687c-0,-9.831 -3.792,-14.746 -11.377,-14.746c-3.516,-0 -6.413,1.473 -8.691,4.419c-2.279,2.946 -3.418,6.779 -3.418,11.499l-0,28.515l-8.008,0l-0,-50l8.008,0l-0,7.91l0.195,0c3.548,-6.054 8.724,-9.082 15.527,-9.082c3.418,0 6.397,0.953 8.936,2.857c2.539,1.904 4.28,4.403 5.224,7.495c3.711,-6.901 9.245,-10.352 16.602,-10.352c11.003,0 16.504,6.788 16.504,20.362l-0,30.81Z" style="fill-rule:nonzero;"/><path d="M373.82,801.368l-25.928,70.02l-9.033,-0l-25.391,-70.02l9.131,0l19.385,55.518c0.619,1.79 1.091,3.857 1.416,6.201l0.195,-0c0.261,-1.953 0.798,-4.053 1.612,-6.299l19.775,-55.42l8.838,0Z" style="fill-rule:nonzero;"/><path d="M386.906,808.692c-1.432,0 -2.653,-0.488 -3.662,-1.465c-1.009,-0.976 -1.514,-2.213 -1.514,-3.71c0,-1.498 0.505,-2.743 1.514,-3.736c1.009,-0.993 2.23,-1.489 3.662,-1.489c1.465,-0 2.71,0.496 3.735,1.489c1.026,0.993 1.538,2.238 1.538,3.736c0,1.432 -0.512,2.653 -1.538,3.662c-1.025,1.009 -2.27,1.513 -3.735,1.513Zm3.906,62.696l-8.008,-0l0,-50l8.008,-0l0,50Z" style="fill-rule:nonzero;"/><path d="M433.097,829.493c-1.399,-1.074 -3.418,-1.611 -6.054,-1.611c-3.418,-0 -6.275,1.611 -8.57,4.834c-2.295,3.222 -3.442,7.617 -3.442,13.183l-0,25.489l-8.008,-0l0,-50l8.008,-0l-0,10.302l0.195,0c1.14,-3.515 2.881,-6.258 5.225,-8.227c2.344,-1.97 4.964,-2.954 7.861,-2.954c2.084,-0 3.679,0.228 4.785,0.683l0,8.301Z" style="fill-rule:nonzero;"/><path d="M464.982,870.899c-1.888,1.042 -4.378,1.563 -7.471,1.563c-8.756,-0 -13.134,-4.883 -13.134,-14.649l-0,-29.589l-8.594,-0l-0,-6.836l8.594,-0l-0,-12.207l8.007,-2.588l0,14.795l12.598,-0l0,6.836l-12.598,-0l0,28.173c0,3.353 0.57,5.746 1.709,7.178c1.14,1.432 3.028,2.149 5.665,2.149c2.018,-0 3.759,-0.554 5.224,-1.661l0,6.836Z" style="fill-rule:nonzero;"/><path d="M516.105,871.388l-8.008,-0l0,-7.911l-0.195,0c-3.32,6.055 -8.463,9.083 -15.43,9.083c-11.914,-0 -17.871,-7.097 -17.871,-21.29l0,-29.882l7.959,-0l0,28.613c0,10.547 4.037,15.82 12.11,15.82c3.906,0 7.12,-1.44 9.643,-4.321c2.523,-2.881 3.784,-6.649 3.784,-11.304l0,-28.808l8.008,-0l0,50Z" style="fill-rule:nonzero;"/><path d="M568.058,871.388l-8.008,-0l0,-7.813l-0.195,0c-3.483,5.99 -8.61,8.985 -15.381,8.985c-4.98,-0 -8.878,-1.319 -11.694,-3.956c-2.816,-2.636 -4.224,-6.136 -4.224,-10.498c0,-9.342 5.502,-14.778 16.504,-16.308l14.99,-2.1c0,-8.496 -3.434,-12.744 -10.302,-12.744c-6.022,0 -11.459,2.051 -16.309,6.152l0,-8.203c4.916,-3.125 10.58,-4.687 16.992,-4.687c11.752,-0 17.627,6.217 17.627,18.652l0,32.52Zm-8.008,-25.293l-12.06,1.66c-3.711,0.521 -6.51,1.44 -8.398,2.759c-1.889,1.318 -2.833,3.654 -2.833,7.006c0,2.442 0.871,4.436 2.613,5.982c1.741,1.546 4.061,2.319 6.958,2.319c3.971,0 7.251,-1.391 9.839,-4.175c2.588,-2.783 3.881,-6.307 3.881,-10.571l0,-4.98Z" style="fill-rule:nonzero;"/><rect x="583.146" y="797.364" width="8.008" height="74.023" style="fill-rule:nonzero;"/><path d="M611.467,808.692c-1.433,0 -2.653,-0.488 -3.663,-1.465c-1.009,-0.976 -1.513,-2.213 -1.513,-3.71c-0,-1.498 0.504,-2.743 1.513,-3.736c1.01,-0.993 2.23,-1.489 3.663,-1.489c1.464,-0 2.709,0.496 3.735,1.489c1.025,0.993 1.538,2.238 1.538,3.736c-0,1.432 -0.513,2.653 -1.538,3.662c-1.026,1.009 -2.271,1.513 -3.735,1.513Zm3.906,62.696l-8.008,-0l-0,-50l8.008,-0l-0,50Z" style="fill-rule:nonzero;"/><path d="M666.447,823.683l-29.59,40.869l29.297,-0l0,6.836l-41.064,-0l-0,-2.491l29.589,-40.673l-26.806,-0l-0,-6.836l38.574,-0l-0,2.295Z" style="fill-rule:nonzero;"/><path d="M712.59,871.388l-8.008,-0l-0,-7.813l-0.196,0c-3.483,5.99 -8.61,8.985 -15.38,8.985c-4.981,-0 -8.879,-1.319 -11.695,-3.956c-2.816,-2.636 -4.223,-6.136 -4.223,-10.498c-0,-9.342 5.501,-14.778 16.504,-16.308l14.99,-2.1c-0,-8.496 -3.435,-12.744 -10.303,-12.744c-6.022,0 -11.458,2.051 -16.309,6.152l0,-8.203c4.916,-3.125 10.58,-4.687 16.993,-4.687c11.751,-0 17.627,6.217 17.627,18.652l-0,32.52Zm-8.008,-25.293l-12.061,1.66c-3.711,0.521 -6.51,1.44 -8.398,2.759c-1.888,1.318 -2.832,3.654 -2.832,7.006c-0,2.442 0.87,4.436 2.612,5.982c1.742,1.546 4.061,2.319 6.958,2.319c3.971,0 7.251,-1.391 9.839,-4.175c2.588,-2.783 3.882,-6.307 3.882,-10.571l-0,-4.98Z" style="fill-rule:nonzero;"/><path d="M750.871,870.899c-1.888,1.042 -4.378,1.563 -7.471,1.563c-8.756,-0 -13.135,-4.883 -13.135,-14.649l0,-29.589l-8.593,-0l-0,-6.836l8.593,-0l0,-12.207l8.008,-2.588l0,14.795l12.598,-0l-0,6.836l-12.598,-0l0,28.173c0,3.353 0.57,5.746 1.709,7.178c1.139,1.432 3.027,2.149 5.664,2.149c2.018,-0 3.76,-0.554 5.225,-1.661l-0,6.836Z" style="fill-rule:nonzero;"/><path d="M765.666,808.692c-1.433,0 -2.653,-0.488 -3.662,-1.465c-1.009,-0.976 -1.514,-2.213 -1.514,-3.71c-0,-1.498 0.505,-2.743 1.514,-3.736c1.009,-0.993 2.229,-1.489 3.662,-1.489c1.465,-0 2.71,0.496 3.735,1.489c1.025,0.993 1.538,2.238 1.538,3.736c0,1.432 -0.513,2.653 -1.538,3.662c-1.025,1.009 -2.27,1.513 -3.735,1.513Zm3.906,62.696l-8.008,-0l0,-50l8.008,-0l-0,50Z" style="fill-rule:nonzero;"/><path d="M806.681,872.56c-7.389,-0 -13.289,-2.336 -17.7,-7.007c-4.411,-4.672 -6.616,-10.865 -6.616,-18.579c-0,-8.399 2.295,-14.958 6.885,-19.678c4.59,-4.72 10.791,-7.08 18.603,-7.08c7.455,-0 13.273,2.295 17.456,6.885c4.183,4.589 6.275,10.953 6.275,19.091c-0,7.976 -2.255,14.364 -6.763,19.165c-4.508,4.802 -10.555,7.203 -18.14,7.203Zm0.586,-45.606c-5.143,0 -9.212,1.75 -12.207,5.249c-2.995,3.499 -4.492,8.325 -4.492,14.478c0,5.924 1.514,10.595 4.541,14.013c3.027,3.418 7.08,5.127 12.158,5.127c5.176,0 9.156,-1.676 11.939,-5.029c2.783,-3.353 4.175,-8.122 4.175,-14.307c-0,-6.25 -1.392,-11.067 -4.175,-14.453c-2.783,-3.385 -6.763,-5.078 -11.939,-5.078Z" style="fill-rule:nonzero;"/><path d="M885.881,871.388l-8.008,-0l-0,-28.516c-0,-10.612 -3.874,-15.918 -11.621,-15.918c-4.004,0 -7.316,1.506 -9.937,4.517c-2.62,3.011 -3.931,6.811 -3.931,11.401l0,28.516l-8.007,-0l-0,-50l8.007,-0l0,8.3l0.196,0c3.776,-6.315 9.245,-9.472 16.406,-9.472c5.469,-0 9.652,1.766 12.549,5.298c2.897,3.532 4.346,8.634 4.346,15.307l-0,30.567Z" style="fill-rule:nonzero;"/><path d="M449.845,1045.72l0,-9.668c1.107,0.977 2.434,1.855 3.98,2.637c1.546,0.781 3.174,1.44 4.883,1.977c1.709,0.537 3.426,0.952 5.151,1.245c1.725,0.293 3.32,0.44 4.785,0.44c5.046,-0 8.814,-0.936 11.304,-2.808c2.49,-1.872 3.735,-4.565 3.735,-8.081c0,-1.888 -0.415,-3.532 -1.245,-4.931c-0.83,-1.4 -1.977,-2.678 -3.442,-3.834c-1.465,-1.155 -3.198,-2.262 -5.2,-3.32c-2.002,-1.058 -4.159,-2.173 -6.47,-3.345c-2.442,-1.237 -4.72,-2.49 -6.836,-3.759c-2.116,-1.27 -3.955,-2.67 -5.518,-4.2c-1.562,-1.529 -2.791,-3.263 -3.686,-5.2c-0.895,-1.937 -1.343,-4.207 -1.343,-6.811c0,-3.19 0.7,-5.965 2.1,-8.325c1.399,-2.36 3.239,-4.305 5.517,-5.835c2.279,-1.53 4.875,-2.67 7.788,-3.418c2.914,-0.749 5.884,-1.123 8.911,-1.123c6.902,-0 11.931,0.83 15.088,2.49l0,9.228c-4.134,-2.864 -9.44,-4.297 -15.918,-4.297c-1.79,0 -3.58,0.188 -5.371,0.562c-1.79,0.374 -3.385,0.985 -4.785,1.831c-1.4,0.846 -2.539,1.937 -3.418,3.272c-0.879,1.334 -1.318,2.962 -1.318,4.882c-0,1.791 0.333,3.337 1.001,4.639c0.667,1.302 1.652,2.49 2.954,3.564c1.302,1.075 2.889,2.116 4.761,3.125c1.871,1.01 4.028,2.116 6.469,3.321c2.507,1.237 4.883,2.539 7.129,3.906c2.246,1.367 4.216,2.881 5.908,4.541c1.693,1.66 3.036,3.499 4.029,5.518c0.993,2.018 1.489,4.329 1.489,6.933c0,3.451 -0.675,6.372 -2.026,8.765c-1.351,2.392 -3.174,4.337 -5.469,5.835c-2.295,1.497 -4.94,2.58 -7.935,3.247c-2.994,0.667 -6.152,1.001 -9.472,1.001c-1.107,-0 -2.474,-0.09 -4.102,-0.269c-1.627,-0.179 -3.288,-0.439 -4.98,-0.781c-1.693,-0.342 -3.296,-0.765 -4.81,-1.269c-1.514,-0.505 -2.726,-1.067 -3.638,-1.685Z" style="fill-rule:nonzero;"/><path d="M545.353,1025.56l-35.303,-0c0.131,5.566 1.628,9.863 4.493,12.891c2.864,3.027 6.803,4.541 11.816,4.541c5.632,-0 10.807,-1.856 15.527,-5.567l0,7.52c-4.394,3.19 -10.205,4.785 -17.431,4.785c-7.064,-0 -12.614,-2.271 -16.651,-6.812c-4.036,-4.541 -6.054,-10.929 -6.054,-19.165c-0,-7.78 2.205,-14.119 6.616,-19.018c4.411,-4.899 9.888,-7.349 16.431,-7.349c6.543,0 11.604,2.116 15.185,6.348c3.581,4.232 5.371,10.107 5.371,17.627l0,4.199Zm-8.203,-6.787c-0.032,-4.623 -1.147,-8.22 -3.345,-10.791c-2.197,-2.572 -5.249,-3.858 -9.155,-3.858c-3.776,0 -6.982,1.351 -9.619,4.053c-2.637,2.702 -4.264,6.234 -4.883,10.596l27.002,-0Z" style="fill-rule:nonzero;"/><path d="M583.537,1006.66c-1.4,-1.074 -3.418,-1.611 -6.055,-1.611c-3.418,0 -6.274,1.611 -8.569,4.834c-2.295,3.223 -3.443,7.617 -3.443,13.184l0,25.488l-8.007,-0l-0,-50l8.007,-0l0,10.303l0.196,-0c1.139,-3.516 2.881,-6.258 5.224,-8.228c2.344,-1.969 4.965,-2.954 7.862,-2.954c2.083,0 3.678,0.228 4.785,0.684l-0,8.3Z" style="fill-rule:nonzero;"/><path d="M631.535,998.553l-19.922,50l-7.861,-0l-18.946,-50l8.789,-0l12.696,36.328c0.944,2.669 1.53,4.997 1.758,6.983l0.195,-0c0.325,-2.507 0.846,-4.769 1.562,-6.788l13.282,-36.523l8.447,-0Z" style="fill-rule:nonzero;"/><path d="M680.314,1025.56l-35.303,-0c0.131,5.566 1.628,9.863 4.493,12.891c2.864,3.027 6.803,4.541 11.816,4.541c5.632,-0 10.807,-1.856 15.527,-5.567l0,7.52c-4.394,3.19 -10.205,4.785 -17.431,4.785c-7.064,-0 -12.614,-2.271 -16.651,-6.812c-4.036,-4.541 -6.054,-10.929 -6.054,-19.165c-0,-7.78 2.205,-14.119 6.616,-19.018c4.411,-4.899 9.888,-7.349 16.431,-7.349c6.542,0 11.604,2.116 15.185,6.348c3.581,4.232 5.371,10.107 5.371,17.627l0,4.199Zm-8.203,-6.787c-0.033,-4.623 -1.147,-8.22 -3.345,-10.791c-2.197,-2.572 -5.249,-3.858 -9.155,-3.858c-3.776,0 -6.982,1.351 -9.619,4.053c-2.637,2.702 -4.264,6.234 -4.883,10.596l27.002,-0Z" style="fill-rule:nonzero;"/><path d="M718.498,1006.66c-1.4,-1.074 -3.418,-1.611 -6.055,-1.611c-3.418,0 -6.274,1.611 -8.569,4.834c-2.295,3.223 -3.443,7.617 -3.443,13.184l0,25.488l-8.007,-0l-0,-50l8.007,-0l0,10.303l0.196,-0c1.139,-3.516 2.881,-6.258 5.224,-8.228c2.344,-1.969 4.964,-2.954 7.862,-2.954c2.083,0 3.678,0.228 4.785,0.684l-0,8.3Z" style="fill-rule:nonzero;"/><path d="M724.162,1046.75l-0,-8.593c4.362,3.222 9.163,4.834 14.404,4.834c7.031,-0 10.547,-2.344 10.547,-7.032c-0,-1.334 -0.301,-2.465 -0.903,-3.393c-0.603,-0.928 -1.416,-1.75 -2.442,-2.466c-1.025,-0.716 -2.23,-1.359 -3.613,-1.929c-1.383,-0.569 -2.873,-1.163 -4.468,-1.782c-2.213,-0.879 -4.158,-1.766 -5.835,-2.661c-1.676,-0.895 -3.076,-1.904 -4.199,-3.027c-1.123,-1.124 -1.969,-2.401 -2.539,-3.833c-0.57,-1.433 -0.855,-3.109 -0.855,-5.03c0,-2.344 0.538,-4.419 1.612,-6.225c1.074,-1.807 2.506,-3.321 4.297,-4.541c1.79,-1.221 3.833,-2.141 6.128,-2.759c2.295,-0.619 4.663,-0.928 7.104,-0.928c4.33,0 8.203,0.749 11.621,2.246l0,8.106c-3.678,-2.409 -7.91,-3.614 -12.695,-3.614c-1.498,0 -2.848,0.171 -4.053,0.513c-1.204,0.342 -2.238,0.822 -3.1,1.441c-0.863,0.618 -1.53,1.359 -2.002,2.221c-0.472,0.863 -0.708,1.815 -0.708,2.857c-0,1.302 0.236,2.392 0.708,3.271c0.472,0.879 1.163,1.66 2.075,2.344c0.911,0.683 2.018,1.302 3.32,1.855c1.302,0.554 2.783,1.156 4.443,1.807c2.214,0.846 4.2,1.717 5.958,2.612c1.757,0.895 3.255,1.905 4.492,3.028c1.237,1.123 2.189,2.417 2.856,3.881c0.667,1.465 1.001,3.207 1.001,5.225c0,2.474 -0.545,4.622 -1.636,6.445c-1.09,1.823 -2.547,3.337 -4.37,4.541c-1.823,1.205 -3.922,2.1 -6.299,2.686c-2.376,0.586 -4.866,0.879 -7.47,0.879c-5.144,-0 -9.603,-0.993 -13.379,-2.979Z" style="fill-rule:nonzero;"/><path d="M183.464,1222.89l-0,-9.668c1.106,0.977 2.433,1.856 3.979,2.637c1.546,0.781 3.174,1.44 4.883,1.978c1.709,0.537 3.426,0.952 5.151,1.245c1.726,0.293 3.321,0.439 4.785,0.439c5.046,0 8.814,-0.936 11.304,-2.807c2.49,-1.872 3.735,-4.566 3.735,-8.082c0,-1.888 -0.415,-3.531 -1.245,-4.931c-0.83,-1.4 -1.977,-2.678 -3.442,-3.833c-1.465,-1.156 -3.198,-2.263 -5.2,-3.32c-2.002,-1.058 -4.159,-2.173 -6.47,-3.345c-2.441,-1.237 -4.72,-2.49 -6.836,-3.76c-2.116,-1.269 -3.955,-2.669 -5.517,-4.199c-1.563,-1.53 -2.792,-3.264 -3.687,-5.2c-0.895,-1.937 -1.343,-4.208 -1.343,-6.812c0,-3.19 0.7,-5.965 2.1,-8.325c1.4,-2.36 3.239,-4.305 5.517,-5.835c2.279,-1.53 4.875,-2.669 7.789,-3.418c2.913,-0.749 5.883,-1.123 8.911,-1.123c6.901,-0 11.93,0.83 15.088,2.49l-0,9.229c-4.135,-2.865 -9.441,-4.297 -15.918,-4.297c-1.791,-0 -3.581,0.187 -5.372,0.561c-1.79,0.375 -3.385,0.985 -4.785,1.831c-1.399,0.847 -2.539,1.937 -3.418,3.272c-0.879,1.335 -1.318,2.962 -1.318,4.883c-0,1.79 0.334,3.336 1.001,4.638c0.667,1.302 1.652,2.491 2.954,3.565c1.302,1.074 2.889,2.116 4.761,3.125c1.872,1.009 4.028,2.116 6.47,3.32c2.506,1.237 4.882,2.539 7.128,3.906c2.247,1.368 4.216,2.881 5.909,4.541c1.692,1.661 3.035,3.5 4.028,5.518c0.993,2.018 1.489,4.329 1.489,6.934c0,3.45 -0.675,6.372 -2.026,8.764c-1.351,2.393 -3.174,4.338 -5.469,5.835c-2.295,1.498 -4.94,2.58 -7.934,3.247c-2.995,0.668 -6.153,1.001 -9.473,1.001c-1.107,0 -2.474,-0.089 -4.102,-0.268c-1.627,-0.179 -3.287,-0.44 -4.98,-0.782c-1.693,-0.341 -3.296,-0.765 -4.81,-1.269c-1.513,-0.505 -2.726,-1.066 -3.637,-1.685Z" style="fill-rule:nonzero;"/><path d="M258.757,1225.23c-1.888,1.042 -4.379,1.563 -7.471,1.563c-8.757,-0 -13.135,-4.883 -13.135,-14.649l0,-29.59l-8.594,0l0,-6.836l8.594,0l0,-12.207l8.008,-2.588l-0,14.795l12.598,0l-0,6.836l-12.598,0l-0,28.174c-0,3.353 0.57,5.746 1.709,7.178c1.139,1.432 3.027,2.148 5.664,2.148c2.018,0 3.76,-0.553 5.225,-1.66l-0,6.836Z" style="fill-rule:nonzero;"/><path d="M290.348,1226.89c-7.389,0 -13.289,-2.335 -17.7,-7.007c-4.411,-4.671 -6.616,-10.864 -6.616,-18.579c-0,-8.398 2.295,-14.957 6.885,-19.677c4.59,-4.721 10.791,-7.081 18.603,-7.081c7.455,0 13.273,2.295 17.456,6.885c4.183,4.59 6.275,10.954 6.275,19.092c-0,7.975 -2.255,14.364 -6.763,19.165c-4.508,4.801 -10.555,7.202 -18.14,7.202Zm0.586,-45.605c-5.143,-0 -9.212,1.749 -12.207,5.249c-2.995,3.499 -4.492,8.325 -4.492,14.477c0,5.925 1.514,10.596 4.541,14.014c3.027,3.418 7.08,5.127 12.158,5.127c5.176,-0 9.156,-1.676 11.939,-5.029c2.783,-3.353 4.175,-8.122 4.175,-14.307c-0,-6.25 -1.392,-11.068 -4.175,-14.453c-2.783,-3.386 -6.763,-5.078 -11.939,-5.078Z" style="fill-rule:nonzero;"/><path d="M354.118,1183.82c-1.4,-1.074 -3.418,-1.612 -6.055,-1.612c-3.418,0 -6.274,1.612 -8.569,4.834c-2.295,3.223 -3.443,7.618 -3.443,13.184l0,25.488l-8.007,0l-0,-50l8.007,0l0,10.303l0.196,0c1.139,-3.516 2.881,-6.258 5.224,-8.227c2.344,-1.97 4.965,-2.955 7.862,-2.955c2.083,0 3.678,0.228 4.785,0.684l-0,8.301Z" style="fill-rule:nonzero;"/><path d="M398.6,1225.72l-8.008,0l0,-7.812l-0.195,-0c-3.483,5.989 -8.61,8.984 -15.381,8.984c-4.98,0 -8.878,-1.318 -11.694,-3.955c-2.816,-2.637 -4.224,-6.136 -4.224,-10.498c0,-9.342 5.502,-14.779 16.504,-16.309l14.99,-2.099c0,-8.496 -3.434,-12.744 -10.302,-12.744c-6.022,-0 -11.459,2.051 -16.309,6.152l0,-8.203c4.916,-3.125 10.58,-4.688 16.992,-4.688c11.752,0 17.627,6.218 17.627,18.653l0,32.519Zm-8.008,-25.293l-12.06,1.661c-3.711,0.52 -6.51,1.44 -8.399,2.758c-1.888,1.319 -2.832,3.654 -2.832,7.007c0,2.442 0.871,4.435 2.613,5.982c1.741,1.546 4.061,2.319 6.958,2.319c3.971,-0 7.251,-1.392 9.839,-4.175c2.588,-2.783 3.881,-6.307 3.881,-10.571l0,-4.981Z" style="fill-rule:nonzero;"/><path d="M456.364,1221.71c-0,18.36 -8.789,27.539 -26.367,27.539c-6.185,0 -11.589,-1.171 -16.211,-3.515l-0,-8.008c5.631,3.125 11.002,4.688 16.113,4.688c12.305,-0 18.457,-6.543 18.457,-19.629l0,-5.469l-0.195,-0c-3.809,6.38 -9.538,9.57 -17.188,9.57c-6.217,0 -11.222,-2.221 -15.014,-6.665c-3.793,-4.443 -5.689,-10.408 -5.689,-17.895c0,-8.496 2.043,-15.251 6.128,-20.264c4.085,-5.013 9.676,-7.52 16.773,-7.52c6.738,0 11.735,2.702 14.99,8.106l0.195,-0l0,-6.934l8.008,0l-0,45.996Zm-8.008,-18.603l0,-7.373c0,-3.971 -1.343,-7.373 -4.028,-10.205c-2.686,-2.832 -6.03,-4.248 -10.034,-4.248c-4.948,-0 -8.822,1.798 -11.621,5.395c-2.8,3.597 -4.2,8.635 -4.2,15.113c0,5.566 1.343,10.017 4.029,13.354c2.685,3.337 6.242,5.005 10.669,5.005c4.492,-0 8.146,-1.595 10.962,-4.785c2.815,-3.19 4.223,-7.276 4.223,-12.256Z" style="fill-rule:nonzero;"/><path d="M512.76,1202.72l-35.302,0c0.13,5.567 1.627,9.864 4.492,12.891c2.864,3.027 6.803,4.541 11.816,4.541c5.632,-0 10.808,-1.856 15.528,-5.566l-0,7.519c-4.395,3.19 -10.205,4.785 -17.432,4.785c-7.064,0 -12.614,-2.27 -16.65,-6.811c-4.037,-4.541 -6.055,-10.93 -6.055,-19.165c-0,-7.78 2.205,-14.12 6.616,-19.019c4.411,-4.899 9.888,-7.349 16.431,-7.349c6.543,0 11.605,2.116 15.185,6.348c3.581,4.232 5.371,10.108 5.371,17.627l0,4.199Zm-8.203,-6.787c-0.032,-4.622 -1.147,-8.219 -3.344,-10.791c-2.198,-2.571 -5.249,-3.857 -9.156,-3.857c-3.776,-0 -6.982,1.351 -9.619,4.052c-2.637,2.702 -4.264,6.234 -4.883,10.596l27.002,0Z" style="fill-rule:nonzero;"/><path d="M614.714,1226.84c-1.856,0 -3.492,-0.252 -4.908,-0.756c-1.416,-0.505 -2.726,-1.221 -3.93,-2.149c-1.205,-0.928 -2.368,-2.059 -3.492,-3.393c-1.123,-1.335 -2.303,-2.849 -3.54,-4.541c-1.302,1.399 -2.807,2.75 -4.516,4.052c-1.709,1.302 -3.605,2.458 -5.689,3.467c-2.083,1.009 -4.362,1.815 -6.836,2.417c-2.474,0.602 -5.159,0.903 -8.056,0.903c-3.516,0 -6.739,-0.439 -9.668,-1.318c-2.93,-0.879 -5.436,-2.173 -7.52,-3.882c-2.083,-1.709 -3.703,-3.817 -4.858,-6.323c-1.156,-2.507 -1.734,-5.387 -1.734,-8.643c0,-4.98 1.416,-9.236 4.249,-12.768c2.832,-3.532 6.835,-6.421 12.011,-8.667c-0.976,-0.716 -1.953,-1.555 -2.929,-2.515c-0.977,-0.96 -1.848,-2.051 -2.613,-3.271c-0.765,-1.221 -1.383,-2.572 -1.855,-4.053c-0.472,-1.481 -0.708,-3.101 -0.708,-4.858c-0,-2.572 0.464,-4.851 1.391,-6.836c0.928,-1.986 2.206,-3.662 3.833,-5.03c1.628,-1.367 3.549,-2.4 5.762,-3.1c2.214,-0.7 4.606,-1.05 7.178,-1.05c2.539,-0 4.858,0.35 6.958,1.05c2.099,0.7 3.906,1.701 5.42,3.003c1.513,1.302 2.693,2.864 3.54,4.687c0.846,1.823 1.269,3.858 1.269,6.104c0,3.906 -1.115,7.153 -3.344,9.741c-2.23,2.588 -5.575,4.793 -10.035,6.616c2.247,0.879 4.281,1.953 6.104,3.223c1.823,1.269 3.507,2.685 5.054,4.248c1.546,1.562 2.986,3.239 4.321,5.029c1.335,1.79 2.653,3.646 3.955,5.567c2.637,-3.679 4.622,-7.732 5.957,-12.159c1.335,-4.427 2.002,-9.065 2.002,-13.916c0,-1.237 -0.073,-2.4 -0.22,-3.491c-0.146,-1.09 -0.35,-2.173 -0.61,-3.247l7.764,0c0.26,1.074 0.415,2.091 0.463,3.052c0.049,0.96 0.106,2.108 0.171,3.442c0,2.962 -0.309,5.941 -0.927,8.936c-0.619,2.994 -1.449,5.9 -2.491,8.716c-1.041,2.815 -2.254,5.493 -3.637,8.032c-1.384,2.539 -2.84,4.866 -4.37,6.982c1.139,1.563 2.181,2.922 3.125,4.077c0.944,1.156 1.896,2.124 2.856,2.906c0.96,0.781 1.953,1.359 2.979,1.733c1.025,0.374 2.189,0.562 3.491,0.562c0.976,-0 1.969,-0.131 2.978,-0.391c1.009,-0.261 2.051,-0.586 3.125,-0.977l0,7.422c-1.172,0.456 -2.4,0.798 -3.686,1.026c-1.286,0.227 -2.547,0.341 -3.784,0.341Zm-40.967,-6.933c2.474,-0 4.752,-0.269 6.836,-0.806c2.083,-0.537 4.004,-1.253 5.761,-2.148c1.758,-0.895 3.353,-1.937 4.786,-3.125c1.432,-1.188 2.734,-2.434 3.906,-3.736c-1.986,-3.092 -3.817,-5.737 -5.493,-7.934c-1.677,-2.197 -3.369,-4.094 -5.078,-5.689c-1.709,-1.595 -3.532,-2.962 -5.469,-4.101c-1.937,-1.14 -4.175,-2.198 -6.714,-3.174c-2.051,0.814 -3.939,1.717 -5.664,2.71c-1.725,0.993 -3.215,2.165 -4.468,3.515c-1.253,1.351 -2.238,2.922 -2.954,4.712c-0.716,1.791 -1.074,3.89 -1.074,6.299c-0,2.214 0.407,4.167 1.22,5.86c0.814,1.692 1.929,3.1 3.345,4.223c1.416,1.123 3.068,1.97 4.956,2.539c1.888,0.57 3.923,0.855 6.104,0.855Zm12.207,-49.854c-0,-1.627 -0.301,-3.011 -0.904,-4.15c-0.602,-1.139 -1.367,-2.083 -2.294,-2.832c-0.928,-0.749 -1.962,-1.294 -3.101,-1.636c-1.139,-0.342 -2.262,-0.513 -3.369,-0.513c-3.19,0 -5.737,0.863 -7.642,2.588c-1.904,1.726 -2.872,4.069 -2.905,7.032c-0,1.334 0.203,2.587 0.61,3.759c0.407,1.172 0.977,2.263 1.709,3.272c0.733,1.009 1.587,1.904 2.564,2.685c0.976,0.782 2.018,1.449 3.125,2.002c4.101,-1.432 7.161,-3.1 9.179,-5.005c2.019,-1.904 3.028,-4.305 3.028,-7.202Z" style="fill-rule:nonzero;"/><path d="M717.204,1225.72l-10.059,0l-36.035,-55.81c-0.911,-1.4 -1.66,-2.865 -2.246,-4.395l-0.293,0c0.26,1.498 0.391,4.704 0.391,9.619l-0,50.586l-8.204,0l0,-70.019l10.645,-0l35.059,54.931c1.464,2.279 2.408,3.842 2.832,4.688l0.195,-0c-0.326,-2.018 -0.488,-5.453 -0.488,-10.303l-0,-49.316l8.203,-0l-0,70.019Z" style="fill-rule:nonzero;"/><path d="M774.675,1202.72l-35.303,0c0.13,5.567 1.627,9.864 4.492,12.891c2.865,3.027 6.803,4.541 11.816,4.541c5.632,-0 10.808,-1.856 15.528,-5.566l-0,7.519c-4.395,3.19 -10.205,4.785 -17.432,4.785c-7.064,0 -12.614,-2.27 -16.65,-6.811c-4.037,-4.541 -6.055,-10.93 -6.055,-19.165c-0,-7.78 2.205,-14.12 6.616,-19.019c4.411,-4.899 9.888,-7.349 16.431,-7.349c6.543,0 11.605,2.116 15.185,6.348c3.581,4.232 5.372,10.108 5.372,17.627l-0,4.199Zm-8.204,-6.787c-0.032,-4.622 -1.147,-8.219 -3.344,-10.791c-2.198,-2.571 -5.249,-3.857 -9.156,-3.857c-3.776,-0 -6.982,1.351 -9.619,4.052c-2.636,2.702 -4.264,6.234 -4.883,10.596l27.002,0Z" style="fill-rule:nonzero;"/><path d="M809.977,1225.23c-1.888,1.042 -4.378,1.563 -7.47,1.563c-8.757,-0 -13.135,-4.883 -13.135,-14.649l-0,-29.59l-8.594,0l0,-6.836l8.594,0l-0,-12.207l8.008,-2.588l-0,14.795l12.597,0l0,6.836l-12.597,0l-0,28.174c-0,3.353 0.569,5.746 1.709,7.178c1.139,1.432 3.027,2.148 5.664,2.148c2.018,0 3.759,-0.553 5.224,-1.66l0,6.836Z" style="fill-rule:nonzero;"/><path d="M883.659,1175.72l-14.99,50l-8.301,0l-10.303,-35.791c-0.39,-1.367 -0.651,-2.913 -0.781,-4.638l-0.195,-0c-0.098,1.172 -0.44,2.685 -1.026,4.541l-11.181,35.888l-8.008,0l-15.137,-50l8.398,0l10.352,37.598c0.326,1.139 0.553,2.637 0.684,4.492l0.39,0c0.098,-1.432 0.391,-2.962 0.879,-4.59l11.524,-37.5l7.324,0l10.351,37.696c0.326,1.204 0.57,2.701 0.733,4.492l0.39,-0c0.066,-1.27 0.342,-2.767 0.83,-4.492l10.157,-37.696l7.91,0Z" style="fill-rule:nonzero;"/><path d="M913.835,1226.89c-7.39,0 -13.29,-2.335 -17.701,-7.007c-4.41,-4.671 -6.616,-10.864 -6.616,-18.579c0,-8.398 2.295,-14.957 6.885,-19.677c4.59,-4.721 10.791,-7.081 18.604,-7.081c7.454,0 13.273,2.295 17.456,6.885c4.183,4.59 6.274,10.954 6.274,19.092c0,7.975 -2.254,14.364 -6.763,19.165c-4.508,4.801 -10.555,7.202 -18.139,7.202Zm0.586,-45.605c-5.144,-0 -9.213,1.749 -12.207,5.249c-2.995,3.499 -4.493,8.325 -4.493,14.477c0,5.925 1.514,10.596 4.541,14.014c3.028,3.418 7.08,5.127 12.159,5.127c5.175,-0 9.155,-1.676 11.938,-5.029c2.783,-3.353 4.175,-8.122 4.175,-14.307c-0,-6.25 -1.392,-11.068 -4.175,-14.453c-2.783,-3.386 -6.763,-5.078 -11.938,-5.078Z" style="fill-rule:nonzero;"/><path d="M977.604,1183.82c-1.4,-1.074 -3.418,-1.612 -6.054,-1.612c-3.418,0 -6.275,1.612 -8.57,4.834c-2.295,3.223 -3.442,7.618 -3.442,13.184l-0,25.488l-8.008,0l-0,-50l8.008,0l-0,10.303l0.195,0c1.139,-3.516 2.881,-6.258 5.225,-8.227c2.343,-1.97 4.964,-2.955 7.861,-2.955c2.083,0 3.678,0.228 4.785,0.684l0,8.301Z" style="fill-rule:nonzero;"/><path d="M1027.8,1225.72l-11.231,0l-22.07,-24.023l-0.196,-0l0,24.023l-8.007,0l-0,-74.023l8.007,-0l0,46.924l0.196,-0l20.996,-22.901l10.498,0l-23.193,24.121l25,25.879Z" style="fill-rule:nonzero;"/><path d="M1163.75,1277.29l-0,-1240.16" style="fill:none;stroke:#000;stroke-width:4.07px;"/><path d="M1577.14,1277.29l-0,-1240.16" style="fill:none;stroke:#000;stroke-width:4.07px;"/><path d="M1990.52,1277.29l-0,-1240.16" style="fill:none;stroke:#000;stroke-width:4.07px;"/><path d="M2403.91,1277.29l0,-1240.16" style="fill:none;stroke:#000;stroke-width:4.07px;"/><path d="M41.703,214.297l2775.59,0" style="fill:none;stroke:#000;stroke-width:4.07px;"/><path d="M41.703,391.463l2775.59,-0" style="fill:none;stroke:#000;stroke-width:4.07px;"/><path d="M41.703,568.628l2775.59,-0" style="fill:none;stroke:#000;stroke-width:4.07px;"/><path d="M41.703,745.793l2775.59,0" style="fill:none;stroke:#000;stroke-width:4.07px;"/><path d="M41.703,922.959l2775.59,-0" style="fill:none;stroke:#000;stroke-width:4.07px;"/><path d="M41.703,1100.12l2775.59,-0" style="fill:none;stroke:#000;stroke-width:4.07px;"/><path d="M1828.12,280.734l-0,44.292c-0,12.222 -9.923,22.145 -22.146,22.145l-44.291,0c-12.223,0 -22.146,-9.923 -22.146,-22.145l0,-44.292c0,-12.222 9.923,-22.145 22.146,-22.145l44.291,-0c12.223,-0 22.146,9.923 22.146,22.145Z" style="fill:#00f;"/><path d="M2241.51,280.734l-0,44.292c-0,12.222 -9.923,22.145 -22.146,22.145l-44.291,0c-12.223,0 -22.146,-9.923 -22.146,-22.145l0,-44.292c0,-12.222 9.923,-22.145 22.146,-22.145l44.291,-0c12.223,-0 22.146,9.923 22.146,22.145Z" style="fill:#00f;"/><path d="M2654.89,280.734l-0,44.292c-0,12.222 -9.924,22.145 -22.146,22.145l-44.291,0c-12.223,0 -22.146,-9.923 -22.146,-22.145l-0,-44.292c-0,-12.222 9.923,-22.145 22.146,-22.145l44.291,-0c12.222,-0 22.146,9.923 22.146,22.145Z" style="fill:#00f;"/><path d="M1414.73,280.734l0,44.292c0,12.222 -9.923,22.145 -22.146,22.145l-44.291,0c-12.222,0 -22.146,-9.923 -22.146,-22.145l0,-44.292c0,-12.222 9.924,-22.145 22.146,-22.145l44.291,-0c12.223,-0 22.146,9.923 22.146,22.145Z" style="fill:#00f;"/><path d="M1828.12,811.921l-0,44.291c-0,12.223 -9.923,22.146 -22.146,22.146l-44.291,0c-12.223,0 -22.146,-9.923 -22.146,-22.146l0,-44.291c0,-12.222 9.923,-22.146 22.146,-22.146l44.291,0c12.223,0 22.146,9.924 22.146,22.146Z" style="fill:#f00;"/><path d="M2241.51,811.921l-0,44.291c-0,12.223 -9.923,22.146 -22.146,22.146l-44.291,0c-12.223,0 -22.146,-9.923 -22.146,-22.146l0,-44.291c0,-12.222 9.923,-22.146 22.146,-22.146l44.291,0c12.223,0 22.146,9.924 22.146,22.146Z" style="fill:#f00;"/><path d="M1414.73,811.921l0,44.291c0,12.223 -9.923,22.146 -22.146,22.146l-44.291,0c-12.222,0 -22.146,-9.923 -22.146,-22.146l0,-44.291c0,-12.222 9.924,-22.146 22.146,-22.146l44.291,0c12.223,0 22.146,9.924 22.146,22.146Z" style="fill:#f00;"/><path d="M2654.89,811.921l-0,44.291c-0,12.223 -9.924,22.146 -22.146,22.146l-44.291,0c-12.223,0 -22.146,-9.923 -22.146,-22.146l-0,-44.291c-0,-12.222 9.923,-22.146 22.146,-22.146l44.291,0c12.222,0 22.146,9.924 22.146,22.146Z" style="fill:#f00;"/><path d="M1828.12,988.189l-0,44.292c-0,12.222 -9.923,22.145 -22.146,22.145l-44.291,0c-12.223,0 -22.146,-9.923 -22.146,-22.145l0,-44.292c0,-12.222 9.923,-22.145 22.146,-22.145l44.291,-0c12.223,-0 22.146,9.923 22.146,22.145Z" style="fill:#f00;"/><path d="M2241.51,988.189l-0,44.292c-0,12.222 -9.923,22.145 -22.146,22.145l-44.291,0c-12.223,0 -22.146,-9.923 -22.146,-22.145l0,-44.292c0,-12.222 9.923,-22.145 22.146,-22.145l44.291,-0c12.223,-0 22.146,9.923 22.146,22.145Z" style="fill:#f00;"/><path d="M1414.73,988.189l0,44.292c0,12.222 -9.923,22.145 -22.146,22.145l-44.291,0c-12.222,0 -22.146,-9.923 -22.146,-22.145l0,-44.292c0,-12.222 9.924,-22.145 22.146,-22.145l44.291,-0c12.223,-0 22.146,9.923 22.146,22.145Z" style="fill:#f00;"/><path d="M2654.89,988.189l-0,44.292c-0,12.222 -9.924,22.145 -22.146,22.145l-44.291,0c-12.223,0 -22.146,-9.923 -22.146,-22.145l-0,-44.292c-0,-12.222 9.923,-22.145 22.146,-22.145l44.291,-0c12.222,-0 22.146,9.923 22.146,22.145Z" style="fill:#f00;"/><path d="M1828.12,1166.56l-0,44.291c-0,12.223 -9.923,22.146 -22.146,22.146l-44.291,-0c-12.223,-0 -22.146,-9.923 -22.146,-22.146l0,-44.291c0,-12.223 9.923,-22.146 22.146,-22.146l44.291,0c12.223,0 22.146,9.923 22.146,22.146Z" style="fill:#f00;"/><path d="M2241.51,1166.56l-0,44.291c-0,12.223 -9.923,22.146 -22.146,22.146l-44.291,-0c-12.223,-0 -22.146,-9.923 -22.146,-22.146l0,-44.291c0,-12.223 9.923,-22.146 22.146,-22.146l44.291,0c12.223,0 22.146,9.923 22.146,22.146Z" style="fill:#f00;"/><path d="M1414.73,1166.56l0,44.291c0,12.223 -9.923,22.146 -22.146,22.146l-44.291,-0c-12.222,-0 -22.146,-9.923 -22.146,-22.146l0,-44.291c0,-12.223 9.924,-22.146 22.146,-22.146l44.291,0c12.223,0 22.146,9.923 22.146,22.146Z" style="fill:#f00;"/><path d="M2654.89,1166.56l-0,44.291c-0,12.223 -9.924,22.146 -22.146,22.146l-44.291,-0c-12.223,-0 -22.146,-9.923 -22.146,-22.146l-0,-44.291c-0,-12.223 9.923,-22.146 22.146,-22.146l44.291,0c12.222,0 22.146,9.923 22.146,22.146Z" style="fill:#f00;"/><path d="M2654.89,635.065l-0,44.291c-0,12.223 -9.924,22.146 -22.146,22.146l-44.291,-0c-12.223,-0 -22.146,-9.923 -22.146,-22.146l-0,-44.291c-0,-12.223 9.923,-22.146 22.146,-22.146l44.291,0c12.222,0 22.146,9.923 22.146,22.146Z" style="fill:#00f;"/><path d="M1828.12,457.9l-0,44.291c-0,12.222 -9.923,22.146 -22.146,22.146l-44.291,-0c-12.223,-0 -22.146,-9.924 -22.146,-22.146l0,-44.291c0,-12.223 9.923,-22.146 22.146,-22.146l44.291,-0c12.223,-0 22.146,9.923 22.146,22.146Z" style="fill:#00f;"/><path d="M2241.51,454.621l-0,44.291c-0,12.222 -9.923,22.146 -22.146,22.146l-44.291,-0c-12.223,-0 -22.146,-9.924 -22.146,-22.146l0,-44.291c0,-12.223 9.923,-22.146 22.146,-22.146l44.291,-0c12.223,-0 22.146,9.923 22.146,22.146Z" style="fill:#00f;"/><path d="M2654.89,457.9l-0,44.291c-0,12.222 -9.924,22.146 -22.146,22.146l-44.291,-0c-12.223,-0 -22.146,-9.924 -22.146,-22.146l-0,-44.291c-0,-12.223 9.923,-22.146 22.146,-22.146l44.291,-0c12.222,-0 22.146,9.923 22.146,22.146Z" style="fill:#00f;"/><path d="M1414.73,457.9l0,44.291c0,12.222 -9.923,22.146 -22.146,22.146l-44.291,-0c-12.222,-0 -22.146,-9.924 -22.146,-22.146l0,-44.291c0,-12.223 9.924,-22.146 22.146,-22.146l44.291,-0c12.223,-0 22.146,9.923 22.146,22.146Z" style="fill:#f00;"/><path d="M1414.73,635.065l0,44.291c0,12.223 -9.923,22.146 -22.146,22.146l-44.291,-0c-12.222,-0 -22.146,-9.923 -22.146,-22.146l0,-44.291c0,-12.223 9.924,-22.146 22.146,-22.146l44.291,0c12.223,0 22.146,9.923 22.146,22.146Z" style="fill:#f00;"/><path d="M1829.2,635.065l-0,44.291c-0,12.223 -9.923,22.146 -22.146,22.146l-44.291,-0c-12.223,-0 -22.146,-9.923 -22.146,-22.146l0,-44.291c0,-12.223 9.923,-22.146 22.146,-22.146l44.291,0c12.223,0 22.146,9.923 22.146,22.146Z" style="fill:#f00;"/><path d="M2241.51,635.065l-0,44.291c-0,12.223 -9.923,22.146 -22.146,22.146l-44.291,-0c-12.223,-0 -22.146,-9.923 -22.146,-22.146l0,-44.291c0,-12.223 9.923,-22.146 22.146,-22.146l44.291,0c12.223,0 22.146,9.923 22.146,22.146Z" style="fill:#f00;"/><path d="M1870.67,476.021l-13.379,2.735l9.277,11.865l-5.371,3.711l-7.617,-12.94l-7.715,12.94l-5.371,-3.711l9.277,-11.865l-13.476,-2.735l2.197,-6.103l12.793,4.834l-1.123,-14.844l6.738,0l-1.123,14.844l12.842,-4.834l2.051,6.103Z" style="fill-rule:nonzero;"/></g><g id="legend"><rect x="2935.4" y="509.549" width="565.522" height="295.323" style="fill:none;stroke:#000;stroke-width:4.17px;"/><path d="M3034.04,581.468l-6.511,-0l-7.812,-13.086c-0.716,-1.216 -1.411,-2.252 -2.083,-3.109c-0.673,-0.857 -1.362,-1.557 -2.067,-2.1c-0.706,-0.542 -1.465,-0.938 -2.279,-1.188c-0.814,-0.249 -1.731,-0.374 -2.751,-0.374l-4.492,-0l0,19.857l-5.469,-0l0,-46.68l13.933,-0c2.04,-0 3.922,0.255 5.647,0.765c1.726,0.51 3.223,1.286 4.493,2.327c1.269,1.042 2.262,2.339 2.978,3.89c0.716,1.552 1.074,3.37 1.074,5.453c0,1.627 -0.244,3.119 -0.732,4.476c-0.488,1.356 -1.183,2.566 -2.083,3.629c-0.901,1.064 -1.986,1.97 -3.256,2.718c-1.269,0.749 -2.696,1.33 -4.28,1.742l-0,0.13c0.781,0.347 1.459,0.743 2.034,1.188c0.575,0.445 1.123,0.971 1.644,1.579c0.521,0.608 1.036,1.297 1.546,2.067c0.51,0.771 1.08,1.666 1.709,2.686l8.757,14.03Zm-27.995,-41.732l0,16.927l7.422,-0c1.367,-0 2.631,-0.206 3.792,-0.618c1.161,-0.413 2.165,-1.004 3.011,-1.775c0.847,-0.77 1.509,-1.714 1.986,-2.832c0.477,-1.117 0.716,-2.37 0.716,-3.759c0,-2.496 -0.808,-4.444 -2.425,-5.843c-1.617,-1.4 -3.955,-2.1 -7.015,-2.1l-7.487,-0Z" style="fill-rule:nonzero;"/><path d="M3064.58,566.136l-23.535,-0c0.086,3.711 1.085,6.575 2.994,8.593c1.91,2.019 4.536,3.028 7.878,3.028c3.754,-0 7.205,-1.237 10.352,-3.711l-0,5.013c-2.93,2.127 -6.804,3.19 -11.622,3.19c-4.709,-0 -8.409,-1.514 -11.1,-4.541c-2.691,-3.027 -4.036,-7.286 -4.036,-12.777c-0,-5.186 1.47,-9.413 4.411,-12.679c2.94,-3.266 6.591,-4.899 10.953,-4.899c4.362,0 7.737,1.411 10.124,4.232c2.387,2.821 3.581,6.738 3.581,11.751l-0,2.8Zm-5.469,-4.525c-0.022,-3.082 -0.765,-5.48 -2.23,-7.194c-1.465,-1.715 -3.499,-2.572 -6.103,-2.572c-2.518,0 -4.655,0.901 -6.413,2.702c-1.758,1.801 -2.843,4.156 -3.255,7.064l18.001,-0Z" style="fill-rule:nonzero;"/><path d="M3070.63,580.263l0,-5.729c2.908,2.149 6.109,3.223 9.603,3.223c4.688,-0 7.032,-1.563 7.032,-4.688c-0,-0.89 -0.201,-1.644 -0.603,-2.262c-0.401,-0.619 -0.944,-1.167 -1.627,-1.644c-0.684,-0.477 -1.487,-0.906 -2.409,-1.286c-0.922,-0.38 -1.915,-0.776 -2.979,-1.188c-1.475,-0.586 -2.772,-1.177 -3.89,-1.774c-1.117,-0.597 -2.05,-1.27 -2.799,-2.018c-0.749,-0.749 -1.313,-1.601 -1.693,-2.556c-0.38,-0.954 -0.569,-2.072 -0.569,-3.352c-0,-1.563 0.358,-2.946 1.074,-4.151c0.716,-1.204 1.671,-2.213 2.864,-3.027c1.194,-0.814 2.556,-1.427 4.086,-1.839c1.53,-0.413 3.108,-0.619 4.736,-0.619c2.886,0 5.469,0.499 7.747,1.497l0,5.404c-2.452,-1.606 -5.273,-2.409 -8.463,-2.409c-0.998,0 -1.899,0.114 -2.702,0.342c-0.803,0.228 -1.492,0.548 -2.067,0.96c-0.575,0.413 -1.02,0.906 -1.335,1.481c-0.314,0.576 -0.472,1.21 -0.472,1.905c0,0.868 0.158,1.595 0.472,2.181c0.315,0.586 0.776,1.107 1.384,1.562c0.607,0.456 1.345,0.868 2.213,1.237c0.868,0.369 1.856,0.771 2.963,1.205c1.475,0.564 2.799,1.144 3.971,1.741c1.172,0.597 2.17,1.27 2.995,2.018c0.824,0.749 1.459,1.612 1.904,2.588c0.445,0.977 0.667,2.138 0.667,3.483c0,1.65 -0.363,3.082 -1.09,4.297c-0.727,1.216 -1.698,2.225 -2.914,3.028c-1.215,0.803 -2.615,1.399 -4.199,1.79c-1.584,0.391 -3.244,0.586 -4.98,0.586c-3.429,-0 -6.402,-0.662 -8.92,-1.986Z" style="fill-rule:nonzero;"/><path d="M3106.41,576.65l-0.13,-0l-0,20.15l-5.339,-0l0,-48.666l5.339,0l-0,5.86l0.13,-0c2.626,-4.427 6.467,-6.641 11.524,-6.641c4.296,0 7.649,1.492 10.058,4.476c2.409,2.984 3.613,6.982 3.613,11.995c0,5.578 -1.356,10.043 -4.069,13.396c-2.712,3.353 -6.423,5.029 -11.132,5.029c-4.319,-0 -7.65,-1.866 -9.994,-5.599Zm-0.13,-13.444l-0,4.655c-0,2.756 0.895,5.094 2.686,7.015c1.79,1.92 4.063,2.881 6.819,2.881c3.234,-0 5.767,-1.237 7.601,-3.711c1.834,-2.474 2.751,-5.914 2.751,-10.319c-0,-3.711 -0.857,-6.619 -2.572,-8.724c-1.714,-2.105 -4.036,-3.158 -6.966,-3.158c-3.103,0 -5.599,1.08 -7.487,3.239c-1.888,2.16 -2.832,4.867 -2.832,8.122Z" style="fill-rule:nonzero;"/><path d="M3154.06,582.249c-4.926,-0 -8.859,-1.557 -11.8,-4.671c-2.94,-3.114 -4.411,-7.243 -4.411,-12.386c0,-5.599 1.53,-9.972 4.59,-13.119c3.06,-3.147 7.194,-4.72 12.403,-4.72c4.969,0 8.848,1.53 11.637,4.59c2.789,3.06 4.183,7.302 4.183,12.728c-0,5.317 -1.503,9.576 -4.508,12.777c-3.006,3.2 -7.037,4.801 -12.094,4.801Zm0.391,-30.404c-3.429,0 -6.141,1.167 -8.138,3.5c-1.997,2.333 -2.995,5.55 -2.995,9.651c0,3.95 1.009,7.064 3.028,9.343c2.018,2.278 4.72,3.418 8.105,3.418c3.451,-0 6.104,-1.118 7.959,-3.353c1.855,-2.235 2.783,-5.415 2.783,-9.538c0,-4.167 -0.928,-7.378 -2.783,-9.635c-1.855,-2.257 -4.508,-3.386 -7.959,-3.386Z" style="fill-rule:nonzero;"/><path d="M3206.86,581.468l-5.339,-0l0,-19.011c0,-7.074 -2.582,-10.612 -7.747,-10.612c-2.669,0 -4.877,1.004 -6.624,3.011c-1.747,2.008 -2.621,4.541 -2.621,7.601l0,19.011l-5.338,-0l-0,-33.334l5.338,0l0,5.534l0.13,0c2.518,-4.21 6.164,-6.315 10.938,-6.315c3.646,0 6.434,1.177 8.366,3.532c1.931,2.355 2.897,5.756 2.897,10.205l-0,20.378Z" style="fill-rule:nonzero;"/><path d="M3214.9,580.263l0,-5.729c2.908,2.149 6.109,3.223 9.603,3.223c4.688,-0 7.031,-1.563 7.031,-4.688c0,-0.89 -0.2,-1.644 -0.602,-2.262c-0.401,-0.619 -0.944,-1.167 -1.627,-1.644c-0.684,-0.477 -1.487,-0.906 -2.409,-1.286c-0.923,-0.38 -1.915,-0.776 -2.979,-1.188c-1.476,-0.586 -2.772,-1.177 -3.89,-1.774c-1.117,-0.597 -2.051,-1.27 -2.799,-2.018c-0.749,-0.749 -1.313,-1.601 -1.693,-2.556c-0.38,-0.954 -0.57,-2.072 -0.57,-3.352c0,-1.563 0.358,-2.946 1.075,-4.151c0.716,-1.204 1.671,-2.213 2.864,-3.027c1.194,-0.814 2.556,-1.427 4.085,-1.839c1.53,-0.413 3.109,-0.619 4.737,-0.619c2.886,0 5.469,0.499 7.747,1.497l0,5.404c-2.452,-1.606 -5.273,-2.409 -8.463,-2.409c-0.999,0 -1.899,0.114 -2.702,0.342c-0.803,0.228 -1.492,0.548 -2.067,0.96c-0.575,0.413 -1.02,0.906 -1.335,1.481c-0.315,0.576 -0.472,1.21 -0.472,1.905c0,0.868 0.157,1.595 0.472,2.181c0.315,0.586 0.776,1.107 1.384,1.562c0.607,0.456 1.345,0.868 2.213,1.237c0.868,0.369 1.856,0.771 2.962,1.205c1.476,0.564 2.8,1.144 3.972,1.741c1.172,0.597 2.17,1.27 2.995,2.018c0.824,0.749 1.459,1.612 1.904,2.588c0.445,0.977 0.667,2.138 0.667,3.483c0,1.65 -0.363,3.082 -1.09,4.297c-0.727,1.216 -1.698,2.225 -2.914,3.028c-1.215,0.803 -2.615,1.399 -4.199,1.79c-1.584,0.391 -3.244,0.586 -4.98,0.586c-3.429,-0 -6.402,-0.662 -8.92,-1.986Z" style="fill-rule:nonzero;"/><path d="M3247.94,539.671c-0.955,-0 -1.769,-0.326 -2.442,-0.977c-0.673,-0.651 -1.009,-1.475 -1.009,-2.474c0,-0.998 0.336,-1.828 1.009,-2.49c0.673,-0.662 1.487,-0.993 2.442,-0.993c0.976,0 1.806,0.331 2.49,0.993c0.683,0.662 1.025,1.492 1.025,2.49c0,0.955 -0.342,1.769 -1.025,2.442c-0.684,0.672 -1.514,1.009 -2.49,1.009Zm2.604,41.797l-5.339,-0l0,-33.334l5.339,0l-0,33.334Z" style="fill-rule:nonzero;"/><path d="M3266.82,576.65l-0.13,-0l-0,4.818l-5.339,-0l0,-49.349l5.339,-0l-0,21.875l0.13,-0c2.626,-4.427 6.467,-6.641 11.523,-6.641c4.275,0 7.623,1.492 10.043,4.476c2.419,2.984 3.629,6.982 3.629,11.995c0,5.578 -1.356,10.043 -4.069,13.396c-2.713,3.353 -6.423,5.029 -11.133,5.029c-4.405,-0 -7.736,-1.866 -9.993,-5.599Zm-0.13,-13.444l-0,4.655c-0,2.756 0.895,5.094 2.685,7.015c1.791,1.92 4.064,2.881 6.82,2.881c3.233,-0 5.767,-1.237 7.601,-3.711c1.834,-2.474 2.75,-5.914 2.75,-10.319c0,-3.711 -0.857,-6.619 -2.571,-8.724c-1.715,-2.105 -4.037,-3.158 -6.966,-3.158c-3.104,0 -5.599,1.08 -7.487,3.239c-1.888,2.16 -2.832,4.867 -2.832,8.122Z" style="fill-rule:nonzero;"/><path d="M3303.28,539.671c-0.955,-0 -1.768,-0.326 -2.441,-0.977c-0.673,-0.651 -1.009,-1.475 -1.009,-2.474c-0,-0.998 0.336,-1.828 1.009,-2.49c0.673,-0.662 1.486,-0.993 2.441,-0.993c0.977,0 1.807,0.331 2.49,0.993c0.684,0.662 1.026,1.492 1.026,2.49c-0,0.955 -0.342,1.769 -1.026,2.442c-0.683,0.672 -1.513,1.009 -2.49,1.009Zm2.604,41.797l-5.338,-0l-0,-33.334l5.338,0l0,33.334Z" style="fill-rule:nonzero;"/><rect x="3316.69" y="532.119" width="5.339" height="49.349" style="fill-rule:nonzero;"/><path d="M3335.57,539.671c-0.955,-0 -1.769,-0.326 -2.442,-0.977c-0.672,-0.651 -1.009,-1.475 -1.009,-2.474c0,-0.998 0.337,-1.828 1.009,-2.49c0.673,-0.662 1.487,-0.993 2.442,-0.993c0.976,0 1.806,0.331 2.49,0.993c0.684,0.662 1.025,1.492 1.025,2.49c0,0.955 -0.341,1.769 -1.025,2.442c-0.684,0.672 -1.514,1.009 -2.49,1.009Zm2.604,41.797l-5.339,-0l0,-33.334l5.339,0l0,33.334Z" style="fill-rule:nonzero;"/><path d="M3364.45,581.142c-1.259,0.695 -2.919,1.042 -4.981,1.042c-5.838,-0 -8.756,-3.255 -8.756,-9.766l-0,-19.726l-5.73,-0l0,-4.558l5.73,0l-0,-8.138l5.338,-1.725l0,9.863l8.399,0l-0,4.558l-8.399,-0l0,18.782c0,2.235 0.38,3.83 1.139,4.785c0.76,0.955 2.019,1.433 3.776,1.433c1.346,-0 2.507,-0.369 3.484,-1.107l-0,4.557Z" style="fill-rule:nonzero;"/><path d="M3398.1,548.134l-15.332,38.672c-2.734,6.901 -6.575,10.352 -11.523,10.352c-1.389,-0 -2.55,-0.141 -3.483,-0.423l-0,-4.786c1.15,0.391 2.203,0.586 3.157,0.586c2.691,0 4.71,-1.606 6.055,-4.817l2.669,-6.315l-13.02,-33.269l5.924,0l9.017,25.651c0.108,0.326 0.336,1.172 0.684,2.539l0.195,0c0.108,-0.52 0.325,-1.345 0.651,-2.474l9.473,-25.716l5.533,0Z" style="fill-rule:nonzero;"/><path d="M3102.76,677.428l-4.672,0l0,-4.614l-0.114,-0c-1.936,3.532 -4.937,5.298 -9,5.298c-6.95,-0 -10.425,-4.14 -10.425,-12.419l-0,-17.432l4.643,0l-0,16.692c-0,6.152 2.354,9.228 7.063,9.228c2.279,0 4.154,-0.84 5.626,-2.521c1.472,-1.68 2.207,-3.878 2.207,-6.594l0,-16.805l4.672,0l-0,29.167Z" style="fill-rule:nonzero;"/><path d="M3110.42,676.374l-0,-5.013c2.544,1.88 5.345,2.82 8.402,2.82c4.102,0 6.152,-1.367 6.152,-4.101c0,-0.779 -0.175,-1.439 -0.527,-1.98c-0.351,-0.541 -0.826,-1.021 -1.424,-1.438c-0.598,-0.418 -1.3,-0.793 -2.107,-1.126c-0.808,-0.332 -1.676,-0.678 -2.607,-1.039c-1.291,-0.513 -2.425,-1.03 -3.403,-1.552c-0.978,-0.523 -1.795,-1.111 -2.45,-1.766c-0.655,-0.656 -1.149,-1.401 -1.481,-2.236c-0.332,-0.836 -0.499,-1.814 -0.499,-2.934c0,-1.367 0.314,-2.578 0.94,-3.632c0.627,-1.054 1.463,-1.937 2.507,-2.649c1.044,-0.712 2.236,-1.248 3.575,-1.609c1.338,-0.361 2.72,-0.541 4.144,-0.541c2.525,-0 4.785,0.437 6.779,1.31l-0,4.728c-2.146,-1.405 -4.614,-2.107 -7.406,-2.107c-0.873,-0 -1.661,0.099 -2.364,0.299c-0.702,0.199 -1.305,0.479 -1.809,0.84c-0.503,0.361 -0.892,0.793 -1.167,1.296c-0.276,0.503 -0.413,1.058 -0.413,1.666c-0,0.76 0.137,1.396 0.413,1.908c0.275,0.513 0.678,0.969 1.21,1.368c0.532,0.398 1.177,0.759 1.937,1.082c0.76,0.323 1.624,0.674 2.592,1.054c1.291,0.494 2.45,1.002 3.475,1.524c1.025,0.522 1.899,1.111 2.62,1.766c0.722,0.655 1.277,1.41 1.667,2.264c0.389,0.855 0.584,1.87 0.584,3.048c-0,1.443 -0.319,2.696 -0.955,3.76c-0.636,1.063 -1.486,1.946 -2.549,2.648c-1.063,0.703 -2.288,1.225 -3.674,1.567c-1.386,0.342 -2.839,0.513 -4.358,0.513c-3,-0 -5.602,-0.579 -7.804,-1.738Z" style="fill-rule:nonzero;"/><path d="M3160.38,664.013l-20.593,-0c0.076,3.247 0.949,5.753 2.62,7.519c1.671,1.766 3.969,2.649 6.893,2.649c3.285,0 6.304,-1.082 9.058,-3.247l-0,4.386c-2.564,1.861 -5.953,2.792 -10.169,2.792c-4.12,-0 -7.358,-1.325 -9.713,-3.974c-2.354,-2.649 -3.532,-6.375 -3.532,-11.179c0,-4.539 1.287,-8.237 3.86,-11.094c2.573,-2.858 5.768,-4.287 9.584,-4.287c3.817,-0 6.77,1.234 8.859,3.703c2.088,2.468 3.133,5.896 3.133,10.282l-0,2.45Zm-4.785,-3.96c-0.019,-2.696 -0.67,-4.794 -1.951,-6.294c-1.282,-1.5 -3.062,-2.25 -5.341,-2.25c-2.203,-0 -4.073,0.788 -5.611,2.364c-1.538,1.576 -2.488,3.636 -2.848,6.18l15.751,0Z" style="fill-rule:nonzero;"/><path d="M3182.66,652.99c-0.817,-0.627 -1.994,-0.94 -3.532,-0.94c-1.994,-0 -3.66,0.94 -4.999,2.82c-1.339,1.879 -2.008,4.443 -2.008,7.69l-0,14.868l-4.671,0l-0,-29.167l4.671,0l-0,6.01l0.114,0c0.664,-2.05 1.68,-3.65 3.047,-4.799c1.368,-1.149 2.896,-1.723 4.586,-1.723c1.216,-0 2.146,0.133 2.792,0.399l-0,4.842Z" style="fill-rule:nonzero;"/><path d="M3099.06,770.728c-2.241,1.348 -4.899,2.022 -7.975,2.022c-4.159,0 -7.515,-1.353 -10.069,-4.059c-2.554,-2.706 -3.831,-6.214 -3.831,-10.524c-0,-4.804 1.376,-8.664 4.13,-11.579c2.753,-2.914 6.427,-4.372 11.023,-4.372c2.563,0 4.823,0.475 6.779,1.424l-0,4.786c-2.165,-1.52 -4.482,-2.279 -6.95,-2.279c-2.981,-0 -5.426,1.068 -7.335,3.204c-1.908,2.136 -2.862,4.942 -2.862,8.417c-0,3.418 0.897,6.114 2.692,8.089c1.794,1.975 4.201,2.962 7.22,2.962c2.545,0 4.937,-0.845 7.178,-2.535l-0,4.444Z" style="fill-rule:nonzero;"/><rect x="3106.12" y="728.886" width="4.671" height="43.18" style="fill-rule:nonzero;"/><path d="M3132.44,772.75c-4.311,0 -7.752,-1.362 -10.325,-4.087c-2.573,-2.725 -3.86,-6.338 -3.86,-10.838c0,-4.899 1.339,-8.725 4.016,-11.479c2.678,-2.753 6.295,-4.13 10.853,-4.13c4.348,0 7.742,1.339 10.182,4.016c2.44,2.678 3.66,6.39 3.66,11.137c0,4.652 -1.315,8.379 -3.945,11.18c-2.63,2.801 -6.157,4.201 -10.581,4.201Zm0.342,-26.603c-3,-0 -5.374,1.021 -7.121,3.062c-1.747,2.041 -2.62,4.856 -2.62,8.445c-0,3.456 0.882,6.181 2.648,8.175c1.766,1.994 4.13,2.99 7.093,2.99c3.019,0 5.34,-0.978 6.964,-2.933c1.623,-1.956 2.435,-4.738 2.435,-8.346c0,-3.646 -0.812,-6.456 -2.435,-8.431c-1.624,-1.975 -3.945,-2.962 -6.964,-2.962Z" style="fill-rule:nonzero;"/><path d="M3178.01,772.066l-4.671,0l-0,-4.614l-0.114,0c-1.937,3.532 -4.937,5.298 -9.001,5.298c-6.95,0 -10.425,-4.139 -10.425,-12.419l0,-17.431l4.643,-0l-0,16.691c-0,6.152 2.355,9.228 7.064,9.228c2.278,0 4.154,-0.84 5.625,-2.52c1.472,-1.681 2.208,-3.879 2.208,-6.594l-0,-16.805l4.671,-0l-0,29.166Z" style="fill-rule:nonzero;"/><path d="M3212.33,772.066l-4.671,0l-0,-4.956l-0.114,0c-2.165,3.76 -5.507,5.64 -10.026,5.64c-3.665,0 -6.594,-1.305 -8.787,-3.916c-2.193,-2.611 -3.29,-6.167 -3.29,-10.667c-0,-4.823 1.215,-8.688 3.646,-11.593c2.43,-2.905 5.668,-4.358 9.712,-4.358c4.007,0 6.922,1.576 8.745,4.728l0.114,0l-0,-18.058l4.671,0l-0,43.18Zm-4.671,-13.187l-0,-4.301c-0,-2.355 -0.779,-4.349 -2.336,-5.982c-1.557,-1.633 -3.532,-2.449 -5.924,-2.449c-2.849,-0 -5.089,1.044 -6.722,3.133c-1.633,2.089 -2.45,4.975 -2.45,8.659c0,3.361 0.783,6.015 2.35,7.961c1.567,1.946 3.67,2.919 6.309,2.919c2.601,0 4.714,-0.94 6.337,-2.819c1.624,-1.88 2.436,-4.254 2.436,-7.121Z" style="fill-rule:nonzero;"/><path d="M3242.55,767.851l-0.113,-0l-0,17.631l-4.672,0l0,-42.582l4.672,-0l-0,5.127l0.113,-0c2.298,-3.874 5.659,-5.811 10.083,-5.811c3.76,0 6.694,1.306 8.802,3.917c2.108,2.611 3.161,6.109 3.161,10.496c0,4.88 -1.186,8.787 -3.56,11.72c-2.374,2.934 -5.621,4.401 -9.741,4.401c-3.779,0 -6.694,-1.633 -8.745,-4.899Zm-0.113,-11.764l-0,4.074c-0,2.411 0.783,4.457 2.349,6.138c1.567,1.68 3.556,2.52 5.968,2.52c2.829,0 5.046,-1.082 6.65,-3.247c1.605,-2.164 2.407,-5.174 2.407,-9.029c0,-3.247 -0.75,-5.791 -2.25,-7.633c-1.5,-1.842 -3.532,-2.763 -6.095,-2.763c-2.716,-0 -4.899,0.945 -6.551,2.834c-1.652,1.889 -2.478,4.258 -2.478,7.106Z" style="fill-rule:nonzero;"/><path d="M3287.27,747.628c-0.817,-0.627 -1.994,-0.94 -3.532,-0.94c-1.994,0 -3.66,0.94 -4.999,2.82c-1.338,1.88 -2.008,4.443 -2.008,7.69l0,14.868l-4.671,0l-0,-29.166l4.671,-0l0,6.01l0.114,-0c0.665,-2.051 1.681,-3.651 3.048,-4.8c1.367,-1.148 2.896,-1.723 4.586,-1.723c1.215,0 2.145,0.133 2.791,0.399l-0,4.842Z" style="fill-rule:nonzero;"/><path d="M3304.53,772.75c-4.311,0 -7.752,-1.362 -10.325,-4.087c-2.573,-2.725 -3.86,-6.338 -3.86,-10.838c0,-4.899 1.339,-8.725 4.016,-11.479c2.678,-2.753 6.295,-4.13 10.852,-4.13c4.349,0 7.743,1.339 10.183,4.016c2.44,2.678 3.66,6.39 3.66,11.137c0,4.652 -1.315,8.379 -3.945,11.18c-2.63,2.801 -6.157,4.201 -10.581,4.201Zm0.341,-26.603c-3,-0 -5.373,1.021 -7.12,3.062c-1.747,2.041 -2.621,4.856 -2.621,8.445c0,3.456 0.883,6.181 2.649,8.175c1.766,1.994 4.13,2.99 7.092,2.99c3.02,0 5.341,-0.978 6.965,-2.933c1.623,-1.956 2.435,-4.738 2.435,-8.346c-0,-3.646 -0.812,-6.456 -2.435,-8.431c-1.624,-1.975 -3.945,-2.962 -6.965,-2.962Z" style="fill-rule:nonzero;"/><path d="M3349.45,742.9l-11.621,29.166l-4.585,0l-11.052,-29.166l5.127,-0l7.406,21.191c0.55,1.557 0.892,2.915 1.025,4.073l0.114,0c0.19,-1.462 0.494,-2.782 0.911,-3.959l7.748,-21.305l4.927,-0Z" style="fill-rule:nonzero;"/><path d="M3356.86,735.494c-0.835,0 -1.548,-0.285 -2.136,-0.854c-0.589,-0.57 -0.883,-1.292 -0.883,-2.165c-0,-0.873 0.294,-1.6 0.883,-2.179c0.588,-0.579 1.301,-0.869 2.136,-0.869c0.855,0 1.581,0.29 2.179,0.869c0.598,0.579 0.897,1.306 0.897,2.179c0,0.836 -0.299,1.548 -0.897,2.136c-0.598,0.589 -1.324,0.883 -2.179,0.883Zm2.279,36.572l-4.672,0l0,-29.166l4.672,-0l-0,29.166Z" style="fill-rule:nonzero;"/><path d="M3393.49,772.066l-4.671,0l0,-4.956l-0.114,0c-2.165,3.76 -5.507,5.64 -10.026,5.64c-3.665,0 -6.594,-1.305 -8.787,-3.916c-2.193,-2.611 -3.29,-6.167 -3.29,-10.667c0,-4.823 1.216,-8.688 3.646,-11.593c2.431,-2.905 5.668,-4.358 9.713,-4.358c4.006,0 6.921,1.576 8.744,4.728l0.114,0l0,-18.058l4.671,0l0,43.18Zm-4.671,-13.187l0,-4.301c0,-2.355 -0.778,-4.349 -2.336,-5.982c-1.557,-1.633 -3.531,-2.449 -5.924,-2.449c-2.848,-0 -5.089,1.044 -6.722,3.133c-1.633,2.089 -2.45,4.975 -2.45,8.659c0,3.361 0.784,6.015 2.35,7.961c1.567,1.946 3.67,2.919 6.309,2.919c2.602,0 4.714,-0.94 6.338,-2.819c1.623,-1.88 2.435,-4.254 2.435,-7.121Z" style="fill-rule:nonzero;"/><path d="M3426.38,758.651l-20.593,-0c0.076,3.247 0.949,5.754 2.62,7.519c1.671,1.766 3.969,2.649 6.893,2.649c3.285,0 6.305,-1.082 9.058,-3.247l-0,4.387c-2.564,1.861 -5.953,2.791 -10.169,2.791c-4.12,0 -7.358,-1.324 -9.712,-3.973c-2.355,-2.649 -3.532,-6.376 -3.532,-11.18c-0,-4.538 1.286,-8.236 3.859,-11.094c2.573,-2.858 5.768,-4.287 9.585,-4.287c3.817,0 6.769,1.234 8.858,3.703c2.089,2.469 3.133,5.896 3.133,10.282l0,2.45Zm-4.785,-3.959c-0.019,-2.697 -0.669,-4.795 -1.951,-6.295c-1.282,-1.5 -3.062,-2.25 -5.341,-2.25c-2.202,-0 -4.073,0.788 -5.611,2.364c-1.538,1.576 -2.487,3.636 -2.848,6.181l15.751,-0Z" style="fill-rule:nonzero;"/><path d="M3448.66,747.628c-0.817,-0.627 -1.994,-0.94 -3.532,-0.94c-1.994,0 -3.66,0.94 -4.999,2.82c-1.338,1.88 -2.008,4.443 -2.008,7.69l0,14.868l-4.671,0l0,-29.166l4.671,-0l0,6.01l0.114,-0c0.665,-2.051 1.681,-3.651 3.048,-4.8c1.367,-1.148 2.896,-1.723 4.586,-1.723c1.215,0 2.145,0.133 2.791,0.399l-0,4.842Z" style="fill-rule:nonzero;"/><path d="M3044.92,735.713l-0,29.527c-0,8.148 -6.616,14.764 -14.764,14.764l-29.528,-0c-8.148,-0 -14.763,-6.616 -14.763,-14.764l-0,-29.527c-0,-8.149 6.615,-14.764 14.763,-14.764l29.528,-0c8.148,-0 14.764,6.615 14.764,14.764Z" style="fill:#f00;"/><path d="M3044.92,641.074l-0,29.528c-0,8.148 -6.616,14.764 -14.764,14.764l-29.528,-0c-8.148,-0 -14.763,-6.616 -14.763,-14.764l-0,-29.528c-0,-8.148 6.615,-14.764 14.763,-14.764l29.528,0c8.148,0 14.764,6.616 14.764,14.764Z" style="fill:#00f;"/><path d="M2935.4,604.037l565.523,0" style="fill:none;stroke:#000;stroke-width:4.17px;"/></g></svg>